<svg width="43" height="12" viewBox="0 0 43 12" fill="none" xmlns="http://www.w3.org/2000/svg">
<path d="M7.19946 6.85059H7.87622C7.87622 7.56608 7.68254 8.10384 7.29517 8.46387C6.9078 8.81934 6.38371 8.99707 5.7229 8.99707C5.26717 8.99707 4.86841 8.88542 4.52661 8.66211C4.18481 8.4388 3.91821 8.12891 3.72681 7.73242C3.53996 7.33594 3.44653 6.87565 3.44653 6.35156V5.68848C3.44653 5.16439 3.53996 4.7041 3.72681 4.30762C3.91821 3.91113 4.18481 3.60124 4.52661 3.37793C4.86841 3.15462 5.26717 3.04297 5.7229 3.04297C6.38371 3.04297 6.9078 3.2207 7.29517 3.57617C7.68709 3.93164 7.88306 4.46712 7.88306 5.18262H7.2063C7.2063 4.65853 7.07869 4.27344 6.82349 4.02734C6.57284 3.78125 6.20597 3.6582 5.7229 3.6582C5.3811 3.6582 5.08944 3.74707 4.8479 3.9248C4.61092 4.10254 4.43091 4.34408 4.30786 4.64941C4.18481 4.95475 4.12329 5.29883 4.12329 5.68164V6.35156C4.12329 6.73438 4.18481 7.08073 4.30786 7.39062C4.43091 7.69596 4.61092 7.9375 4.8479 8.11523C5.08944 8.28841 5.3811 8.375 5.7229 8.375C6.20597 8.375 6.57284 8.25423 6.82349 8.0127C7.07414 7.77116 7.19946 7.38379 7.19946 6.85059ZM1.52563 6.0166C1.52563 6.65007 1.63501 7.24251 1.85376 7.79395C2.07707 8.34538 2.38468 8.82845 2.77661 9.24316C3.16854 9.65332 3.62199 9.97461 4.13696 10.207C4.65649 10.4349 5.21021 10.5488 5.7981 10.5488C6.38143 10.5488 6.93058 10.4349 7.44556 10.207C7.96053 9.97461 8.41398 9.65332 8.80591 9.24316C9.19784 8.82845 9.50317 8.34538 9.72192 7.79395C9.94523 7.24251 10.0569 6.65007 10.0569 6.0166C10.0569 5.37858 9.94523 4.78613 9.72192 4.23926C9.50317 3.69238 9.19784 3.21387 8.80591 2.80371C8.41398 2.39355 7.96053 2.07454 7.44556 1.84668C6.93058 1.61882 6.38143 1.50488 5.7981 1.50488C5.21021 1.50488 4.65649 1.61882 4.13696 1.84668C3.62199 2.07454 3.16854 2.39355 2.77661 2.80371C2.38468 3.21387 2.07707 3.69238 1.85376 4.23926C1.63501 4.78613 1.52563 5.37858 1.52563 6.0166ZM0.94458 6.0166C0.94458 5.29199 1.06991 4.61979 1.32056 4C1.57121 3.38021 1.91984 2.84017 2.36646 2.37988C2.81307 1.91504 3.32804 1.55501 3.91138 1.2998C4.49927 1.04004 5.12817 0.910156 5.7981 0.910156C6.46802 0.910156 7.09465 1.04004 7.67798 1.2998C8.26587 1.55501 8.78084 1.91504 9.2229 2.37988C9.66951 2.84017 10.0181 3.38021 10.2688 4C10.5194 4.61979 10.6448 5.29199 10.6448 6.0166C10.6448 6.74121 10.5194 7.41341 10.2688 8.0332C10.0181 8.65299 9.66951 9.19759 9.2229 9.66699C8.78084 10.1318 8.26587 10.4941 7.67798 10.7539C7.09465 11.0137 6.46802 11.1436 5.7981 11.1436C5.12817 11.1436 4.49927 11.0137 3.91138 10.7539C3.32804 10.4941 2.81307 10.1318 2.36646 9.66699C1.91984 9.19759 1.57121 8.65299 1.32056 8.0332C1.06991 7.41341 0.94458 6.74121 0.94458 6.0166ZM18.5745 10.2959V11H12.3469V10.3643L15.6077 6.66602C16.0133 6.20573 16.3368 5.80241 16.5784 5.45605C16.8199 5.10514 16.9931 4.78613 17.0979 4.49902C17.2073 4.20736 17.262 3.9248 17.262 3.65137C17.262 3.25033 17.1822 2.89714 17.0227 2.5918C16.8678 2.28646 16.6353 2.0472 16.3254 1.87402C16.0155 1.70085 15.6327 1.61426 15.177 1.61426C14.7213 1.61426 14.3248 1.71224 13.9875 1.9082C13.6503 2.10417 13.3905 2.3776 13.2083 2.72852C13.0305 3.07487 12.9417 3.46908 12.9417 3.91113H12.1282C12.1282 3.36426 12.2489 2.86296 12.4905 2.40723C12.7366 1.9515 13.0875 1.58919 13.5432 1.32031C13.9989 1.04688 14.5435 0.910156 15.177 0.910156C15.7786 0.910156 16.2958 1.01725 16.7288 1.23145C17.1617 1.44108 17.4944 1.74414 17.7268 2.14062C17.9638 2.53711 18.0823 3.01562 18.0823 3.57617C18.0823 3.87695 18.0276 4.18001 17.9182 4.48535C17.8134 4.79069 17.6676 5.09603 17.4807 5.40137C17.2984 5.70215 17.0888 6.00065 16.8518 6.29688C16.6194 6.5931 16.3756 6.88477 16.1204 7.17188L13.345 10.2959H18.5745ZM26.1077 5.16895V6.84375C26.1077 7.57292 26.0393 8.20866 25.9026 8.75098C25.7659 9.28874 25.5653 9.73535 25.301 10.0908C25.0413 10.4417 24.7222 10.7038 24.344 10.877C23.9703 11.0501 23.5419 11.1367 23.0588 11.1367C22.676 11.1367 22.3251 11.082 22.0061 10.9727C21.6871 10.8633 21.4023 10.6969 21.1516 10.4736C20.9055 10.2458 20.6959 9.96094 20.5227 9.61914C20.3495 9.27734 20.2174 8.8763 20.1262 8.41602C20.0351 7.95117 19.9895 7.42708 19.9895 6.84375V5.16895C19.9895 4.43522 20.0579 3.80176 20.1946 3.26855C20.3359 2.73535 20.5364 2.29329 20.7961 1.94238C21.0605 1.59147 21.3818 1.33171 21.76 1.16309C22.1383 0.989909 22.5667 0.90332 23.0452 0.90332C23.428 0.90332 23.7789 0.960286 24.0979 1.07422C24.4215 1.18359 24.7063 1.34766 24.9524 1.56641C25.203 1.78516 25.4127 2.06543 25.5813 2.40723C25.7545 2.74447 25.8844 3.14323 25.9709 3.60352C26.0621 4.0638 26.1077 4.58561 26.1077 5.16895ZM25.2942 6.93945V5.06641C25.2942 4.61523 25.2623 4.20508 25.1985 3.83594C25.1392 3.4668 25.0504 3.14323 24.9319 2.86523C24.8134 2.58724 24.663 2.35482 24.4807 2.16797C24.303 1.98112 24.0933 1.84212 23.8518 1.75098C23.6148 1.65527 23.3459 1.60742 23.0452 1.60742C22.676 1.60742 22.3502 1.68262 22.0676 1.83301C21.7896 1.97884 21.5572 2.19759 21.3704 2.48926C21.1835 2.77637 21.0422 3.13639 20.9465 3.56934C20.8554 4.00228 20.8098 4.5013 20.8098 5.06641V6.93945C20.8098 7.38607 20.8394 7.79395 20.8987 8.16309C20.9579 8.52767 21.0491 8.85124 21.1721 9.13379C21.2952 9.41634 21.4456 9.6556 21.6233 9.85156C21.8056 10.043 22.0152 10.1888 22.2522 10.2891C22.4937 10.3848 22.7626 10.4326 23.0588 10.4326C23.4371 10.4326 23.7652 10.3574 24.0432 10.207C24.3212 10.0521 24.5536 9.8265 24.7405 9.53027C24.9273 9.22949 25.0663 8.86263 25.1575 8.42969C25.2486 7.99219 25.2942 7.49544 25.2942 6.93945ZM34.1057 10.2959V11H27.8782V10.3643L31.1389 6.66602C31.5445 6.20573 31.8681 5.80241 32.1096 5.45605C32.3512 5.10514 32.5243 4.78613 32.6292 4.49902C32.7385 4.20736 32.7932 3.9248 32.7932 3.65137C32.7932 3.25033 32.7135 2.89714 32.554 2.5918C32.399 2.28646 32.1666 2.0472 31.8567 1.87402C31.5468 1.70085 31.164 1.61426 30.7083 1.61426C30.2525 1.61426 29.856 1.71224 29.5188 1.9082C29.1816 2.10417 28.9218 2.3776 28.7395 2.72852C28.5618 3.07487 28.4729 3.46908 28.4729 3.91113H27.6594C27.6594 3.36426 27.7802 2.86296 28.0217 2.40723C28.2678 1.9515 28.6187 1.58919 29.0745 1.32031C29.5302 1.04688 30.0748 0.910156 30.7083 0.910156C31.3098 0.910156 31.8271 1.01725 32.26 1.23145C32.693 1.44108 33.0256 1.74414 33.2581 2.14062C33.495 2.53711 33.6135 3.01562 33.6135 3.57617C33.6135 3.87695 33.5588 4.18001 33.4495 4.48535C33.3446 4.79069 33.1988 5.09603 33.012 5.40137C32.8297 5.70215 32.62 6.00065 32.3831 6.29688C32.1506 6.5931 31.9068 6.88477 31.6516 7.17188L28.8762 10.2959H34.1057ZM42.2131 7.78711V8.48438H35.1653V8.0127L39.7659 1.04688H40.4495L39.4788 2.73535L36.1633 7.78711H42.2131ZM40.6614 1.04688V11H39.8479V1.04688H40.6614Z" fill="white"/>
</svg>
