<svg width="400" height="400" viewBox="0 0 400 400" fill="none" xmlns="http://www.w3.org/2000/svg">
<g clip-path="url(#clip0_415_144)">
<path d="M400 0H0V400H400V0Z" fill="white"/>
<path d="M195.173 53.5946C274.585 51.2819 343.372 108.107 353.765 182.667C365.128 264.19 302.589 337.541 225.636 349.288C129.92 363.901 37.0813 279.365 45.4167 187.655C51.697 118.56 114.448 55.945 195.172 53.5946H195.173Z" fill="#F4F2F2"/>
<path d="M256.033 307.49C258.277 312.811 262.459 320.199 266.912 328.711H172.014C186.51 301.911 205.472 274.307 190.696 221.988C183.763 197.436 162.331 152.932 177.485 127.516C194.749 98.5606 218.154 115.532 228.034 92.6092C243.478 56.7828 278.968 35.4426 310.378 58.9067C341.379 82.0647 330.575 148.716 275.656 215.389C241.674 267.683 244.319 279.707 256.034 307.49H256.033Z" fill="url(#paint0_linear_415_144)"/>
<mask id="mask0_415_144" style="mask-type:luminance" maskUnits="userSpaceOnUse" x="172" y="49" width="156" height="280">
<path d="M256.033 307.49C258.277 312.811 262.459 320.199 266.912 328.711H172.014C186.51 301.911 205.472 274.307 190.696 221.988C183.763 197.436 162.331 152.932 177.485 127.516C194.749 98.5606 218.154 115.532 228.034 92.6092C243.478 56.7828 278.968 35.4426 310.378 58.9067C341.379 82.0647 330.575 148.716 275.656 215.389C241.674 267.683 244.319 279.707 256.034 307.49H256.033Z" fill="white"/>
</mask>
<g mask="url(#mask0_415_144)">
<g style="mix-blend-mode:soft-light">
<path d="M217.85 323.212C218.947 310.908 220.604 299.357 222.359 287.13L222.943 283.053C224.151 277.217 225.184 271.431 226.182 265.834C228.437 253.197 230.567 241.26 234.559 228.839C234.708 228.101 234.817 227.379 234.931 226.615C235.341 223.885 235.765 221.062 237.742 218.591L237.795 218.484C253.934 152.067 284.044 87.8652 327.288 27.6647L326.841 27.3434C283.569 87.5828 253.434 151.829 237.274 218.294C235.238 220.87 234.786 223.877 234.388 226.533C234.274 227.291 234.167 228.005 234.028 228.7C230.032 241.127 227.899 253.08 225.641 265.737C224.643 271.329 223.611 277.113 222.401 282.958L221.814 287.052C220.058 299.287 218.399 310.844 217.301 323.163L217.85 323.212Z" fill="#FCFDFE"/>
<path d="M227.123 263.586C232.332 231.824 221.011 191.561 210.598 163.378C199.321 132.856 186.649 109.533 186.522 109.301L186.039 109.566C186.165 109.797 198.822 133.091 210.085 163.577C220.474 191.697 231.769 231.858 226.581 263.499L227.125 263.587L227.123 263.586Z" fill="#FCFDFE"/>
<path d="M268.554 128.273C275.959 94.8776 275.997 58.1143 276.009 46.0345C276.011 43.724 276.013 42.1973 276.065 41.9084L275.522 41.8113C275.464 42.1348 275.461 43.3402 275.458 46.0345C275.446 58.1003 275.408 94.8173 268.016 128.154L268.553 128.274L268.554 128.273Z" fill="#FCFDFE"/>
<path d="M248.594 180.498C264.198 153.063 327.491 135.899 328.128 135.728L327.986 135.197C327.347 135.367 263.832 152.593 248.114 180.226L248.593 180.498H248.594Z" fill="#FCFDFE"/>
</g>
</g>
<path d="M272.344 201.559C271.833 245.158 250.804 230.791 231.413 235.094C209.034 267.474 206.926 297.515 240.339 323.459L277.57 317.887C291.384 317.245 307.593 313.023 306.678 294.63C305.644 273.825 300.724 260.612 324.206 250.396C347.687 240.179 357.775 221.536 348.265 200.332C338.259 178.017 361.729 147.939 344.577 132.987C314.689 106.935 272.875 156.158 272.344 201.558V201.559Z" fill="url(#paint1_linear_415_144)"/>
<mask id="mask1_415_144" style="mask-type:luminance" maskUnits="userSpaceOnUse" x="214" y="125" width="138" height="199">
<path d="M272.344 201.559C271.833 245.158 250.804 230.791 231.413 235.094C209.034 267.474 206.926 297.515 240.339 323.459L277.57 317.887C291.384 317.245 307.593 313.023 306.678 294.63C305.644 273.825 300.724 260.612 324.206 250.396C347.687 240.179 357.775 221.536 348.265 200.332C338.259 178.017 361.729 147.939 344.577 132.987C314.689 106.935 272.875 156.158 272.344 201.558V201.559Z" fill="white"/>
</mask>
<g mask="url(#mask1_415_144)">
<g style="mix-blend-mode:soft-light">
<path d="M263.101 279.582C278.645 262.576 292.112 243.68 303.13 223.416C314.241 202.977 322.712 181.419 328.303 159.34C331.509 146.68 333.774 133.781 335.031 121.003L334.47 120.948C333.215 133.698 330.956 146.568 327.756 159.202C322.176 181.235 313.724 202.749 302.634 223.146C291.639 243.37 278.197 262.23 262.685 279.201L263.1 279.582H263.101Z" fill="#FCFDFE"/>
<path d="M303.173 303.528L303.429 303.025C296.514 299.503 288.357 296.756 279.185 294.86C274.814 293.957 270.472 293.361 266.28 293.089L266.244 293.651C270.41 293.921 274.726 294.513 279.071 295.412C288.194 297.297 296.303 300.027 303.173 303.528Z" fill="#FCFDFE"/>
<path d="M295.881 235.856C315.106 217.258 356.031 218.957 356.441 218.98L356.468 218.417C356.053 218.399 314.891 216.684 295.49 235.451L295.881 235.856Z" fill="#FCFDFE"/>
<path d="M319.588 187.32C325.342 157.651 303.106 123.365 302.882 123.023L302.412 123.333C302.636 123.673 324.746 157.771 319.036 187.213L319.589 187.32H319.588Z" fill="#FCFDFE"/>
</g>
</g>
<path d="M86.6847 326.602L217.493 317.569C217.651 317.554 217.809 317.554 217.967 317.568L295.868 321.096C297.732 321.266 297.647 326.146 295.532 326.412L173.129 342.802C172.628 342.864 172.121 342.863 171.621 342.798L86.9262 330.897C85.7963 330.7 85.3833 326.698 86.6858 326.603L86.6847 326.602Z" fill="url(#paint2_linear_415_144)"/>
<path d="M86.9434 326.457L217.493 314.138C217.651 314.123 217.809 314.123 217.967 314.137L295.49 320.943C296.913 321.068 296.95 323.136 295.532 323.311L173.129 338.416C172.628 338.478 172.121 338.477 171.62 338.412L86.9261 327.466C86.3267 327.389 86.3407 326.515 86.9434 326.458V326.457Z" fill="url(#paint3_linear_415_144)"/>
<path d="M174.423 336.94C174.242 336.94 174.058 336.928 173.879 336.906L97.97 327.095C97.6929 327.06 97.7004 326.657 97.9775 326.631L214.546 315.653C214.572 315.651 214.597 315.65 214.623 315.65C214.647 315.65 214.671 315.65 214.696 315.653L288.798 322.158C289.142 322.189 289.151 322.688 288.808 322.731L174.941 336.909C174.77 336.93 174.595 336.941 174.422 336.941L174.423 336.94Z" fill="url(#paint4_linear_415_144)"/>
<path d="M131.238 332.221C131.21 332.447 130.496 332.547 129.643 332.443C128.79 332.34 128.121 332.072 128.148 331.846C128.176 331.619 128.89 331.52 129.742 331.624C130.595 331.727 131.265 331.995 131.238 332.221Z" fill="#F4F2F2"/>
<g style="mix-blend-mode:soft-light" opacity="0.6">
<path d="M192.968 339.21L181.218 340.754C180.36 340.867 179.657 340.446 179.657 339.816C179.657 339.184 180.36 338.59 181.218 338.489L192.968 337.117C193.694 337.032 194.277 337.429 194.277 338.001C194.277 338.574 193.694 339.115 192.968 339.21Z" fill="white"/>
<path d="M205.803 337.523L196.126 338.795C195.424 338.886 194.851 338.499 194.851 337.929C194.851 337.358 195.424 336.829 196.126 336.747L205.803 335.617C206.406 335.547 206.89 335.914 206.89 336.436C206.89 336.957 206.406 337.445 205.803 337.523Z" fill="white"/>
<path d="M222.019 335.393L214.658 336.36C214.129 336.429 213.697 336.085 213.697 335.59C213.697 335.095 214.128 334.644 214.658 334.582L222.019 333.722C222.482 333.668 222.855 333.996 222.855 334.454C222.855 334.912 222.483 335.332 222.019 335.393Z" fill="white"/>
</g>
<g style="mix-blend-mode:soft-light" opacity="0.6">
<path d="M235.643 321.738C224.267 323.763 216.713 327.887 200.387 328.218C186.246 328.504 186.141 325.245 169.706 324.216C148.174 322.867 142.561 328.097 120.538 327.646C114.796 327.529 107.279 327.01 98.3849 325.378L86.9423 326.458C86.3396 326.515 86.3246 327.389 86.9251 327.466L171.619 338.412C172.12 338.477 172.626 338.478 173.128 338.416L276.732 325.631C258.955 319.704 245.342 320.013 235.643 321.739V321.738Z" fill="white"/>
</g>
<path d="M193.6 323.785C193.6 320.896 202.619 319.847 208.68 319.847C214.742 319.847 223.761 320.896 223.761 323.785C223.761 326.675 214.742 327.724 208.68 327.724C202.619 327.724 193.6 326.675 193.6 323.785ZM194.751 323.785C194.751 324.759 199.534 326.574 208.68 326.574C217.827 326.574 222.61 324.758 222.61 323.785C222.61 322.812 217.827 320.997 208.68 320.997C199.535 320.997 194.751 322.813 194.751 323.785Z" fill="white"/>
<g style="mix-blend-mode:soft-light" opacity="0.6">
<path d="M208.68 325.314C212.322 325.314 215.273 324.63 215.273 323.785C215.273 322.941 212.322 322.257 208.68 322.257C205.039 322.257 202.087 322.941 202.087 323.785C202.087 324.63 205.039 325.314 208.68 325.314Z" fill="white"/>
</g>
<path opacity="0.56" d="M115.597 188.841L193.608 316.392L194.32 317.556L195.266 319.104L196.925 321.817L198.13 323.784C198.13 325.097 202.564 326.162 208.136 326.229C208.316 326.232 208.495 326.232 208.678 326.232C214.506 326.232 219.227 325.137 219.227 323.784L220.331 321.782L222.541 317.774L223.295 316.405L224.242 314.69L228.884 306.266L236.882 291.763L245.892 275.418L246.792 273.784L256.747 255.721L263.076 244.242L291.09 193.424C284.606 188.457 269.475 177.703 247.419 170.305C244.142 169.204 240.715 168.179 237.135 167.258C236.31 167.044 235.474 166.836 234.629 166.634C233.995 166.483 233.358 166.334 232.717 166.193C232.213 166.077 231.702 165.966 231.19 165.856H231.184C223.555 164.222 215.324 163.09 206.541 162.718C205.485 162.671 204.418 162.636 203.344 162.613C186.573 162.26 171.634 164.771 158.934 168.447C158.505 168.567 158.079 168.693 157.659 168.819C157.537 168.857 157.414 168.892 157.294 168.929C155.941 169.336 154.614 169.758 153.314 170.191C149.761 171.37 146.408 172.629 143.267 173.921C130.015 179.374 120.526 185.454 115.597 188.841Z" fill="white"/>
<path d="M64.1844 147.573L65.228 153.131C65.6205 155.22 67.5828 156.628 69.6173 156.272L77.5094 154.892C79.117 159.734 81.3488 164.252 84.1003 168.374L77.7962 173.688C76.2124 175.023 76.0399 177.446 77.4092 179.105L81.0598 183.531C82.4367 185.2 84.8518 185.482 86.4561 184.156L92.9919 178.751C96.7008 182.159 100.857 185.088 105.353 187.45L102.378 195.721C101.659 197.719 102.736 199.999 104.788 200.818L110.273 203.008C112.346 203.836 114.628 202.88 115.364 200.868L118.446 192.445C123.349 193.672 128.482 194.287 133.743 194.202L135.47 203.398C135.88 205.588 138.036 207.133 140.29 206.849L146.323 206.085C148.607 205.796 150.127 203.766 149.711 201.553L147.966 192.256C153.147 190.899 158.019 188.873 162.496 186.283L168.916 193.711C170.465 195.502 173.216 195.824 175.065 194.424L180.011 190.678C181.881 189.261 182.124 186.648 180.55 184.847L174.096 177.462C177.923 173.706 181.208 169.439 183.847 164.789L193.263 168.12C195.61 168.95 198.216 167.858 199.079 165.674L201.383 159.849C202.252 157.651 201.032 155.205 198.663 154.392L189.374 151.204C190.731 146.01 191.353 140.571 191.142 135.022L200.675 133.355C203.174 132.919 204.853 130.676 204.416 128.349L203.254 122.161C202.817 119.834 200.433 118.325 197.94 118.788L188.672 120.512C187.005 115.102 184.565 110.086 181.498 105.556L188.419 99.8318C190.337 98.2458 190.59 95.5342 188.979 93.7833L184.711 89.1439C183.111 87.4049 180.278 87.2938 178.387 88.8884L171.715 94.5132C167.481 90.8205 162.726 87.7563 157.61 85.4103L160.433 77.6927C161.25 75.4609 160.074 73.1041 157.811 72.4324L151.83 70.6588C149.594 69.9957 147.139 71.2572 146.343 73.4706L143.633 81.0038C138.221 80.014 132.615 79.7693 126.956 80.3515L125.547 72.8453C125.131 70.6307 122.974 69.2647 120.735 69.7919L114.819 71.1849C112.609 71.7046 111.156 73.9008 111.568 76.0917L112.962 83.5159C107.718 85.3855 102.892 87.9407 98.565 91.0394L93.6992 85.4717C92.2803 83.848 89.8016 83.751 88.1639 85.2485L83.834 89.2097C82.2146 90.6911 82.0367 93.1968 83.4329 94.814L88.303 100.449C84.883 104.442 82.0334 108.874 79.8383 113.61L72.7536 111.178C70.773 110.498 68.6178 111.605 67.9375 113.646L66.1326 119.057C65.4566 121.085 66.497 123.288 68.4615 123.984L75.6496 126.526C74.6954 131.434 74.3903 136.524 74.8129 141.687L67.1429 143.114C65.1127 143.491 63.7898 145.491 64.1822 147.581L64.1844 147.573ZM91.1774 144.684C87.1935 123.465 101.114 102.611 122.929 97.9634C145.513 93.1526 167.85 107.438 172.091 130.027C176.331 152.617 160.651 173.789 137.806 177.205C115.737 180.507 95.1601 165.901 91.1774 144.682V144.684Z" fill="#B4B4B4"/>
<path d="M144.293 71.7682L149.719 70.5542L152.521 75.0976L144.293 71.7682Z" fill="#B4B4B4"/>
<path d="M90.5694 84.1941L84.2837 85.4383L85.1559 90.083L90.5694 84.1941Z" fill="#B4B4B4"/>
<path d="M70.7774 111.104L64.5488 112.537L66.7774 115.756L70.7774 111.104Z" fill="#B4B4B4"/>
<path d="M66.6157 143.274L60.3699 144.966L63.0189 147.653L66.6157 143.274Z" fill="#B4B4B4"/>
<path d="M85.3262 184.792L79.3402 186.826L77.6443 181.946L85.3262 184.792Z" fill="#B4B4B4"/>
<path d="M113.118 203.033L107.783 205.074L106.578 201.077L113.118 203.033Z" fill="#B4B4B4"/>
<path d="M142.575 207.64L147.368 205.83L141.911 200.292L142.575 207.64Z" fill="#B4B4B4"/>
<path d="M168.438 197.26L173.988 194.984L168.519 190.423L168.438 197.26Z" fill="#B4B4B4"/>
<path d="M181.469 87.7272L175.478 89.0469L178.689 92.9919L181.469 87.7272Z" fill="#B4B4B4"/>
<path d="M202.331 132.741L196.961 134.593L196.551 129.991L202.331 132.741Z" fill="#B4B4B4"/>
<path d="M196.678 168.046L191.445 169.939L190.334 166.443L196.678 168.046Z" fill="#B4B4B4"/>
<path d="M58.0593 149.27L59.1116 154.873C59.5073 156.98 61.4857 158.398 63.5364 158.04L71.4944 156.648C73.1148 161.529 75.365 166.085 78.1391 170.24L71.7833 175.598C70.1865 176.943 70.0129 179.385 71.393 181.059L75.0739 185.521C76.4625 187.204 78.8971 187.489 80.5154 186.151L87.1051 180.702C90.8442 184.136 95.0361 187.089 99.5687 189.472L96.5693 197.809C95.8448 199.823 96.9305 202.122 98.9984 202.948L104.528 205.156C106.619 205.99 108.92 205.026 109.661 202.997L112.769 194.506C117.711 195.742 122.887 196.362 128.192 196.276L129.932 205.547C130.346 207.755 132.52 209.313 134.792 209.025L140.877 208.256C143.178 207.964 144.712 205.918 144.292 203.685L142.533 194.313C147.757 192.946 152.671 190.902 157.184 188.291L163.657 195.78C165.218 197.585 167.992 197.909 169.857 196.498L174.843 192.722C176.729 191.294 176.974 188.66 175.388 186.844L168.88 179.399C172.74 175.612 176.051 171.311 178.712 166.623L188.205 169.981C190.571 170.817 193.199 169.716 194.07 167.515L196.392 161.642C197.269 159.426 196.039 156.961 193.651 156.141L184.285 152.927C185.654 147.69 186.28 142.208 186.068 136.613L195.681 134.933C198.201 134.492 199.893 132.232 199.453 129.886L198.282 123.646C197.843 121.3 195.439 119.779 192.924 120.247L183.58 121.985C181.899 116.53 179.439 111.474 176.346 106.907L183.325 101.135C185.259 99.5353 185.514 96.8022 183.89 95.0372L179.586 90.3601C177.973 88.607 175.117 88.4949 173.21 90.1035L166.483 95.7747C162.213 92.0518 157.419 88.9628 152.26 86.5984L155.107 78.8183C155.931 76.5682 154.745 74.1919 152.464 73.5159L146.432 71.7272C144.177 71.0588 141.702 72.3299 140.899 74.5617L138.167 82.1564C132.709 81.158 127.057 80.9122 121.352 81.4987L119.931 73.9321C119.512 71.7003 117.337 70.3224 115.079 70.8539L109.115 72.2577C106.886 72.7817 105.421 74.9962 105.836 77.2043L107.241 84.689C101.953 86.5736 97.0879 89.1504 92.7245 92.275L87.8189 86.662C86.3882 85.0254 83.889 84.9272 82.2383 86.4367L77.8728 90.4302C76.2394 91.9235 76.0604 94.4507 77.4685 96.0798L82.3785 101.76C78.9305 105.787 76.0572 110.254 73.8426 115.029L66.6997 112.578C64.7019 111.892 62.5305 113.008 61.8437 115.065L60.0237 120.52C59.3413 122.565 60.3914 124.786 62.372 125.487L69.6194 128.05C68.6566 132.997 68.3493 138.129 68.7752 143.335L61.0415 144.773C58.9941 145.154 57.6604 147.17 58.0561 149.277L58.0593 149.27ZM85.2766 146.356C81.2604 124.965 95.296 103.941 117.293 99.2539C140.064 94.4033 162.585 108.804 166.86 131.578C171.135 154.352 155.325 175.697 132.29 179.143C110.038 182.471 89.2917 167.748 85.2755 146.356H85.2766Z" fill="#D8D8D8"/>
<path d="M86.553 277.098L87.1093 280.06C87.3185 281.174 88.3643 281.925 89.449 281.735L93.656 280.999C94.5131 283.581 95.7034 285.99 97.1697 288.188L93.8091 291.021C92.9649 291.733 92.8732 293.024 93.6031 293.908L95.5492 296.268C96.2834 297.158 97.5708 297.309 98.4268 296.602L101.911 293.72C103.889 295.536 106.106 297.098 108.502 298.357L106.916 302.767C106.534 303.832 107.107 305.047 108.2 305.484L111.124 306.651C112.23 307.092 113.446 306.583 113.839 305.511L115.482 301.02C118.096 301.674 120.833 302.002 123.638 301.956L124.558 306.859C124.777 308.027 125.927 308.851 127.129 308.699L130.346 308.291C131.563 308.137 132.374 307.054 132.152 305.874L131.221 300.918C133.985 300.194 136.582 299.115 138.968 297.733L142.391 301.693C143.216 302.648 144.683 302.819 145.67 302.072L148.307 300.075C149.304 299.321 149.434 297.927 148.595 296.967L145.154 293.03C147.195 291.026 148.945 288.753 150.352 286.273L155.372 288.049C156.623 288.491 158.013 287.908 158.473 286.745L159.701 283.639C160.165 282.467 159.514 281.163 158.251 280.73L153.298 279.03C154.021 276.26 154.354 273.361 154.24 270.402L159.323 269.514C160.655 269.281 161.55 268.085 161.317 266.844L160.697 263.545C160.465 262.304 159.194 261.5 157.864 261.747L152.923 262.665C152.034 259.781 150.733 257.107 149.097 254.691L152.788 251.639C153.811 250.792 153.945 249.348 153.087 248.414L150.811 245.941C149.958 245.014 148.447 244.954 147.439 245.805L143.882 248.803C141.625 246.835 139.09 245.201 136.362 243.95L137.867 239.836C138.303 238.647 137.675 237.39 136.47 237.032L133.281 236.086C132.088 235.733 130.779 236.405 130.356 237.585L128.911 241.601C126.025 241.073 123.036 240.943 120.019 241.253L119.268 237.252C119.046 236.071 117.896 235.342 116.703 235.624L113.549 236.367C112.371 236.644 111.596 237.815 111.816 238.982L112.558 242.94C109.763 243.936 107.19 245.299 104.883 246.951L102.289 243.983C101.532 243.117 100.211 243.065 99.3379 243.864L97.0295 245.976C96.1659 246.767 96.0711 248.102 96.8161 248.964L99.4123 251.968C97.5891 254.097 96.07 256.46 94.8991 258.984L91.1223 257.688C90.0657 257.326 88.9174 257.916 88.5551 259.004L87.5934 261.888C87.2322 262.969 87.7875 264.145 88.8355 264.514L92.6684 265.87C92.1595 268.486 91.9967 271.2 92.222 273.953L88.1325 274.713C87.05 274.914 86.3449 275.98 86.5541 277.094L86.553 277.098ZM100.944 275.557C98.8204 264.245 106.241 253.127 117.873 250.648C129.913 248.083 141.822 255.699 144.083 267.742C146.344 279.785 137.984 291.074 125.805 292.895C114.039 294.654 103.068 286.868 100.944 275.556V275.557Z" fill="#B4B4B4"/>
<path d="M129.262 236.682L132.155 236.036L133.648 238.458L129.262 236.682Z" fill="#B4B4B4"/>
<path d="M100.62 243.308L97.2688 243.971L97.7335 246.447L100.62 243.308Z" fill="#B4B4B4"/>
<path d="M90.0678 257.655L86.7471 258.418L87.9352 260.135L90.0678 257.655Z" fill="#B4B4B4"/>
<path d="M87.8489 274.805L84.5195 275.708L85.9309 277.141L87.8489 274.805Z" fill="#B4B4B4"/>
<path d="M97.8241 296.941L94.6327 298.025L93.7292 295.423L97.8241 296.941Z" fill="#B4B4B4"/>
<path d="M112.641 306.665L109.797 307.754L109.155 305.623L112.641 306.665Z" fill="#B4B4B4"/>
<path d="M128.346 309.122L130.902 308.157L127.991 305.204L128.346 309.122Z" fill="#B4B4B4"/>
<path d="M142.135 303.588L145.094 302.375L142.178 299.943L142.135 303.588Z" fill="#B4B4B4"/>
<path d="M149.082 245.191L145.889 245.894L147.6 247.999L149.082 245.191Z" fill="#B4B4B4"/>
<path d="M160.205 269.19L157.341 270.178L157.123 267.724L160.205 269.19Z" fill="#B4B4B4"/>
<path d="M157.191 288.013L154.401 289.022L153.808 287.158L157.191 288.013Z" fill="#B4B4B4"/>
<path d="M83.2873 278.003L83.8479 280.991C84.0592 282.114 85.1137 282.87 86.2069 282.679L90.4495 281.937C91.3131 284.54 92.5131 286.969 93.9924 289.184L90.6037 292.04C89.753 292.758 89.6603 294.059 90.3956 294.951L92.3579 297.329C93.0986 298.226 94.3967 298.378 95.2592 297.666L98.773 294.76C100.766 296.591 103.002 298.166 105.418 299.435L103.819 303.88C103.433 304.954 104.012 306.18 105.114 306.62L108.062 307.797C109.177 308.243 110.403 307.728 110.799 306.647L112.456 302.12C115.091 302.78 117.851 303.109 120.679 303.063L121.607 308.005C121.828 309.183 122.988 310.013 124.199 309.86L127.443 309.449C128.669 309.294 129.487 308.203 129.264 307.012L128.326 302.015C131.112 301.286 133.73 300.197 136.137 298.804L139.588 302.797C140.42 303.76 141.9 303.932 142.894 303.18L145.552 301.167C146.558 300.405 146.689 299.001 145.843 298.032L142.373 294.063C144.43 292.043 146.196 289.75 147.615 287.251L152.676 289.04C153.937 289.487 155.339 288.899 155.803 287.726L157.041 284.595C157.508 283.414 156.853 282.099 155.579 281.663L150.585 279.949C151.315 277.157 151.65 274.234 151.536 271.252L156.661 270.356C158.004 270.121 158.907 268.915 158.672 267.665L158.047 264.339C157.812 263.088 156.531 262.276 155.19 262.526L150.208 263.452C149.312 260.544 148.001 257.849 146.351 255.413L150.072 252.336C151.103 251.484 151.239 250.026 150.373 249.086L148.079 246.592C147.218 245.657 145.696 245.598 144.679 246.455L141.092 249.478C138.816 247.493 136.26 245.846 133.509 244.585L135.027 240.438C135.466 239.238 134.834 237.971 133.618 237.611L130.402 236.658C129.2 236.301 127.88 236.979 127.452 238.169L125.996 242.219C123.086 241.687 120.072 241.556 117.031 241.868L116.274 237.834C116.051 236.644 114.89 235.909 113.687 236.193L110.507 236.941C109.319 237.22 108.537 238.401 108.759 239.578L109.508 243.569C106.689 244.574 104.095 245.947 101.769 247.613L99.1536 244.62C98.3913 243.748 97.0587 243.695 96.1778 244.5L93.8501 246.63C92.98 247.426 92.884 248.773 93.6344 249.642L96.2522 252.671C94.4139 254.817 92.8819 257.2 91.7013 259.744L87.8932 258.438C86.828 258.072 85.67 258.667 85.3045 259.764L84.3342 262.672C83.9708 263.762 84.5304 264.947 85.5859 265.32L89.4501 266.686C88.9369 269.324 88.773 272.059 89.0005 274.835L84.8775 275.601C83.7864 275.804 83.0749 276.879 83.2862 278.002L83.2873 278.003ZM97.7983 276.45C95.6571 265.045 103.141 253.836 114.868 251.338C127.008 248.751 139.016 256.43 141.295 268.571C143.574 280.713 135.145 292.093 122.865 293.93C111.002 295.705 99.9406 287.854 97.7994 276.45H97.7983Z" fill="#D8D8D8"/>
<path d="M131.208 192.686C141.648 192.686 150.112 180.791 150.112 166.119C150.112 151.446 141.648 139.551 131.208 139.551C120.767 139.551 112.303 151.446 112.303 166.119C112.303 180.791 120.767 192.686 131.208 192.686Z" fill="#DFE0E2"/>
<path d="M188.986 101.743H224.568C261.051 101.743 290.627 131.32 290.627 167.803C290.627 187.271 274.845 203.053 255.378 203.053H158.178C138.709 203.053 122.928 187.271 122.928 167.804C122.928 131.32 152.504 101.744 188.988 101.744L188.986 101.743Z" fill="white"/>
<path d="M195.234 275.286H218.318C241.987 275.286 261.175 256.098 261.175 232.429C261.175 219.798 250.937 209.56 238.306 209.56H175.245C162.614 209.56 152.376 219.799 152.376 232.429C152.376 256.099 171.564 275.286 195.233 275.286H195.234Z" fill="white"/>
<path d="M156.689 188.804H224.324C233.489 188.804 241.009 181.779 241.009 173.112V159.822C241.009 151.156 233.489 144.37 224.324 144.662L156.689 146.819C148.504 147.08 141.942 153.819 141.942 161.872V174.221C141.942 182.275 148.504 188.803 156.689 188.803V188.804Z" fill="url(#paint5_linear_415_144)"/>
<path d="M202.655 165.762C202.655 171.549 207.582 176.179 213.709 176.101C219.891 176.024 224.945 171.19 224.945 165.308C224.945 159.425 219.892 154.798 213.709 154.971C207.582 155.143 202.655 159.973 202.655 165.761V165.762Z" fill="white"/>
<path d="M156.947 166.691C156.947 172.285 161.548 176.761 167.268 176.689C173.038 176.616 177.753 171.95 177.753 166.268C177.753 160.587 173.038 156.112 167.268 156.274C161.547 156.435 156.947 161.098 156.947 166.691Z" fill="white"/>
<g style="mix-blend-mode:soft-light" opacity="0.3">
<path d="M182.232 193.787C192.291 181.968 187.821 172.516 200.971 156.5C219.065 134.463 240.174 136.956 245.009 122.01C246.349 117.868 246.502 112.183 242.909 104.326C270.468 112.275 290.626 137.683 290.626 167.803C290.626 187.271 274.844 203.053 255.377 203.053H170.668C175.742 200.288 179.45 197.057 182.233 193.788L182.232 193.787Z" fill="white"/>
</g>
<path d="M281.12 192.5C291.561 192.5 300.025 180.606 300.025 165.933C300.025 151.261 291.561 139.366 281.12 139.366C270.679 139.366 262.216 151.261 262.216 165.933C262.216 180.606 270.679 192.5 281.12 192.5Z" fill="#DFE0E2"/>
<path d="M296.075 177.55C300.641 177.55 304.342 172.349 304.342 165.933C304.342 159.517 300.641 154.316 296.075 154.316C291.51 154.316 287.809 159.517 287.809 165.933C287.809 172.349 291.51 177.55 296.075 177.55Z" fill="#B4B4B4"/>
<path d="M189.549 251.693C192.716 236.819 227.748 237.178 228.701 227.457C229.435 219.962 209.322 212.542 206.795 211.61C204.633 210.812 202.487 210.137 200.363 209.56H238.306C250.936 209.56 261.175 219.798 261.175 232.429C261.175 256.099 241.987 275.286 218.318 275.286H195.233C193.016 275.286 190.837 275.118 188.709 274.792C190.718 272.303 192.028 269.58 192.345 266.607C193.047 260.018 188.321 257.456 189.548 251.693H189.549Z" fill="#DFE0E2"/>
<path d="M206.208 215.247C226.343 215.247 242.665 213.271 242.665 210.833C242.665 208.396 226.343 206.419 206.208 206.419C186.073 206.419 169.751 208.396 169.751 210.833C169.751 213.271 186.073 215.247 206.208 215.247Z" fill="#D4CBD0"/>
<path d="M84.5552 207.185C90.7795 204.798 97.5859 206 103.071 209.805C105.075 199.788 111.441 191.309 120.923 187.673C136.458 181.715 154.471 191.015 161.155 208.443C162.876 212.935 163.676 217.527 163.653 221.973C164.454 221.471 165.31 221.04 166.22 220.691C174.708 217.436 184.549 222.516 188.2 232.039C191.852 241.561 188.057 252.266 179.444 255.174C174.843 256.727 167.564 256.756 167.564 256.756C167.564 256.756 96.7644 251.484 94.58 251.502C85.8587 251.574 77.2625 245.609 73.614 236.093C69.0512 224.194 73.9493 211.252 84.5552 207.184V207.185Z" fill="#787878"/>
<path d="M82.4507 207.194C88.675 204.807 95.4814 206.009 100.966 209.814C102.97 199.797 109.337 191.318 118.818 187.682C134.354 181.724 152.367 191.023 159.05 208.452C160.772 212.944 161.572 217.536 161.548 221.982C162.349 221.48 163.205 221.049 164.115 220.7C172.604 217.445 182.444 222.525 186.096 232.048C189.748 241.57 185.828 251.928 177.339 255.183C175.543 255.872 165.46 256.765 165.46 256.765C165.46 256.765 94.6599 251.492 92.4755 251.511C83.7542 251.583 75.158 245.618 71.5095 236.102C66.9467 224.203 71.8448 211.261 82.4507 207.193V207.194Z" fill="url(#paint6_linear_415_144)"/>
<path d="M250.082 222.756C252.791 224.977 253.188 228.974 250.967 231.683L232.667 254.012L222.855 245.97L241.155 223.641C243.376 220.932 247.373 220.535 250.082 222.756Z" fill="white"/>
<path d="M192.72 243.877C193.116 240.396 196.259 237.895 199.74 238.291L228.425 241.554L226.991 254.16L198.306 250.897C194.825 250.501 192.324 247.359 192.72 243.877Z" fill="white"/>
<path d="M234.933 255.524C238.528 251.93 238.528 246.102 234.934 242.508C231.339 238.913 225.511 238.913 221.917 242.508C218.322 246.102 218.322 251.93 221.917 255.524C225.511 259.119 231.339 259.119 234.933 255.524Z" fill="url(#paint7_linear_415_144)"/>
<path d="M198.576 239.466L193.838 251.095C193.134 252.824 190.463 253.338 188.426 252.111C185.44 250.314 182.177 247.246 183.494 242.81C185.161 237.197 190.12 235.581 194.199 235.253C196.968 235.031 199.415 237.403 198.576 239.466Z" fill="url(#paint8_linear_415_144)"/>
</g>
<defs>
<linearGradient id="paint0_linear_415_144" x1="263.68" y1="191.722" x2="132.674" y2="275.474" gradientUnits="userSpaceOnUse">
<stop stop-color="#08B8AD"/>
<stop offset="0.1" stop-color="#04A9B6"/>
<stop offset="0.24" stop-color="#019DBD"/>
<stop offset="0.44" stop-color="#0096C1"/>
<stop offset="1" stop-color="#0095C3"/>
</linearGradient>
<linearGradient id="paint1_linear_415_144" x1="333.979" y1="161.576" x2="240.608" y2="315.289" gradientUnits="userSpaceOnUse">
<stop offset="0.15" stop-color="#EC5B5C"/>
<stop offset="0.83" stop-color="#E9427D"/>
</linearGradient>
<linearGradient id="paint2_linear_415_144" x1="191.241" y1="306.682" x2="191.439" y2="319.57" gradientUnits="userSpaceOnUse">
<stop stop-color="#565656"/>
<stop offset="1" stop-color="#1A1A1A"/>
</linearGradient>
<linearGradient id="paint3_linear_415_144" x1="189.004" y1="332.257" x2="209.585" y2="269.941" gradientUnits="userSpaceOnUse">
<stop stop-color="#4C4C4C"/>
<stop offset="0.99" stop-color="#363636"/>
</linearGradient>
<linearGradient id="paint4_linear_415_144" x1="97.7662" y1="326.294" x2="289.061" y2="326.294" gradientUnits="userSpaceOnUse">
<stop stop-color="#FF9085"/>
<stop offset="1" stop-color="#FB6FBB"/>
</linearGradient>
<linearGradient id="paint5_linear_415_144" x1="241.01" y1="166.729" x2="141.942" y2="166.729" gradientUnits="userSpaceOnUse">
<stop stop-color="#565656"/>
<stop offset="1" stop-color="#1A1A1A"/>
</linearGradient>
<linearGradient id="paint6_linear_415_144" x1="103.936" y1="206.249" x2="154.93" y2="263.823" gradientUnits="userSpaceOnUse">
<stop stop-color="#07B8AC"/>
<stop offset="1" stop-color="#0095C3"/>
</linearGradient>
<linearGradient id="paint7_linear_415_144" x1="220.895" y1="239.504" x2="241.453" y2="265.473" gradientUnits="userSpaceOnUse">
<stop stop-color="#565656"/>
<stop offset="1" stop-color="#1A1A1A"/>
</linearGradient>
<linearGradient id="paint8_linear_415_144" x1="180.673" y1="245.972" x2="208.391" y2="230.32" gradientUnits="userSpaceOnUse">
<stop stop-color="#565656"/>
<stop offset="1" stop-color="#1A1A1A"/>
</linearGradient>
<clipPath id="clip0_415_144">
<rect width="400" height="400" fill="white"/>
</clipPath>
</defs>
</svg>
