<svg width="36" height="36" viewBox="0 0 36 36" fill="none" xmlns="http://www.w3.org/2000/svg">
<path d="M28.1744 1.9585H7.75773C5.82457 1.96081 3.97125 2.72978 2.6043 4.09673C1.23735 5.46369 0.46838 7.317 0.466064 9.25016L0.466064 26.7502C0.46838 28.6833 1.23735 30.5366 2.6043 31.9036C3.97125 33.2705 5.82457 34.0395 7.75773 34.0418H28.1744C30.1076 34.0395 31.9609 33.2705 33.3278 31.9036C34.6948 30.5366 35.4637 28.6833 35.4661 26.7502V9.25016C35.4637 7.317 34.6948 5.46369 33.3278 4.09673C31.9609 2.72978 30.1076 1.96081 28.1744 1.9585ZM7.75773 4.87516H28.1744C29.0476 4.87688 29.9004 5.13987 30.6229 5.63029C31.3454 6.12072 31.9046 6.81613 32.2286 7.62704L21.0606 18.7964C20.2388 19.615 19.126 20.0746 17.9661 20.0746C16.8061 20.0746 15.6934 19.615 14.8715 18.7964L3.70356 7.62704C4.02753 6.81613 4.58675 6.12072 5.30926 5.63029C6.03177 5.13987 6.8845 4.87688 7.75773 4.87516ZM28.1744 31.1252H7.75773C6.59741 31.1252 5.48461 30.6642 4.66414 29.8438C3.84367 29.0233 3.38273 27.9105 3.38273 26.7502V11.4377L12.8094 20.8585C14.1782 22.2239 16.0327 22.9906 17.9661 22.9906C19.8994 22.9906 21.7539 22.2239 23.1227 20.8585L32.5494 11.4377V26.7502C32.5494 27.9105 32.0885 29.0233 31.268 29.8438C30.4475 30.6642 29.3347 31.1252 28.1744 31.1252Z" fill="white"/>
</svg>
