<svg width="34" height="36" viewBox="0 0 34 36" fill="none" xmlns="http://www.w3.org/2000/svg">
<path fill-rule="evenodd" clip-rule="evenodd" d="M16.2715 1.40446C16.2715 0.904941 16.6764 0.5 17.1759 0.5H18.6231C19.1226 0.5 19.5275 0.904941 19.5275 1.40446C19.5275 1.84203 19.2168 2.20703 18.804 2.29083V3.41237C19.2168 3.49617 19.5275 3.86117 19.5275 4.29874C19.5275 4.79826 19.1226 5.2032 18.6231 5.2032H17.1759C16.6764 5.2032 16.2715 4.79826 16.2715 4.29874C16.2715 3.86117 16.5822 3.49617 16.9951 3.41237V2.29083C16.5822 2.20703 16.2715 1.84203 16.2715 1.40446Z" fill="white"/>
<path d="M25.4247 18.1551C25.4247 19.6794 25.0967 21.0397 24.4406 22.236C23.7653 23.4324 22.8488 24.3778 21.6911 25.0724C20.5334 25.7671 19.2213 26.1144 17.7549 26.1144C16.2691 26.1144 14.9571 25.7671 13.8186 25.0724C12.6609 24.3778 11.7541 23.4324 11.098 22.236C10.4227 21.0397 10.085 19.6794 10.085 18.1551C10.085 16.6308 10.4227 15.2705 11.098 14.0742C11.7541 12.8779 12.6609 11.9324 13.8186 11.2378C14.9571 10.5432 16.2691 10.1959 17.7549 10.1959C19.2213 10.1959 20.5334 10.5432 21.6911 11.2378C22.8488 11.9324 23.7653 12.8779 24.4406 14.0742C25.0967 15.2705 25.4247 16.6308 25.4247 18.1551ZM28.0295 18.1551C28.0295 16.6694 27.7787 15.2994 27.277 14.0452C26.7561 12.7718 26.0325 11.6719 25.1063 10.7458C24.1802 9.8003 23.09 9.06709 21.8358 8.54612C20.5816 8.00585 19.2213 7.73572 17.7549 7.73572C16.2691 7.73572 14.9088 8.00585 13.6739 8.54612C12.4197 9.06709 11.3296 9.8003 10.4034 10.7458C9.47722 11.6719 8.7633 12.7718 8.26162 14.0452C7.74065 15.2994 7.48017 16.6694 7.48017 18.1551C7.48017 19.6216 7.74065 20.9915 8.26162 22.265C8.7633 23.5385 9.47722 24.6479 10.4034 25.5934C11.3296 26.5196 12.4197 27.2528 13.6739 27.7931C14.9088 28.314 16.2691 28.5745 17.7549 28.5745C19.2213 28.5745 20.5816 28.314 21.8358 27.7931C23.09 27.2528 24.1802 26.5196 25.1063 25.5934C26.0325 24.6479 26.7561 23.5385 27.277 22.265C27.7787 20.9915 28.0295 19.6216 28.0295 18.1551Z" fill="white"/>
<path fill-rule="evenodd" clip-rule="evenodd" d="M20.8379 31.0269C21.2617 31.4507 21.2617 32.1379 20.8379 32.5618L17.8997 35.5L15.6851 33.2854C15.2612 32.8615 15.2612 32.1743 15.6851 31.7504C16.1089 31.3266 16.7961 31.3266 17.22 31.7504L17.8997 32.4301L19.3029 31.0269C19.7268 30.603 20.414 30.603 20.8379 31.0269Z" fill="white"/>
<path fill-rule="evenodd" clip-rule="evenodd" d="M12.3565 4.35226C12.0864 3.81714 11.4336 3.6023 10.8985 3.87241C7.79884 5.43698 5.29477 8.00737 3.81429 11.156C3.55923 11.6985 3.79221 12.345 4.33467 12.6001C4.87712 12.8551 5.52363 12.6221 5.77869 12.0797C7.05251 9.37054 9.20895 7.15678 11.8766 5.81024C12.4117 5.54014 12.6266 4.88737 12.3565 4.35226ZM4.33467 22.9363C3.79221 23.1914 3.55923 23.8379 3.81429 24.3804C5.29477 27.529 7.79884 30.0994 10.8985 31.664C11.4336 31.9341 12.0864 31.7192 12.3565 31.1841C12.6266 30.649 12.4117 29.9963 11.8766 29.7261C9.20895 28.3796 7.05251 26.1658 5.77869 23.4567C5.52363 22.9143 4.87712 22.6813 4.33467 22.9363Z" fill="white"/>
<path d="M24.0344 31.7157C24.2103 32.011 24.4626 32.2039 24.7912 32.2942C25.1326 32.3773 25.4451 32.3398 25.7286 32.1815C26.0249 32.016 26.215 31.773 26.2987 31.4524C26.3825 31.1319 26.3364 30.824 26.1604 30.5286C25.9921 30.2462 25.7398 30.0533 25.4036 29.9502C25.075 29.8598 24.7626 29.8974 24.4662 30.0629C24.1827 30.2212 23.9927 30.4642 23.896 30.7919C23.8199 31.1253 23.866 31.4332 24.0344 31.7157Z" fill="white"/>
<path d="M29.6026 26.6799C29.8988 26.8456 30.2113 26.8834 30.5399 26.7932C30.8762 26.6903 31.1286 26.4976 31.2971 26.2153C31.4733 25.9201 31.5196 25.6122 31.436 25.2916C31.3525 24.971 31.1625 24.7278 30.8663 24.5622C30.5829 24.4037 30.2705 24.366 29.9289 24.4489C29.6003 24.539 29.3479 24.7317 29.1718 25.0269C29.0033 25.3092 28.957 25.6171 29.0329 25.9506C29.1293 26.2784 29.3192 26.5215 29.6026 26.6799Z" fill="white"/>
<path d="M32.2558 19.2546C32.5932 19.2546 32.8792 19.1342 33.114 18.8934C33.3487 18.6376 33.4661 18.3441 33.4661 18.0131C33.4661 17.667 33.3487 17.3735 33.114 17.1328C32.8792 16.892 32.5932 16.7716 32.2558 16.7716C31.933 16.7716 31.6469 16.892 31.3975 17.1328C31.1628 17.3735 31.0455 17.667 31.0455 18.0131C31.0455 18.3441 31.1628 18.6376 31.3975 18.8934C31.6469 19.1342 31.933 19.2546 32.2558 19.2546Z" fill="white"/>
<path d="M30.9667 11.2529C31.263 11.0872 31.4529 10.8441 31.5364 10.5235C31.6123 10.1901 31.566 9.88218 31.3975 9.59982C31.2214 9.30461 30.969 9.11195 30.6404 9.02183C30.3117 8.93171 29.9993 8.96948 29.703 9.13514C29.4196 9.29359 29.2297 9.53672 29.1333 9.86452C29.0497 10.1851 29.096 10.493 29.2722 10.7882C29.4407 11.0706 29.6931 11.2632 30.0294 11.3662C30.3709 11.4491 30.6833 11.4113 30.9667 11.2529Z" fill="white"/>
<path d="M25.2645 5.93131C25.4405 5.63599 25.4866 5.32805 25.4028 5.0075C25.3062 4.67976 25.1161 4.43675 24.8327 4.27848C24.5363 4.11301 24.2238 4.07544 23.8953 4.16577C23.5667 4.2561 23.3144 4.44892 23.1385 4.74424C22.9701 5.02672 22.924 5.33466 23.0001 5.66805C23.0839 5.9886 23.2739 6.23161 23.5703 6.39708C23.8538 6.55535 24.1663 6.59292 24.5077 6.50979C24.8439 6.40661 25.0962 6.21379 25.2645 5.93131Z" fill="white"/>
<path fill-rule="evenodd" clip-rule="evenodd" d="M0.804531 16.2901C0.624134 16.6648 0.533936 17.1296 0.533936 17.6847C0.533936 18.2398 0.624134 18.7047 0.804531 19.0793C0.984928 19.454 1.23702 19.7385 1.56081 19.9327C1.8846 20.1224 2.25927 20.2172 2.68482 20.2172C3.1335 20.2172 3.51742 20.1224 3.83658 19.9327C4.16037 19.7385 4.40784 19.454 4.57899 19.0793C4.75013 18.7047 4.83571 18.2398 4.83571 17.6847C4.83571 17.1296 4.75013 16.6648 4.57899 16.2901C4.40784 15.9154 4.16037 15.6333 3.83658 15.4436C3.51742 15.2494 3.1335 15.1522 2.68482 15.1522C2.25927 15.1522 1.8846 15.2494 1.56081 15.4436C1.23702 15.6333 0.984928 15.9154 0.804531 16.2901ZM2.2705 18.0614C2.24872 17.949 2.23783 17.8235 2.23783 17.6847C2.23783 17.5459 2.24872 17.422 2.2705 17.313C2.2954 17.2007 2.32808 17.1065 2.36853 17.0305C2.4121 16.9512 2.4619 16.8918 2.51792 16.8521C2.57394 16.8125 2.63618 16.7926 2.70464 16.7926C2.77311 16.7926 2.83535 16.8125 2.89137 16.8521C2.94739 16.8918 2.99563 16.9512 3.03609 17.0305C3.07966 17.1065 3.11233 17.2007 3.13412 17.313C3.15902 17.422 3.17146 17.5459 3.17146 17.6847C3.17146 17.8235 3.15902 17.949 3.13412 18.0614C3.11233 18.1704 3.07966 18.2646 3.03609 18.3439C2.99563 18.4198 2.94739 18.4777 2.89137 18.5173C2.83535 18.557 2.77311 18.5768 2.70464 18.5768C2.63618 18.5768 2.57394 18.557 2.51792 18.5173C2.4619 18.4777 2.4121 18.4198 2.36853 18.3439C2.32808 18.2646 2.2954 18.1704 2.2705 18.0614Z" fill="white"/>
</svg>
