<svg width="370" height="90" viewBox="0 0 370 90" fill="none" xmlns="http://www.w3.org/2000/svg">
<path d="M17.7644 32.3573C17.7644 35.1683 18.3744 37.6768 19.5946 39.8829C20.8507 42.089 22.5553 43.8325 24.7086 45.1134C26.8619 46.3944 29.3022 47.0348 32.0297 47.0348C34.793 47.0348 37.2334 46.3944 39.3507 45.1134C41.504 43.8325 43.1907 42.089 44.4109 39.8829C45.6669 37.6768 46.295 35.1683 46.295 32.3573C46.295 29.5463 45.6669 27.0378 44.4109 24.8317C43.1907 22.6256 41.504 20.8821 39.3507 19.6012C37.2334 18.3202 34.793 17.6798 32.0297 17.6798C29.3022 17.6798 26.8619 18.3202 24.7086 19.6012C22.5553 20.8821 20.8507 22.6256 19.5946 24.8317C18.3744 27.0378 17.7644 29.5463 17.7644 32.3573ZM12.9195 32.3573C12.9195 29.6175 13.3861 27.0912 14.3191 24.7784C15.2881 22.4299 16.6339 20.4018 18.3565 18.6938C20.0791 16.9503 22.1067 15.5982 24.4394 14.6375C26.7721 13.6412 29.3022 13.1431 32.0297 13.1431C34.793 13.1431 37.3231 13.6412 39.6199 14.6375C41.9526 15.5982 43.9802 16.9503 45.7028 18.6938C47.4254 20.4018 48.7533 22.4299 49.6864 24.7784C50.6553 27.0912 51.1398 29.6175 51.1398 32.3573C51.1398 35.0615 50.6553 37.5878 49.6864 39.9362C48.7533 42.2847 47.4254 44.3306 45.7028 46.0741C43.9802 47.7821 41.9526 49.1342 39.6199 50.1305C37.3231 51.0912 34.793 51.5715 32.0297 51.5715C29.3022 51.5715 26.7721 51.0912 24.4394 50.1305C22.1067 49.1342 20.0791 47.7821 18.3565 46.0741C16.6339 44.3306 15.2881 42.2847 14.3191 39.9362C13.3861 37.5878 12.9195 35.0615 12.9195 32.3573Z" fill="#08B8AD"/>
<path d="M57.3325 13.6768H61.9082V38.762C61.9082 41.3239 62.608 43.3877 64.0076 44.9533C65.4072 46.5189 67.4528 47.3017 70.1444 47.3017C72.8359 47.3017 74.8815 46.5189 76.2812 44.9533C77.6808 43.3877 78.3806 41.3239 78.3806 38.762V13.6768H82.9562V38.762C82.9562 40.6123 82.6512 42.3202 82.0411 43.8858C81.4669 45.4514 80.6056 46.8036 79.4572 47.9422C78.3447 49.0808 76.9989 49.9703 75.4199 50.6108C73.8408 51.2513 72.0823 51.5715 70.1444 51.5715C68.2064 51.5715 66.448 51.2513 64.8689 50.6108C63.2898 49.9703 61.9261 49.0808 60.7777 47.9422C59.6652 46.8036 58.8039 45.4514 58.1938 43.8858C57.6196 42.3202 57.3325 40.6123 57.3325 38.762V13.6768Z" fill="#08B8AD"/>
<path d="M87.5306 17.9466V13.6768H111.486V17.9466H101.796V51.0378H97.2203V17.9466H87.5306Z" fill="#08B8AD"/>
<path d="M119.929 31.2898V28.7813H126.012C127.268 28.7813 128.398 28.5678 129.403 28.1408C130.408 27.7139 131.197 27.0912 131.772 26.2728C132.346 25.4544 132.633 24.4581 132.633 23.2839C132.633 21.5048 132.005 20.1349 130.749 19.1742C129.493 18.1779 127.914 17.6798 126.012 17.6798H120.898V47.0348H126.55C128.165 47.0348 129.582 46.7502 130.803 46.1809C132.059 45.6116 133.028 44.7932 133.71 43.7257C134.427 42.6583 134.786 41.3595 134.786 39.8295C134.786 38.6909 134.589 37.6768 134.194 36.7873C133.799 35.8977 133.225 35.1505 132.471 34.5456C131.754 33.9407 130.892 33.4959 129.888 33.2113C128.883 32.891 127.77 32.7309 126.55 32.7309H119.929V30.2224H126.55C128.38 30.2224 130.067 30.4181 131.61 30.8095C133.153 31.2009 134.499 31.8058 135.647 32.6242C136.832 33.407 137.747 34.4211 138.393 35.6664C139.039 36.9118 139.362 38.3884 139.362 40.0964C139.362 42.5515 138.788 44.5975 137.639 46.2342C136.527 47.8354 135.001 49.0452 133.064 49.8636C131.162 50.6464 128.99 51.0378 126.55 51.0378H116.322V13.6768H126.012C128.273 13.6768 130.228 14.0148 131.879 14.6909C133.566 15.3669 134.876 16.3988 135.809 17.7865C136.742 19.1386 137.209 20.8821 137.209 23.017C137.209 24.7606 136.742 26.255 135.809 27.5004C134.876 28.7457 133.566 29.6887 131.879 30.3291C130.228 30.9696 128.273 31.2898 126.012 31.2898H119.929Z" fill="#0095C3"/>
<path d="M146.339 13.6768H150.915V51.0378H146.339V13.6768Z" fill="#0095C3"/>
<path d="M155.766 17.9466V13.6768H179.721V17.9466H170.031V51.0378H165.456V17.9466H155.766Z" fill="#0095C3"/>
<path d="M185.957 39.7228C186.818 41.2172 187.716 42.5337 188.649 43.6723C189.618 44.811 190.694 45.7005 191.879 46.341C193.063 46.9815 194.409 47.3017 195.916 47.3017C197.926 47.3017 199.541 46.7502 200.761 45.6471C201.981 44.5441 202.591 43.1386 202.591 41.4307C202.591 39.7583 202.196 38.424 201.407 37.4277C200.617 36.4314 199.576 35.6308 198.284 35.0259C197.028 34.3855 195.683 33.8162 194.247 33.318C193.314 32.9978 192.273 32.5886 191.125 32.0904C189.977 31.5567 188.882 30.8984 187.841 30.1156C186.8 29.2973 185.939 28.301 185.257 27.1268C184.611 25.9526 184.288 24.5115 184.288 22.8036C184.288 20.9533 184.755 19.2987 185.688 17.8399C186.621 16.381 187.913 15.2424 189.564 14.424C191.215 13.57 193.099 13.1431 195.216 13.1431C197.262 13.1431 199.038 13.5345 200.545 14.3173C202.089 15.0645 203.398 16.043 204.475 17.2528C205.552 18.427 206.395 19.6723 207.005 20.9889L203.075 23.2305C202.609 22.3054 202.017 21.3981 201.299 20.5085C200.581 19.619 199.702 18.8895 198.661 18.3202C197.656 17.7509 196.418 17.4663 194.947 17.4663C192.901 17.4663 191.412 17.9644 190.479 18.9607C189.546 19.9214 189.079 21.0067 189.079 22.2165C189.079 23.2483 189.348 24.209 189.887 25.0986C190.425 25.9526 191.322 26.7709 192.578 27.5537C193.87 28.301 195.611 29.0482 197.8 29.7954C198.805 30.1512 199.864 30.6138 200.976 31.1831C202.089 31.7524 203.111 32.4818 204.044 33.3714C205.013 34.2253 205.803 35.275 206.413 36.5204C207.023 37.7302 207.328 39.189 207.328 40.897C207.328 42.5337 207.005 44.0104 206.359 45.3269C205.749 46.6434 204.888 47.7643 203.775 48.6894C202.699 49.6145 201.461 50.3262 200.061 50.8243C198.697 51.3225 197.262 51.5715 195.754 51.5715C193.709 51.5715 191.807 51.1446 190.048 50.2906C188.326 49.401 186.8 48.2446 185.473 46.8214C184.181 45.3625 183.122 43.8147 182.297 42.1779L185.957 39.7228Z" fill="#0095C3"/>
<path d="M14.2653 80.3929C14.2653 81.7984 14.5704 83.0526 15.1804 84.1557C15.8085 85.2587 16.6608 86.1305 17.7374 86.7709C18.8141 87.4114 20.0342 87.7317 21.398 87.7317C22.7796 87.7317 23.9998 87.4114 25.0585 86.7709C26.1351 86.1305 26.9785 85.2587 27.5886 84.1557C28.2166 83.0526 28.5306 81.7984 28.5306 80.3929C28.5306 78.9874 28.2166 77.7331 27.5886 76.6301C26.9785 75.5271 26.1351 74.6553 25.0585 74.0148C23.9998 73.3744 22.7796 73.0541 21.398 73.0541C20.0342 73.0541 18.8141 73.3744 17.7374 74.0148C16.6608 74.6553 15.8085 75.5271 15.1804 76.6301C14.5704 77.7331 14.2653 78.9874 14.2653 80.3929ZM11.8429 80.3929C11.8429 79.023 12.0762 77.7598 12.5427 76.6034C13.0272 75.4292 13.7001 74.4151 14.5614 73.5612C15.4227 72.6894 16.4365 72.0133 17.6029 71.533C18.7692 71.0348 20.0342 70.7858 21.398 70.7858C22.7796 70.7858 24.0447 71.0348 25.1931 71.533C26.3594 72.0133 27.3733 72.6894 28.2346 73.5612C29.0959 74.4151 29.7598 75.4292 30.2263 76.6034C30.7108 77.7598 30.953 79.023 30.953 80.3929C30.953 81.745 30.7108 83.0082 30.2263 84.1824C29.7598 85.3566 29.0959 86.3795 28.2346 87.2513C27.3733 88.1053 26.3594 88.7813 25.1931 89.2795C24.0447 89.7598 22.7796 90 21.398 90C20.0342 90 18.7692 89.7598 17.6029 89.2795C16.4365 88.7813 15.4227 88.1053 14.5614 87.2513C13.7001 86.3795 13.0272 85.3566 12.5427 84.1824C12.0762 83.0082 11.8429 81.745 11.8429 80.3929Z" fill="#787878"/>
<path d="M36.2026 84.9296C36.2026 85.9081 36.4269 86.6642 36.8755 87.1979C37.3241 87.7317 37.9791 87.9985 38.8404 87.9985C39.4684 87.9985 40.0157 87.874 40.4822 87.6249C40.9667 87.358 41.3346 86.9933 41.5858 86.5308C41.8549 86.0682 41.9895 85.5345 41.9895 84.9296V77.4574H44.1428V89.7331H41.9895V87.8117C41.5768 88.5411 41.0654 89.0927 40.4553 89.4663C39.8452 89.8221 39.1275 90 38.3021 90C37.0101 90 35.9783 89.5641 35.2068 88.6924C34.4352 87.8206 34.0494 86.6553 34.0494 85.1964V77.4574H36.2026V84.9296Z" fill="#787878"/>
<path d="M46.3065 77.4574H52.4972V79.4589H46.3065V77.4574ZM48.3252 73.1875H50.4785V89.7331H48.3252V73.1875Z" fill="#787878"/>
<path d="M55.1681 85.9704C55.4193 86.344 55.7064 86.6909 56.0294 87.0111C56.3524 87.3314 56.7202 87.5893 57.133 87.785C57.5636 87.9629 58.0301 88.0519 58.5326 88.0519C59.1427 88.0519 59.6182 87.9185 59.9591 87.6516C60.318 87.3669 60.4974 86.9844 60.4974 86.5041C60.4974 86.0771 60.3539 85.7213 60.0668 85.4366C59.7976 85.1342 59.4477 84.8851 59.0171 84.6894C58.5864 84.4759 58.1288 84.2802 57.6444 84.1023C57.106 83.8888 56.5588 83.6397 56.0025 83.3551C55.4642 83.0526 55.0066 82.6701 54.6298 82.2076C54.2709 81.7272 54.0915 81.1312 54.0915 80.4196C54.0915 79.6901 54.2799 79.0853 54.6567 78.6049C55.0515 78.1245 55.5539 77.7687 56.164 77.5374C56.792 77.3062 57.438 77.1905 58.1019 77.1905C58.7658 77.1905 59.3849 77.2973 59.9591 77.5107C60.5512 77.7242 61.0716 78.0089 61.5202 78.3647C61.9688 78.7205 62.3187 79.1297 62.5699 79.5923L60.8473 80.6864C60.5064 80.2239 60.0757 79.8414 59.5554 79.5389C59.0529 79.2365 58.4787 79.0853 57.8328 79.0853C57.3842 79.0853 56.9984 79.1831 56.6754 79.3788C56.3524 79.5745 56.1909 79.8769 56.1909 80.2861C56.1909 80.6064 56.3165 80.891 56.5677 81.1401C56.8189 81.3892 57.1419 81.6116 57.5367 81.8073C57.9315 82.003 58.3442 82.1898 58.7748 82.3677C59.4926 82.6523 60.1475 82.9637 60.7397 83.3017C61.3318 83.6219 61.7983 84.0133 62.1393 84.4759C62.4981 84.9385 62.6776 85.5345 62.6776 86.2639C62.6776 87.3314 62.2828 88.2209 61.4933 88.9325C60.7217 89.6442 59.6989 90 58.4249 90C57.5995 90 56.8548 89.8577 56.1909 89.573C55.527 89.2706 54.9618 88.8881 54.4952 88.4255C54.0466 87.9629 53.7057 87.4915 53.4724 87.0111L55.1681 85.9704Z" fill="#787878"/>
<path d="M64.4357 83.5953C64.4357 82.3499 64.7139 81.2468 65.2701 80.2861C65.8443 79.3254 66.6159 78.5693 67.5849 78.0178C68.5538 77.4663 69.6394 77.1905 70.8417 77.1905C72.0618 77.1905 73.1474 77.4663 74.0985 78.0178C75.0674 78.5693 75.83 79.3254 76.3863 80.2861C76.9605 81.2468 77.2476 82.3499 77.2476 83.5953C77.2476 84.8228 76.9605 85.9259 76.3863 86.9044C75.83 87.8651 75.0674 88.6212 74.0985 89.1727C73.1474 89.7242 72.0618 90 70.8417 90C69.6394 90 68.5538 89.7242 67.5849 89.1727C66.6159 88.6212 65.8443 87.8651 65.2701 86.9044C64.7139 85.9259 64.4357 84.8228 64.4357 83.5953ZM66.6159 83.5953C66.6159 84.4492 66.7953 85.2053 67.1542 85.8636C67.531 86.5219 68.0335 87.0467 68.6615 87.4381C69.3075 87.8117 70.0342 87.9985 70.8417 87.9985C71.6491 87.9985 72.3669 87.8117 72.9949 87.4381C73.6409 87.0467 74.1433 86.5219 74.5022 85.8636C74.879 85.2053 75.0674 84.4492 75.0674 83.5953C75.0674 82.7413 74.879 81.9852 74.5022 81.3269C74.1433 80.6509 73.6409 80.126 72.9949 79.7524C72.3669 79.3788 71.6491 79.192 70.8417 79.192C70.0342 79.192 69.3075 79.3788 68.6615 79.7524C68.0335 80.126 67.531 80.6509 67.1542 81.3269C66.7953 81.9852 66.6159 82.7413 66.6159 83.5953Z" fill="#787878"/>
<path d="M82.3588 84.9296C82.3588 85.9081 82.5831 86.6642 83.0317 87.1979C83.4803 87.7317 84.1353 87.9985 84.9966 87.9985C85.6246 87.9985 86.1719 87.874 86.6384 87.6249C87.1229 87.358 87.4908 86.9933 87.742 86.5308C88.0111 86.0682 88.1457 85.5345 88.1457 84.9296V77.4574H90.299V89.7331H88.1457V87.8117C87.733 88.5411 87.2216 89.0927 86.6115 89.4663C86.0014 89.8221 85.2837 90 84.4583 90C83.1663 90 82.1345 89.5641 81.363 88.6924C80.5914 87.8206 80.2056 86.6553 80.2056 85.1964V77.4574H82.3588V84.9296Z" fill="#787878"/>
<path d="M96.5001 77.4574V89.7331H94.3468V77.4574H96.5001ZM100.241 79.8058C99.9543 79.5923 99.6941 79.4411 99.4608 79.3521C99.2275 79.2454 98.9315 79.192 98.5726 79.192C98.0343 79.192 97.6126 79.3254 97.3076 79.5923C97.0025 79.8592 96.7872 80.2239 96.6616 80.6864C96.5539 81.149 96.5001 81.6738 96.5001 82.2609H95.5311C95.5311 81.2824 95.7016 80.4196 96.0425 79.6723C96.4014 78.9073 96.859 78.3024 97.4152 77.8577C97.9715 77.4129 98.5367 77.1905 99.1109 77.1905C99.5595 77.1905 99.9722 77.2528 100.349 77.3773C100.744 77.4841 101.103 77.7064 101.426 78.0445L100.241 79.8058Z" fill="#787878"/>
<path d="M104.148 83.5953C104.148 84.4492 104.327 85.2053 104.686 85.8636C105.063 86.5219 105.565 87.0467 106.193 87.4381C106.839 87.8117 107.566 87.9985 108.373 87.9985C109.037 87.9985 109.656 87.9007 110.23 87.705C110.823 87.4915 111.334 87.2157 111.765 86.8777C112.195 86.5219 112.5 86.1483 112.68 85.7569V88.4255C112.249 88.9236 111.63 89.315 110.823 89.5997C110.033 89.8666 109.217 90 108.373 90C107.171 90 106.085 89.7242 105.116 89.1727C104.148 88.6212 103.376 87.8651 102.802 86.9044C102.245 85.9259 101.967 84.8228 101.967 83.5953C101.967 82.3499 102.245 81.2468 102.802 80.2861C103.376 79.3254 104.148 78.5693 105.116 78.0178C106.085 77.4663 107.171 77.1905 108.373 77.1905C109.217 77.1905 110.033 77.3328 110.823 77.6175C111.63 77.8844 112.249 78.2669 112.68 78.765V81.4337C112.5 81.0245 112.195 80.6508 111.765 80.3128C111.334 79.9748 110.823 79.7079 110.23 79.5122C109.656 79.2987 109.037 79.192 108.373 79.192C107.566 79.192 106.839 79.3788 106.193 79.7524C105.565 80.126 105.063 80.6509 104.686 81.3269C104.327 81.9852 104.148 82.7413 104.148 83.5953Z" fill="#787878"/>
<path d="M120.823 90C119.674 90 118.652 89.7331 117.754 89.1994C116.875 88.6479 116.184 87.8918 115.682 86.9311C115.197 85.9704 114.955 84.8584 114.955 83.5953C114.955 82.3143 115.206 81.1935 115.709 80.2328C116.229 79.2721 116.947 78.5248 117.862 77.9911C118.795 77.4574 119.872 77.1905 121.092 77.1905C122.312 77.1905 123.353 77.4485 124.214 77.9644C125.093 78.4626 125.766 79.1831 126.233 80.126C126.699 81.0689 126.933 82.1898 126.933 83.4885C126.933 83.613 126.924 83.7465 126.906 83.8888C126.906 84.0133 126.906 84.0934 126.906 84.129H116.328V82.3143H125.21L124.349 83.5419C124.403 83.4529 124.456 83.3195 124.51 83.1416C124.564 82.9459 124.591 82.7858 124.591 82.6612C124.591 81.9318 124.438 81.3002 124.133 80.7665C123.846 80.2328 123.443 79.8147 122.922 79.5122C122.402 79.2098 121.792 79.0586 121.092 79.0586C120.267 79.0586 119.558 79.2365 118.966 79.5923C118.391 79.9303 117.943 80.4285 117.62 81.0867C117.315 81.7272 117.153 82.5189 117.135 83.4618C117.135 84.4225 117.288 85.2409 117.593 85.917C117.898 86.593 118.347 87.109 118.939 87.4648C119.531 87.8206 120.249 87.9985 121.092 87.9985C121.935 87.9985 122.68 87.8206 123.326 87.4648C123.972 87.0912 124.519 86.5308 124.968 85.7835L126.717 86.8777C126.071 87.9096 125.255 88.6924 124.268 89.2261C123.299 89.742 122.151 90 120.823 90Z" fill="#787878"/>
<path d="M139.891 79.8592V78.6049H142.933C143.561 78.6049 144.126 78.4981 144.628 78.2847C145.131 78.0712 145.526 77.7598 145.813 77.3506C146.1 76.9414 146.243 76.4433 146.243 75.8562C146.243 74.9666 145.929 74.2817 145.301 73.8013C144.673 73.3032 143.884 73.0541 142.933 73.0541H140.376V87.7317H143.202C144.009 87.7317 144.718 87.5893 145.328 87.3047C145.956 87.02 146.441 86.6108 146.782 86.0771C147.141 85.5434 147.32 84.894 147.32 84.129C147.32 83.5597 147.221 83.0526 147.024 82.6079C146.827 82.1631 146.539 81.7895 146.163 81.487C145.804 81.1846 145.373 80.9622 144.871 80.8199C144.368 80.6598 143.812 80.5797 143.202 80.5797H139.891V79.3254H143.202C144.117 79.3254 144.96 79.4233 145.732 79.619C146.504 79.8147 147.176 80.1171 147.751 80.5263C148.343 80.9177 148.8 81.4248 149.123 82.0474C149.446 82.6701 149.608 83.4085 149.608 84.2624C149.608 85.49 149.321 86.513 148.747 87.3314C148.19 88.132 147.428 88.7368 146.459 89.146C145.508 89.5374 144.422 89.7331 143.202 89.7331H138.088V71.0526H142.933C144.063 71.0526 145.041 71.2216 145.867 71.5597C146.71 71.8977 147.365 72.4136 147.831 73.1075C148.298 73.7835 148.531 74.6553 148.531 75.7228C148.531 76.5945 148.298 77.3417 147.831 77.9644C147.365 78.5871 146.71 79.0586 145.867 79.3788C145.041 79.699 144.063 79.8592 142.933 79.8592H139.891Z" fill="#787878"/>
<path d="M155.115 84.9296C155.115 85.9081 155.34 86.6642 155.788 87.1979C156.237 87.7317 156.892 87.9985 157.753 87.9985C158.381 87.9985 158.928 87.874 159.395 87.6249C159.879 87.358 160.247 86.9933 160.498 86.5308C160.768 86.0682 160.902 85.5345 160.902 84.9296V77.4574H163.055V89.7331H160.902V87.8117C160.489 88.5411 159.978 89.0927 159.368 89.4663C158.758 89.8221 158.04 90 157.215 90C155.923 90 154.891 89.5641 154.119 88.6924C153.348 87.8206 152.962 86.6553 152.962 85.1964V77.4574H155.115V84.9296Z" fill="#787878"/>
<path d="M167.615 85.9704C167.866 86.344 168.153 86.6909 168.476 87.0111C168.799 87.3314 169.167 87.5893 169.58 87.785C170.01 87.9629 170.477 88.0519 170.979 88.0519C171.589 88.0519 172.065 87.9185 172.406 87.6516C172.765 87.3669 172.944 86.9844 172.944 86.5041C172.944 86.0771 172.8 85.7213 172.513 85.4366C172.244 85.1342 171.894 84.8851 171.464 84.6894C171.033 84.4759 170.575 84.2802 170.091 84.1023C169.553 83.8888 169.005 83.6397 168.449 83.3551C167.911 83.0526 167.453 82.6701 167.076 82.2076C166.717 81.7272 166.538 81.1312 166.538 80.4196C166.538 79.6901 166.726 79.0853 167.103 78.6049C167.498 78.1245 168 77.7687 168.611 77.5374C169.239 77.3062 169.885 77.1905 170.548 77.1905C171.212 77.1905 171.831 77.2973 172.406 77.5107C172.998 77.7242 173.518 78.0089 173.967 78.3647C174.415 78.7205 174.765 79.1297 175.017 79.5923L173.294 80.6864C172.953 80.2239 172.522 79.8414 172.002 79.5389C171.5 79.2365 170.925 79.0853 170.279 79.0853C169.831 79.0853 169.445 79.1831 169.122 79.3788C168.799 79.5745 168.637 79.8769 168.637 80.2861C168.637 80.6064 168.763 80.891 169.014 81.1401C169.266 81.3892 169.589 81.6116 169.983 81.8073C170.378 82.003 170.791 82.1898 171.221 82.3677C171.939 82.6523 172.594 82.9637 173.186 83.3017C173.778 83.6219 174.245 84.0133 174.586 84.4759C174.945 84.9385 175.124 85.5345 175.124 86.2639C175.124 87.3314 174.729 88.2209 173.94 88.9325C173.168 89.6442 172.145 90 170.871 90C170.046 90 169.301 89.8577 168.637 89.573C167.974 89.2706 167.408 88.8881 166.942 88.4255C166.493 87.9629 166.152 87.4915 165.919 87.0111L167.615 85.9704Z" fill="#787878"/>
<path d="M177.959 72.387C177.959 71.9778 178.102 71.6308 178.39 71.3462C178.695 71.0615 179.045 70.9192 179.439 70.9192C179.852 70.9192 180.202 71.0615 180.489 71.3462C180.776 71.6308 180.92 71.9778 180.92 72.387C180.92 72.7784 180.776 73.1253 180.489 73.4277C180.202 73.7124 179.852 73.8547 179.439 73.8547C179.045 73.8547 178.695 73.7124 178.39 73.4277C178.102 73.1253 177.959 72.7784 177.959 72.387ZM178.363 77.4574H180.516V89.7331H178.363V77.4574Z" fill="#787878"/>
<path d="M192.891 82.2609C192.891 81.2468 192.667 80.4818 192.218 79.9659C191.769 79.45 191.114 79.192 190.253 79.192C189.625 79.192 189.069 79.3254 188.584 79.5923C188.118 79.8414 187.75 80.1972 187.481 80.6598C187.23 81.1223 187.104 81.656 187.104 82.2609V89.7331H184.951V77.4574H187.104V79.3788C187.517 78.6316 188.028 78.0801 188.638 77.7242C189.266 77.3684 189.984 77.1905 190.791 77.1905C192.101 77.1905 193.133 77.6264 193.887 78.4981C194.658 79.3521 195.044 80.5174 195.044 81.9941V89.7331H192.891V82.2609Z" fill="#787878"/>
<path d="M203.883 90C202.735 90 201.712 89.7331 200.815 89.1994C199.935 88.6479 199.244 87.8918 198.742 86.9311C198.258 85.9704 198.015 84.8584 198.015 83.5953C198.015 82.3143 198.267 81.1935 198.769 80.2328C199.289 79.2721 200.007 78.5248 200.922 77.9911C201.855 77.4574 202.932 77.1905 204.152 77.1905C205.372 77.1905 206.413 77.4485 207.274 77.9644C208.154 78.4626 208.826 79.1831 209.293 80.126C209.76 81.0689 209.993 82.1898 209.993 83.4885C209.993 83.613 209.984 83.7465 209.966 83.8888C209.966 84.0133 209.966 84.0934 209.966 84.129H199.388V82.3143H208.27L207.409 83.5419C207.463 83.4529 207.517 83.3195 207.57 83.1416C207.624 82.9459 207.651 82.7858 207.651 82.6612C207.651 81.9318 207.499 81.3002 207.194 80.7665C206.906 80.2328 206.503 79.8147 205.982 79.5122C205.462 79.2098 204.852 79.0586 204.152 79.0586C203.327 79.0586 202.618 79.2365 202.026 79.5923C201.452 79.9303 201.003 80.4285 200.68 81.0867C200.375 81.7272 200.213 82.5189 200.195 83.4618C200.195 84.4225 200.348 85.2409 200.653 85.917C200.958 86.593 201.407 87.109 201.999 87.4648C202.591 87.8206 203.309 87.9985 204.152 87.9985C204.995 87.9985 205.74 87.8206 206.386 87.4648C207.032 87.0912 207.579 86.5308 208.028 85.7835L209.777 86.8777C209.132 87.9096 208.315 88.6924 207.328 89.2261C206.359 89.742 205.211 90 203.883 90Z" fill="#787878"/>
<path d="M213.455 85.9704C213.707 86.344 213.994 86.6909 214.317 87.0111C214.64 87.3314 215.008 87.5893 215.42 87.785C215.851 87.9629 216.318 88.0519 216.82 88.0519C217.43 88.0519 217.906 87.9185 218.246 87.6516C218.605 87.3669 218.785 86.9844 218.785 86.5041C218.785 86.0771 218.641 85.7213 218.354 85.4366C218.085 85.1342 217.735 84.8851 217.304 84.6894C216.874 84.4759 216.416 84.2802 215.932 84.1023C215.393 83.8888 214.846 83.6397 214.29 83.3551C213.752 83.0526 213.294 82.6701 212.917 82.2076C212.558 81.7272 212.379 81.1312 212.379 80.4196C212.379 79.6901 212.567 79.0853 212.944 78.6049C213.339 78.1245 213.841 77.7687 214.451 77.5374C215.079 77.3062 215.725 77.1905 216.389 77.1905C217.053 77.1905 217.672 77.2973 218.246 77.5107C218.839 77.7242 219.359 78.0089 219.808 78.3647C220.256 78.7205 220.606 79.1297 220.857 79.5923L219.135 80.6864C218.794 80.2239 218.363 79.8414 217.843 79.5389C217.34 79.2365 216.766 79.0853 216.12 79.0853C215.672 79.0853 215.286 79.1831 214.963 79.3788C214.64 79.5745 214.478 79.8769 214.478 80.2861C214.478 80.6064 214.604 80.891 214.855 81.1401C215.106 81.3892 215.429 81.6116 215.824 81.8073C216.219 82.003 216.632 82.1898 217.062 82.3677C217.78 82.6523 218.435 82.9637 219.027 83.3017C219.619 83.6219 220.086 84.0133 220.427 84.4759C220.785 84.9385 220.965 85.5345 220.965 86.2639C220.965 87.3314 220.57 88.2209 219.781 88.9325C219.009 89.6442 217.986 90 216.712 90C215.887 90 215.142 89.8577 214.478 89.573C213.814 89.2706 213.249 88.8881 212.783 88.4255C212.334 87.9629 211.993 87.4915 211.76 87.0111L213.455 85.9704Z" fill="#787878"/>
<path d="M224.311 85.9704C224.562 86.344 224.849 86.6909 225.172 87.0111C225.495 87.3314 225.863 87.5893 226.276 87.785C226.707 87.9629 227.173 88.0519 227.676 88.0519C228.286 88.0519 228.761 87.9185 229.102 87.6516C229.461 87.3669 229.64 86.9844 229.64 86.5041C229.64 86.0771 229.497 85.7213 229.21 85.4366C228.941 85.1342 228.591 84.8851 228.16 84.6894C227.729 84.4759 227.272 84.2802 226.787 84.1023C226.249 83.8888 225.702 83.6397 225.145 83.3551C224.607 83.0526 224.15 82.6701 223.773 82.2076C223.414 81.7272 223.234 81.1312 223.234 80.4196C223.234 79.6901 223.423 79.0853 223.8 78.6049C224.194 78.1245 224.697 77.7687 225.307 77.5374C225.935 77.3062 226.581 77.1905 227.245 77.1905C227.909 77.1905 228.528 77.2973 229.102 77.5107C229.694 77.7242 230.215 78.0089 230.663 78.3647C231.112 78.7205 231.462 79.1297 231.713 79.5923L229.99 80.6864C229.649 80.2239 229.219 79.8414 228.698 79.5389C228.196 79.2365 227.622 79.0853 226.976 79.0853C226.527 79.0853 226.141 79.1831 225.818 79.3788C225.495 79.5745 225.334 79.8769 225.334 80.2861C225.334 80.6064 225.46 80.891 225.711 81.1401C225.962 81.3892 226.285 81.6116 226.68 81.8073C227.074 82.003 227.487 82.1898 227.918 82.3677C228.636 82.6523 229.291 82.9637 229.883 83.3017C230.475 83.6219 230.941 84.0133 231.282 84.4759C231.641 84.9385 231.821 85.5345 231.821 86.2639C231.821 87.3314 231.426 88.2209 230.636 88.9325C229.865 89.6442 228.842 90 227.568 90C226.742 90 225.998 89.8577 225.334 89.573C224.67 89.2706 224.105 88.8881 223.638 88.4255C223.19 87.9629 222.849 87.4915 222.615 87.0111L224.311 85.9704Z" fill="#787878"/>
<path d="M242.859 71.0526H245.147V89.7331H242.859V71.0526Z" fill="#787878"/>
<path d="M247.573 73.1875V71.0526H259.55V73.1875H254.705V89.7331H252.418V73.1875H247.573Z" fill="#787878"/>
<path d="M270.738 84.0756C271.168 84.8228 271.617 85.4811 272.083 86.0504C272.568 86.6197 273.106 87.0645 273.698 87.3847C274.291 87.705 274.963 87.8651 275.717 87.8651C276.722 87.8651 277.529 87.5893 278.14 87.0378C278.75 86.4863 279.055 85.7835 279.055 84.9296C279.055 84.0934 278.857 83.4262 278.463 82.9281C278.068 82.4299 277.547 82.0297 276.901 81.7272C276.273 81.407 275.6 81.1223 274.883 80.8732C274.416 80.7131 273.896 80.5085 273.322 80.2595C272.747 79.9926 272.2 79.6635 271.68 79.2721C271.159 78.8629 270.729 78.3647 270.388 77.7776C270.065 77.1905 269.903 76.47 269.903 75.616C269.903 74.6909 270.137 73.8636 270.603 73.1342C271.07 72.4047 271.716 71.8354 272.541 71.4262C273.366 70.9993 274.309 70.7858 275.367 70.7858C276.39 70.7858 277.278 70.9815 278.032 71.3729C278.803 71.7465 279.458 72.2357 279.997 72.8406C280.535 73.4277 280.957 74.0504 281.262 74.7087L279.297 75.8295C279.064 75.3669 278.768 74.9133 278.409 74.4685C278.05 74.0237 277.61 73.659 277.09 73.3744C276.587 73.0897 275.968 72.9474 275.233 72.9474C274.21 72.9474 273.465 73.1964 272.999 73.6946C272.532 74.1749 272.299 74.7176 272.299 75.3225C272.299 75.8384 272.433 76.3188 272.703 76.7635C272.972 77.1905 273.42 77.5997 274.048 77.9911C274.694 78.3647 275.565 78.7383 276.659 79.1119C277.162 79.2898 277.691 79.5211 278.247 79.8058C278.803 80.0904 279.315 80.4552 279.781 80.8999C280.266 81.3269 280.661 81.8517 280.966 82.4744C281.271 83.0793 281.423 83.8087 281.423 84.6627C281.423 85.4811 281.262 86.2194 280.939 86.8777C280.634 87.536 280.203 88.0964 279.647 88.5589C279.108 89.0215 278.489 89.3773 277.79 89.6264C277.108 89.8755 276.39 90 275.636 90C274.614 90 273.663 89.7865 272.783 89.3595C271.922 88.9148 271.159 88.3365 270.495 87.6249C269.849 86.8955 269.32 86.1216 268.907 85.3032L270.738 84.0756Z" fill="#787878"/>
<path d="M283.573 83.5953C283.573 82.3499 283.851 81.2468 284.407 80.2861C284.981 79.3254 285.753 78.5693 286.722 78.0178C287.691 77.4663 288.776 77.1905 289.978 77.1905C291.199 77.1905 292.284 77.4663 293.235 78.0178C294.204 78.5693 294.967 79.3254 295.523 80.2861C296.097 81.2468 296.384 82.3499 296.384 83.5953C296.384 84.8228 296.097 85.9259 295.523 86.9044C294.967 87.8651 294.204 88.6212 293.235 89.1727C292.284 89.7242 291.199 90 289.978 90C288.776 90 287.691 89.7242 286.722 89.1727C285.753 88.6212 284.981 87.8651 284.407 86.9044C283.851 85.9259 283.573 84.8228 283.573 83.5953ZM285.753 83.5953C285.753 84.4492 285.932 85.2053 286.291 85.8636C286.668 86.5219 287.17 87.0467 287.798 87.4381C288.444 87.8117 289.171 87.9985 289.978 87.9985C290.786 87.9985 291.504 87.8117 292.132 87.4381C292.778 87.0467 293.28 86.5219 293.639 85.8636C294.016 85.2053 294.204 84.4492 294.204 83.5953C294.204 82.7413 294.016 81.9852 293.639 81.3269C293.28 80.6509 292.778 80.126 292.132 79.7524C291.504 79.3788 290.786 79.192 289.978 79.192C289.171 79.192 288.444 79.3788 287.798 79.7524C287.17 80.126 286.668 80.6509 286.291 81.3269C285.932 81.9852 285.753 82.7413 285.753 83.5953Z" fill="#787878"/>
<path d="M299.342 68.9177H301.496V89.7331H299.342V68.9177Z" fill="#787878"/>
<path d="M307.699 84.9296C307.699 85.9081 307.923 86.6642 308.372 87.1979C308.82 87.7317 309.475 87.9985 310.337 87.9985C310.965 87.9985 311.512 87.874 311.978 87.6249C312.463 87.358 312.831 86.9933 313.082 86.5308C313.351 86.0682 313.486 85.5345 313.486 84.9296V77.4574H315.639V89.7331H313.486V87.8117C313.073 88.5411 312.562 89.0927 311.952 89.4663C311.341 89.8221 310.624 90 309.798 90C308.506 90 307.475 89.5641 306.703 88.6924C305.931 87.8206 305.546 86.6553 305.546 85.1964V77.4574H307.699V84.9296Z" fill="#787878"/>
<path d="M317.803 77.4574H323.993V79.4589H317.803V77.4574ZM319.821 73.1875H321.975V89.7331H319.821V73.1875Z" fill="#787878"/>
<path d="M326.153 72.387C326.153 71.9778 326.296 71.6308 326.584 71.3462C326.889 71.0615 327.238 70.9192 327.633 70.9192C328.046 70.9192 328.396 71.0615 328.683 71.3462C328.97 71.6308 329.114 71.9778 329.114 72.387C329.114 72.7784 328.97 73.1253 328.683 73.4277C328.396 73.7124 328.046 73.8547 327.633 73.8547C327.238 73.8547 326.889 73.7124 326.584 73.4277C326.296 73.1253 326.153 72.7784 326.153 72.387ZM326.557 77.4574H328.71V89.7331H326.557V77.4574Z" fill="#787878"/>
<path d="M332.068 83.5953C332.068 82.3499 332.346 81.2468 332.902 80.2861C333.477 79.3254 334.248 78.5693 335.217 78.0178C336.186 77.4663 337.272 77.1905 338.474 77.1905C339.694 77.1905 340.78 77.4663 341.731 78.0178C342.7 78.5693 343.462 79.3254 344.019 80.2861C344.593 81.2468 344.88 82.3499 344.88 83.5953C344.88 84.8228 344.593 85.9259 344.019 86.9044C343.462 87.8651 342.7 88.6212 341.731 89.1727C340.78 89.7242 339.694 90 338.474 90C337.272 90 336.186 89.7242 335.217 89.1727C334.248 88.6212 333.477 87.8651 332.902 86.9044C332.346 85.9259 332.068 84.8228 332.068 83.5953ZM334.248 83.5953C334.248 84.4492 334.428 85.2053 334.787 85.8636C335.163 86.5219 335.666 87.0467 336.294 87.4381C336.94 87.8117 337.667 87.9985 338.474 87.9985C339.281 87.9985 339.999 87.8117 340.627 87.4381C341.273 87.0467 341.776 86.5219 342.134 85.8636C342.511 85.2053 342.7 84.4492 342.7 83.5953C342.7 82.7413 342.511 81.9852 342.134 81.3269C341.776 80.6509 341.273 80.126 340.627 79.7524C339.999 79.3788 339.281 79.192 338.474 79.192C337.667 79.192 336.94 79.3788 336.294 79.7524C335.666 80.126 335.163 80.6509 334.787 81.3269C334.428 81.9852 334.248 82.7413 334.248 83.5953Z" fill="#787878"/>
<path d="M355.778 82.2609C355.778 81.2468 355.554 80.4818 355.105 79.9659C354.657 79.45 354.002 79.192 353.14 79.192C352.512 79.192 351.956 79.3254 351.472 79.5923C351.005 79.8414 350.637 80.1972 350.368 80.6598C350.117 81.1223 349.991 81.656 349.991 82.2609V89.7331H347.838V77.4574H349.991V79.3788C350.404 78.6316 350.915 78.0801 351.525 77.7242C352.153 77.3684 352.871 77.1905 353.679 77.1905C354.988 77.1905 356.02 77.6264 356.774 78.4981C357.546 79.3521 357.931 80.5174 357.931 81.9941V89.7331H355.778V82.2609Z" fill="#787878"/>
<path d="M362.491 85.9704C362.742 86.344 363.029 86.6909 363.352 87.0111C363.675 87.3314 364.043 87.5893 364.455 87.785C364.886 87.9629 365.353 88.0519 365.855 88.0519C366.465 88.0519 366.941 87.9185 367.282 87.6516C367.64 87.3669 367.82 86.9844 367.82 86.5041C367.82 86.0771 367.676 85.7213 367.389 85.4366C367.12 85.1342 366.77 84.8851 366.339 84.6894C365.909 84.4759 365.451 84.2802 364.967 84.1023C364.428 83.8888 363.881 83.6397 363.325 83.3551C362.787 83.0526 362.329 82.6701 361.952 82.2076C361.593 81.7272 361.414 81.1312 361.414 80.4196C361.414 79.6901 361.602 79.0853 361.979 78.6049C362.374 78.1245 362.876 77.7687 363.486 77.5374C364.114 77.3062 364.76 77.1905 365.424 77.1905C366.088 77.1905 366.707 77.2973 367.282 77.5107C367.874 77.7242 368.394 78.0089 368.843 78.3647C369.291 78.7205 369.641 79.1297 369.892 79.5923L368.17 80.6864C367.829 80.2239 367.398 79.8414 366.878 79.5389C366.375 79.2365 365.801 79.0853 365.155 79.0853C364.707 79.0853 364.321 79.1831 363.998 79.3788C363.675 79.5745 363.513 79.8769 363.513 80.2861C363.513 80.6064 363.639 80.891 363.89 81.1401C364.141 81.3892 364.464 81.6116 364.859 81.8073C365.254 82.003 365.667 82.1898 366.097 82.3677C366.815 82.6523 367.47 82.9637 368.062 83.3017C368.654 83.6219 369.121 84.0133 369.462 84.4759C369.821 84.9385 370 85.5345 370 86.2639C370 87.3314 369.605 88.2209 368.816 88.9325C368.044 89.6442 367.021 90 365.747 90C364.922 90 364.177 89.8577 363.513 89.573C362.849 89.2706 362.284 88.8881 361.818 88.4255C361.369 87.9629 361.028 87.4915 360.795 87.0111L362.491 85.9704Z" fill="#787878"/>
<path fill-rule="evenodd" clip-rule="evenodd" d="M27.925 1.6679C27.925 0.746745 28.6782 0 29.6073 0H32.2988C33.2279 0 33.9811 0.746745 33.9811 1.6679C33.9811 2.47482 33.4031 3.1479 32.6353 3.30244V5.37065C33.4031 5.52519 33.9811 6.19827 33.9811 7.00519C33.9811 7.92635 33.2279 8.67309 32.2988 8.67309H29.6073C28.6782 8.67309 27.925 7.92635 27.925 7.00519C27.925 6.19827 28.503 5.52519 29.2708 5.37065V3.30244C28.503 3.1479 27.925 2.47482 27.925 1.6679Z" fill="#0095C3"/>
<path fill-rule="evenodd" clip-rule="evenodd" d="M36.4178 54.9598C37.2062 55.7415 37.2062 57.0087 36.4178 57.7904L30.953 63.2086L26.834 59.1247C26.0457 58.3431 26.0457 57.0758 26.834 56.2942C27.6224 55.5125 28.9005 55.5125 29.6889 56.2942L30.953 57.5475L33.563 54.9598C34.3513 54.1782 35.6295 54.1782 36.4178 54.9598Z" fill="#0095C3"/>
<path fill-rule="evenodd" clip-rule="evenodd" d="M20.7899 7.43762C20.2875 6.45082 19.0735 6.05465 18.0782 6.55274C12.3131 9.43795 7.65569 14.178 4.90211 19.9844C4.42772 20.9847 4.86105 22.1769 5.86997 22.6472C6.87889 23.1176 8.08135 22.688 8.55574 21.6876C10.9249 16.6918 14.9358 12.6094 19.8974 10.1263C20.8927 9.62818 21.2923 8.42443 20.7899 7.43762ZM5.86997 41.7082C4.86105 42.1786 4.42772 43.3708 4.90211 44.3711C7.65569 50.1775 12.3131 54.9175 18.0782 57.8027C19.0735 58.3008 20.2875 57.9046 20.7899 56.9178C21.2923 55.931 20.8927 54.7273 19.8974 54.2292C14.9358 51.7461 10.9249 47.6637 8.55574 42.6678C8.08135 41.6675 6.87889 41.2379 5.86997 41.7082Z" fill="#0095C3"/>
<path d="M42.3004 57.0572C42.6276 57.6017 43.0969 57.9573 43.708 58.1239C44.3431 58.2772 44.9242 58.2079 45.4515 57.916C46.0027 57.6109 46.3562 57.1628 46.512 56.5717C46.6677 55.9807 46.582 55.4128 46.2547 54.8683C45.9416 54.3474 45.4724 53.9918 44.8471 53.8016C44.2359 53.635 43.6548 53.7043 43.1036 54.0094C42.5763 54.3013 42.2228 54.7494 42.0431 55.3537C41.9016 55.9685 41.9873 56.5363 42.3004 57.0572Z" fill="#0095C3"/>
<path d="M45.997 9.01489C46.3243 8.47034 46.41 7.9024 46.2542 7.31132C46.0745 6.70698 45.721 6.25879 45.1938 5.96694C44.6426 5.66182 44.0614 5.59253 43.4503 5.75909C42.8391 5.92566 42.3699 6.28129 42.0427 6.82585C41.7296 7.34673 41.6439 7.91467 41.7854 8.52942C41.9412 9.1205 42.2947 9.56869 42.8459 9.87381C43.3731 10.1657 43.9543 10.235 44.5894 10.0817C45.2147 9.89141 45.6839 9.53578 45.997 9.01489Z" fill="#0095C3"/>
<path fill-rule="evenodd" clip-rule="evenodd" d="M0.503286 29.1184C0.167762 29.8093 0 30.6666 0 31.6901C0 32.7137 0.167762 33.571 0.503286 34.2619C0.838811 34.9528 1.30768 35.4774 1.90991 35.8357C2.51213 36.1854 3.20899 36.3603 4.00048 36.3603C4.83499 36.3603 5.54906 36.1854 6.14268 35.8357C6.7449 35.4774 7.20517 34.9528 7.52349 34.2619C7.8418 33.571 8.00096 32.7137 8.00096 31.6901C8.00096 30.6666 7.8418 29.8093 7.52349 29.1184C7.20517 28.4275 6.7449 27.9071 6.14268 27.5574C5.54906 27.1991 4.83499 27.02 4.00048 27.02C3.20899 27.02 2.51213 27.1991 1.90991 27.5574C1.30768 27.9071 0.838811 28.4275 0.503286 29.1184ZM3.22988 32.3847C3.18936 32.1776 3.1691 31.946 3.1691 31.6901C3.1691 31.4342 3.18936 31.2058 3.22988 31.0047C3.27619 30.7975 3.33697 30.6239 3.41221 30.4838C3.49325 30.3375 3.58586 30.2279 3.69005 30.1548C3.79424 30.0816 3.91001 30.0451 4.03735 30.0451C4.1647 30.0451 4.28046 30.0816 4.38465 30.1548C4.48884 30.2279 4.57856 30.3375 4.65381 30.4838C4.73485 30.6239 4.79562 30.7975 4.83614 31.0047C4.88245 31.2058 4.9056 31.4342 4.9056 31.6901C4.9056 31.946 4.88245 32.1776 4.83614 32.3847C4.79562 32.5858 4.73485 32.7594 4.65381 32.9057C4.57856 33.0458 4.48884 33.1524 4.38465 33.2255C4.28046 33.2986 4.1647 33.3352 4.03735 33.3352C3.91001 33.3352 3.79424 33.2986 3.69005 33.2255C3.58586 33.1524 3.49325 33.0458 3.41221 32.9057C3.33697 32.7594 3.27619 32.5858 3.22988 32.3847Z" fill="#0095C3"/>
</svg>
