<svg width="400" height="400" viewBox="0 0 400 400" fill="none" xmlns="http://www.w3.org/2000/svg">
<g clip-path="url(#clip0_416_244)">
<path d="M344.908 176.698C336.814 123.723 303.631 58.6383 238.076 51.8275C238.076 51.8275 188.302 45.7736 139.236 54.9488C110.116 60.3946 84.5802 76.6059 68.4239 99.9051C52.2665 123.204 46.8692 151.614 53.419 178.7C57.6735 196.292 60.5479 214.499 59.7587 232.577C58.3851 264.039 59.1754 293.406 89.708 312.168C116.971 328.922 151.28 343.697 184.012 346.285C206.257 348.043 231.202 345.198 252.642 339.406C361.902 309.891 353 229.672 344.907 176.697L344.908 176.698Z" fill="#F4F2F2"/>
<path d="M169.558 324.56C175.345 315.411 182.777 300.446 180.582 283.323C176.753 253.449 147.932 250.629 134.425 214.645C123.531 185.622 136.534 172.147 120.577 149.172C117.906 145.326 104.008 124.501 86.454 126.078C76.5629 126.966 69.9009 134.562 68.6513 135.987C49.7521 157.539 58.6815 207.574 84.3613 239.595C99.116 257.991 106.708 257.231 135.262 283.487C152.04 298.914 163.032 314.292 169.558 324.561V324.56Z" fill="url(#paint0_linear_416_244)"/>
<mask id="mask0_416_244" style="mask-type:luminance" maskUnits="userSpaceOnUse" x="58" y="125" width="123" height="200">
<path d="M169.558 324.56C175.345 315.411 182.777 300.446 180.582 283.323C176.753 253.449 147.932 250.629 134.425 214.645C123.531 185.622 136.534 172.147 120.577 149.172C117.906 145.326 104.008 124.501 86.454 126.078C76.5629 126.966 69.9009 134.562 68.6513 135.987C49.7521 157.539 58.6815 207.574 84.3613 239.595C99.116 257.991 106.708 257.231 135.262 283.487C152.04 298.914 163.032 314.292 169.558 324.561V324.56Z" fill="white"/>
</mask>
<g mask="url(#mask0_416_244)">
<g style="mix-blend-mode:soft-light">
<path d="M167.844 337.687L167.394 337.598C172.421 312.142 169.845 292.535 159.74 279.32C154.809 272.87 149.868 270.087 144.636 267.142C138.929 263.928 133.027 260.604 126.925 252.178C120.989 243.98 120.096 238.139 118.965 230.745C117.959 224.169 116.709 215.985 111.395 203.545C106.739 192.639 102.51 186.667 98.7798 181.397C94.7011 175.634 91.4784 171.084 89.2208 162.299C85.5399 147.984 87.0903 132.292 93.8278 115.659L94.2526 115.832C87.5539 132.372 86.01 147.968 89.665 162.184C91.9022 170.887 95.1032 175.408 99.155 181.132C102.898 186.42 107.141 192.414 111.818 203.364C117.154 215.858 118.41 224.073 119.419 230.675C120.54 238.008 121.426 243.799 127.297 251.908C133.34 260.253 139.197 263.551 144.863 266.742C150.136 269.711 155.117 272.516 160.106 279.04C170.294 292.366 172.897 312.096 167.845 337.686L167.844 337.687Z" fill="white"/>
<path d="M100.797 183.898L100.51 183.787C82.1596 176.675 71.5925 164.135 65.9602 154.866C59.8556 144.824 58.0658 136.343 58.0486 136.259L58.4982 136.166C58.5154 136.25 60.2933 144.666 66.3612 154.644C71.9289 163.797 82.344 176.167 100.393 183.249C100.745 179.64 104.533 145.429 121.614 137.332L121.811 137.747C104.102 146.141 100.853 183.218 100.823 183.591L100.798 183.898H100.797Z" fill="white"/>
<path d="M116.182 217.004C114.772 217.004 105.241 216.854 93.1743 213.066C81.1581 209.294 64.0897 201.038 51.019 183.132L51.3899 182.861C64.3829 200.661 81.349 208.87 93.2951 212.623C105.248 216.378 114.692 216.543 116.157 216.546C118.741 197.492 133.079 175.111 133.225 174.886L133.611 175.135C133.465 175.36 119.083 197.81 116.586 216.804L116.56 217.001L116.362 217.005C116.355 217.005 116.295 217.006 116.183 217.006L116.182 217.004Z" fill="white"/>
<path d="M126.5 265.337C115.866 265.337 99.6508 263.487 80.8896 255.068L81.0772 254.65C112.539 268.767 136.776 264.347 139.41 263.802C133.293 242.435 149.342 218.519 149.506 218.278L149.886 218.537C149.723 218.776 133.678 242.693 139.919 263.908L139.987 264.14L139.752 264.196C139.642 264.222 134.751 265.337 126.499 265.337H126.5Z" fill="white"/>
</g>
</g>
<path d="M229.418 309.56C223.727 301.732 216.418 288.924 218.574 274.266C222.333 248.697 250.666 246.279 263.94 215.478C274.645 190.636 261.86 179.105 277.543 159.438C280.168 156.147 293.829 138.32 311.085 139.667C320.809 140.426 327.359 146.926 328.588 148.147C347.17 166.59 338.4 209.417 313.159 236.826C298.657 252.574 291.192 251.923 263.127 274.4C246.635 287.608 235.831 300.77 229.417 309.559L229.418 309.56Z" fill="url(#paint1_linear_416_244)"/>
<mask id="mask1_416_244" style="mask-type:luminance" maskUnits="userSpaceOnUse" x="218" y="139" width="121" height="171">
<path d="M229.418 309.56C223.727 301.732 216.418 288.924 218.574 274.266C222.333 248.697 250.666 246.279 263.94 215.478C274.645 190.636 261.86 179.105 277.543 159.438C280.168 156.147 293.829 138.32 311.085 139.667C320.809 140.426 327.359 146.926 328.588 148.147C347.17 166.59 338.4 209.417 313.159 236.826C298.657 252.574 291.192 251.923 263.127 274.4C246.635 287.608 235.831 300.77 229.417 309.559L229.418 309.56Z" fill="white"/>
</mask>
<g mask="url(#mask1_416_244)">
<g style="mix-blend-mode:soft-light">
<path d="M231.104 320.797L231.546 320.72C226.602 298.934 229.13 282.151 239.061 270.839C243.907 265.318 248.765 262.936 253.907 260.414C259.518 257.663 265.32 254.816 271.317 247.603C277.152 240.585 278.028 235.586 279.139 229.257C280.126 223.628 281.355 216.623 286.576 205.975C291.153 196.64 295.308 191.529 298.975 187.018C302.985 182.085 306.151 178.189 308.37 170.67C311.986 158.417 310.459 144.987 303.834 130.751L303.416 130.899C310.004 145.056 311.524 158.403 307.932 170.571C305.734 178.02 302.588 181.891 298.606 186.79C294.926 191.316 290.757 196.447 286.161 205.82C280.918 216.514 279.684 223.546 278.692 229.197C277.592 235.473 276.721 240.43 270.951 247.371C265.011 254.514 259.254 257.338 253.685 260.07C248.501 262.612 243.606 265.015 238.702 270.599C228.689 282.005 226.132 298.894 231.103 320.796L231.104 320.797Z" fill="white"/>
<path d="M296.994 189.159L297.276 189.064C315.314 182.975 325.7 172.24 331.237 164.306C337.236 155.71 338.994 148.452 339.011 148.38L338.569 148.301C338.553 148.373 336.806 155.576 330.842 164.116C325.37 171.953 315.132 182.541 297.391 188.604C297.044 185.515 293.314 156.235 276.522 149.307L276.328 149.661C293.738 156.844 296.939 188.578 296.969 188.897L296.994 189.159Z" fill="white"/>
<path d="M281.874 217.496C283.261 217.496 292.631 217.367 304.492 214.123C316.304 210.893 333.083 203.824 345.929 188.496L345.565 188.264C332.795 203.501 316.117 210.529 304.373 213.743C292.623 216.958 283.338 217.102 281.9 217.103C279.356 200.796 265.256 181.641 265.114 181.449L264.734 181.663C264.877 181.854 279.021 201.068 281.478 217.324L281.504 217.491L281.698 217.494C281.706 217.494 281.765 217.494 281.874 217.494V217.496Z" fill="white"/>
<path d="M271.738 258.867C282.192 258.866 298.133 257.28 316.576 250.071L316.39 249.713C285.463 261.801 261.635 258.02 259.045 257.554C265.056 239.265 249.273 218.797 249.113 218.592L248.74 218.813C248.9 219.018 264.677 239.486 258.545 257.645L258.478 257.844L258.71 257.891C258.817 257.914 263.627 258.867 271.738 258.866V258.867Z" fill="white"/>
</g>
</g>
<path d="M168.591 320.018C164.753 314.625 158.234 306.491 148.39 298.696C130.883 284.832 120.331 285.881 114.775 274.58C109.023 262.882 117.609 256.227 110.483 242.925C109.884 241.807 102.14 227.793 90.6945 228.118C82.6869 228.345 77.1678 235.467 74.577 238.81C64.5252 251.78 59.8093 275.163 71.7101 291.556C82.9931 307.098 103.509 308.533 110.037 308.946C121.489 309.671 125.366 306.435 136.9 307.49C150.926 308.773 161.775 315.076 168.592 320.018H168.591Z" fill="url(#paint2_linear_416_244)"/>
<mask id="mask2_416_244" style="mask-type:luminance" maskUnits="userSpaceOnUse" x="84" y="114" width="212" height="212">
<path d="M264.819 294.391C306.077 253.133 306.077 186.241 264.819 144.983C223.561 103.725 156.668 103.725 115.411 144.983C74.1527 186.241 74.1527 253.133 115.411 294.391C156.668 335.649 223.561 335.649 264.819 294.391Z" fill="white"/>
</mask>
<g mask="url(#mask2_416_244)">
<path d="M297.055 219.777C297.055 242.416 289.945 263.417 277.89 280.703C277.843 280.774 277.672 280.842 277.672 280.913V280.916C258.756 308.633 226.344 326.589 189.985 326.589C187.011 326.589 184.163 326.45 181.251 326.047H181.247C181.236 326.047 181.229 326.224 181.217 326.224C179.783 326.106 178.362 326.051 176.946 325.876C176.442 325.817 175.938 325.796 175.438 325.725C174.994 325.666 174.552 325.626 174.111 325.558C173.726 325.502 173.343 325.453 172.965 325.392C172.879 325.377 172.793 325.368 172.707 325.356C171.775 325.202 170.844 325.043 169.917 324.865C169.912 324.865 169.908 324.864 169.902 324.864C120.468 315.421 83.1169 271.962 83.1169 219.777C83.1169 208.743 84.7202 198.098 87.8242 188.083C88.3105 186.513 88.9153 184.962 89.3175 183.424V183.421C90.525 180.859 91.3347 178.344 92.4452 175.877C92.8927 174.891 93.3865 173.911 93.8576 172.939C96.4614 167.601 99.5126 162.512 102.934 157.718C103.244 157.282 103.568 156.85 103.885 156.417C105.153 154.693 106.475 153.011 107.846 151.367C109.899 148.902 112.06 146.53 114.323 144.261C120.215 138.348 126.795 133.12 133.93 128.711C136.137 127.346 138.4 126.056 140.71 124.854C146.306 121.933 152.189 119.495 158.312 117.594C168.359 114.469 179.04 112.786 190.115 112.786C215.586 112.786 238.978 121.684 257.348 136.541C270.86 147.472 281.85 161.62 288.764 177.826C290.31 181.446 291.355 185.167 292.965 188.976V188.979C292.965 188.996 292.781 189.008 292.787 189.026C295.708 198.765 297.054 209.088 297.054 219.779L297.055 219.777Z" fill="#D8D8D8"/>
<g style="mix-blend-mode:soft-light">
<path d="M213.424 255.848C211.129 259.082 204.026 263.236 208.845 271.393C213.623 279.53 208.513 281.056 205.226 280.294C201.924 279.542 191.657 279.121 193.368 283.787C195.074 288.457 198.015 290.208 194.254 292.012C190.496 293.807 188.905 298.496 185.058 304.95C181.237 311.416 172.155 305.823 174.844 312.305C177.528 318.789 179.622 318.161 179.37 322.678C179.311 323.919 180.135 325.192 181.249 326.404C179.815 326.286 178.375 326.14 176.948 325.966C176.444 325.906 175.941 325.842 175.44 325.77C174.996 325.711 174.554 325.649 174.113 325.581C173.728 325.525 173.346 325.465 172.967 325.403C172.881 325.388 172.904 325.374 172.817 325.362C171.899 325.208 171.422 325.042 170.215 324.867V324.864C169.409 324.099 169.914 323.27 170.036 322.375C171.236 314.035 159.727 308.303 157.798 302.458C155.903 296.629 157.775 293.151 157.336 288.32C156.885 283.498 158.463 277.103 155.687 273.039C152.912 268.99 141.723 267.633 139.594 259.461C137.449 251.307 142.437 239.093 144.374 237.015C146.288 234.935 135.111 225.474 129.79 225.172C124.446 224.846 126.584 214.088 117.549 215.726C108.497 217.314 92.2351 212.263 95.5947 206.831C98.3666 202.356 103.021 192.483 87.8286 188.082C88.3138 186.512 88.9165 184.96 89.3186 183.422V183.419C90.5262 180.857 91.3359 178.342 92.4464 175.875C92.8938 174.888 93.3876 173.908 93.8588 172.937C96.4658 167.599 99.5159 162.51 102.935 157.715C103.245 157.28 103.569 156.847 103.886 156.415C105.157 154.691 106.479 153.006 107.847 151.365C109.9 148.9 112.061 146.528 114.325 144.259C120.216 138.346 126.796 133.118 133.931 128.708C136.94 130.817 140.377 132.118 143.345 130.515C150.622 126.442 145.824 125.818 142.844 125.667C142.068 125.628 141.315 125.321 140.712 124.852C146.307 121.931 152.19 119.493 158.313 117.591C157.86 121.699 152.276 128.299 156.384 127.493C161.164 126.584 163.117 113.667 166.626 117.958C170.187 122.267 162.731 127.916 169.734 124.644C176.745 121.403 177.681 114.17 185.494 117.688C193.347 121.252 192.63 125.47 194.822 125.052C197.005 124.64 204.066 129.385 199.795 133.289C195.486 137.205 191.534 132.217 185.074 130.713C178.61 129.226 178.768 134.513 175.794 135.722C172.77 136.888 158.181 129.839 154.601 136.21C150.981 142.532 149.44 146.941 154.814 146.778C160.181 146.628 160.528 145.238 160.107 149.208C159.678 153.18 160.655 156.153 165.518 152.418C170.367 148.689 169.28 145.051 173.072 146.829C176.866 148.612 177.313 146.998 181.348 144.068C185.379 141.139 190.684 140.833 192.073 147.406C193.465 153.982 191.087 155.457 183.996 155.789C176.901 156.133 176.099 153.895 173.839 159.826C171.591 165.76 162.207 173.378 153.97 176.518C145.747 179.664 142.524 184.311 142.714 190.581C142.909 196.864 139.817 203.49 137.752 198.312C135.679 193.119 129.867 184.375 123.938 190.219C117.996 196.074 107.655 206.427 119.083 208.32C130.486 210.249 124.536 199.564 130.3 201.7C136.055 203.851 126.653 208.561 130.501 210.261C134.355 211.976 135.97 211.173 135.94 216.425C135.909 221.673 137.216 226.771 141.893 224.543C146.567 222.325 152.561 214.467 159.323 220.554C166.094 226.656 165.626 223.43 169.177 221.652C172.726 219.877 174.985 225.198 176.44 227.62C177.894 230.041 183.599 227.57 188.223 234.78C192.844 241.989 194.657 243.274 199.927 240.68C205.199 238.088 207.343 240.014 208.718 243.654C210.086 247.294 213.333 243.737 214.897 248.548C216.452 253.355 215.706 252.609 213.425 255.846L213.424 255.848Z" fill="white"/>
<path d="M231.47 168.5C227.735 160.485 246.242 161.385 249.512 162.001C252.802 162.549 260.522 156.515 261.502 153.71C262.509 150.884 264.162 152.226 270.018 152.146C275.872 152.083 270.7 150.759 264.257 148.635C257.827 146.518 263.324 146.304 257.396 141.624C254.846 139.574 255.649 137.832 257.349 136.538C270.862 147.468 281.658 161.617 288.572 177.823C288.376 177.764 288.192 177.732 288.021 177.728C283.921 177.705 283.018 168.64 280.906 166.875C278.824 165.113 280.965 171.854 281.474 174.624C281.986 177.396 280.352 175.065 278.307 177.61C276.255 180.157 272.549 180.205 272.215 176.384C271.874 172.571 269.187 168.828 263.735 167.086C258.282 165.344 253.563 166.775 249.132 168.484C244.725 170.164 235.231 176.452 231.47 168.499V168.5Z" fill="white"/>
<path d="M277.932 280.913C278.302 278.162 278.907 275.318 277.758 274.278C274.964 271.686 274.354 264.625 275.323 261.047C276.289 257.46 283.815 257.665 278.708 251.708C273.587 245.734 268.973 238.643 271.122 234.588C273.273 230.538 272.621 230.243 268.59 230.266C264.552 230.29 262.784 230.468 258.765 226.878C254.742 223.24 249.209 235.462 234.07 225.66C218.934 215.761 227.554 199.076 233.226 199.034C238.934 198.939 245.601 196.057 240.924 189.096C236.262 182.109 243.548 181.122 247.108 182.711C250.675 184.28 256.999 180.063 263.444 178.161C269.904 176.267 269.62 186.792 273.207 188.898C276.814 191.007 283.574 189.334 287.087 185.962C289.596 183.557 290.144 186.362 292.623 189.025C295.544 198.764 297.111 209.087 297.111 219.778C297.111 242.509 290.023 263.587 277.931 280.914L277.932 280.913Z" fill="white"/>
<path d="M250.855 155.159C250.858 155.153 255.575 153.023 253.865 149.592C252.172 146.161 249.485 135.645 247.522 138.958C245.546 142.288 248.458 148.751 247.822 151.54C247.181 154.337 247.164 155.802 250.855 155.158V155.159Z" fill="white"/>
<path d="M246.145 151.949C246.078 150.844 246.774 146.354 243.241 146.495C243.248 146.487 238.131 148.623 241.125 152.25C244.132 155.866 246.221 153.051 246.145 151.949Z" fill="white"/>
</g>
<g style="mix-blend-mode:multiply" opacity="0.3">
<path d="M296.771 219.589C296.771 242.229 289.803 263.229 277.748 280.515C277.7 280.587 277.672 280.654 277.672 280.726V280.729C258.354 308.445 226.202 326.317 189.843 326.317C186.869 326.317 183.878 326.091 180.966 325.688H180.963C180.951 325.688 180.945 325.953 180.933 325.953C179.499 325.834 178.078 325.82 176.661 325.645C176.157 325.586 175.654 325.588 175.154 325.517C174.709 325.458 174.268 325.429 173.826 325.361C173.441 325.305 173.059 325.264 172.68 325.201C172.594 325.186 172.509 325.18 172.423 325.168C171.49 325.013 170.56 324.855 169.632 324.677C169.627 324.677 169.624 324.677 169.617 324.677C123.904 315.945 88.525 278.098 83.4565 231.188C94.1768 261.937 120.683 285.04 153.272 291.48H153.284C154.084 291.882 154.886 291.802 155.693 291.935C155.767 291.944 155.844 291.97 155.918 291.982C156.244 292.035 156.576 292.089 156.908 292.137C157.287 292.196 157.669 292.244 158.054 292.294C158.486 292.357 158.919 292.394 159.354 292.444C160.578 292.595 161.804 292.874 163.041 292.975C163.053 292.975 163.06 293.09 163.068 293.09H163.072C165.586 293.09 168.093 293.292 170.661 293.292C186.36 293.292 201.155 289.3 214.099 282.414C227.044 275.528 238.136 265.598 246.43 253.631C246.43 253.569 246.53 253.486 246.569 253.423C256.981 238.497 263.074 220.348 263.074 200.799C263.074 191.569 261.719 182.647 259.196 174.238C259.192 174.223 259.159 174.206 259.159 174.191V174.188C258.354 170.9 257.058 167.686 255.724 164.561C249.752 150.565 240.454 138.346 228.784 128.909C220.241 121.999 210.444 116.583 199.783 113.056C221.377 115.043 241.114 123.452 257.064 136.353C270.577 147.283 281.508 161.432 288.422 177.638C289.968 181.257 290.954 184.978 292.564 188.787V188.79C292.564 188.808 292.439 188.819 292.444 188.838C295.365 198.577 296.771 208.899 296.771 219.59V219.589Z" fill="#97A6B7"/>
</g>
</g>
<path d="M166.528 80.3827C168.204 79.2959 166.677 76.1369 166.587 69.3488C166.475 61.0318 168.685 59.4814 166.911 56.2178C164.742 52.2275 159.28 50.5768 155.661 50.4981C154.864 50.4809 154.677 50.0453 147.991 51.7768C135.946 54.896 132.93 51.5526 127.536 54.8927C122.325 58.1208 124.607 61.655 119.546 65.4393C111.343 71.5741 102.717 64.9412 96.8539 70.0733C91.3089 74.9272 91.1806 87.2949 97.0135 94.0442C103.626 101.695 115.549 99.3962 123.541 97.8792C125.222 97.5601 133.715 95.7768 142.557 89.2496C147.449 85.6388 150.808 81.7833 152.945 78.9423C153.446 78.3774 154.229 77.6938 155.261 77.5838C156.501 77.4512 157.498 78.2102 157.978 78.5423C160.499 80.2879 164.882 81.4469 166.528 80.3806V80.3827Z" fill="url(#paint3_linear_416_244)"/>
<path d="M159.796 75.8253C161.95 73.8631 169.638 77.6453 174.732 82.6652C180.717 88.5628 180.258 93.3455 185.48 100.673C188.077 104.316 192.528 109.219 200.417 113.515C199.859 114.911 199.3 116.307 198.742 117.702C194.928 117.932 187.44 117.797 180.455 113.236C175.602 110.067 173.106 105.868 168.311 97.6011C163.498 89.3035 157.103 78.2782 159.795 75.8243L159.796 75.8253Z" fill="url(#paint4_linear_416_244)"/>
<path d="M206.845 191.135L204.396 185.931C204.047 185.191 203.505 184.561 202.826 184.107L201.613 183.295C201.613 183.295 198.714 183.218 198.262 185.04C198.165 187.355 202.663 192.526 205.507 194.579C205.98 194.92 206.652 195.375 207.062 195.141C207.755 194.745 207.269 192.616 206.845 191.135Z" fill="url(#paint5_linear_416_244)"/>
<path d="M202.242 180.465C201.856 182.696 202.344 183.861 202.87 184.513C203.24 184.972 206.245 189.926 205.01 190.726C204.454 191.087 200.637 186.347 200.266 185.622C199.931 184.964 199.713 185.119 199.694 183.327C199.681 182.148 199.442 181.198 199.253 180.605C200.249 180.558 201.245 180.512 202.242 180.466V180.465Z" fill="white"/>
<path d="M206.58 162.773C206.58 162.773 209.292 166.009 208.85 169.555C208.409 173.101 203.661 167.916 202.999 166.164C202.337 164.412 201.563 161.915 201.563 161.915C201.563 161.915 204.893 159.844 206.58 162.773Z" fill="url(#paint6_linear_416_244)"/>
<path d="M205.546 157.711C205.546 157.711 204.811 161.48 206.214 163.47C206.912 164.46 207.855 165.3 207.577 166.107C207.392 166.647 206.687 167.035 206.09 166.975C204.946 166.857 204.312 165.104 203.864 163.867C203.203 162.041 202.836 158.133 202.836 158.133L205.546 157.712V157.711Z" fill="white"/>
<path d="M203.384 160.888C204.218 160.584 205.052 160.281 205.886 159.977C207.186 157.006 208.774 152.126 208.244 146.195C206.88 130.941 192.772 122.858 191.204 121.994C187.361 123.922 183.467 126.643 183.326 130.072C183.149 134.377 189.015 136.653 194.528 142.95C197.838 146.729 201.375 152.36 203.384 160.888Z" fill="url(#paint7_linear_416_244)"/>
<path d="M202.486 182.209C205.241 171.447 204.537 162.665 203.742 157.606C202.541 149.96 200.098 134.406 189.713 128.606C187.446 127.339 184.204 126.205 180.252 122.684C176.953 119.743 174.856 116.65 173.59 114.472C159.702 110.398 146.893 112.05 141.24 119.498C140.587 120.358 138.952 122.225 138.635 124.978C137.921 131.188 144.024 138.665 150.871 140.227C159.574 142.212 164.623 133.275 172.333 136.249C174.49 137.08 176.319 139.142 179.976 143.264C184.629 148.507 187.244 153.346 188.234 155.282C191.181 161.047 193.415 165.302 193.74 170.818C193.816 172.103 193.861 174.699 195.366 177.499C196.522 179.647 198.087 181.08 199.252 181.965C200.33 182.046 201.407 182.128 202.485 182.209H202.486Z" fill="url(#paint8_linear_416_244)"/>
<path style="mix-blend-mode:multiply" opacity="0.3" d="M138.636 124.978C138.952 122.225 140.588 120.358 141.241 119.498C146.894 112.05 159.704 110.398 173.591 114.472C174.857 116.651 176.954 119.743 180.253 122.684C184.205 126.205 187.447 127.339 189.714 128.606C196.055 132.148 199.433 139.325 201.377 146.12C198.492 141.646 196.023 140.457 194.111 140.437C191.376 140.406 190.153 142.745 186.887 142.426C183.396 142.085 182.598 139.198 179.768 138.867C178.921 138.768 177.879 138.898 176.628 139.564C174.957 137.816 173.712 136.78 172.335 136.249C164.625 133.275 159.576 142.212 150.873 140.227C144.026 138.666 137.924 131.189 138.637 124.978H138.636Z" fill="url(#paint9_linear_416_244)"/>
<path d="M195.291 133.42C193.719 133.337 191.298 133.288 188.379 133.576C174.521 134.946 170.701 141.801 159.249 143.473C156.539 143.868 144.477 145.63 139.252 138.657C135.501 133.65 136.068 125.023 140.172 121.63C141.907 120.194 143.627 120.234 154.747 120.334C158.935 120.372 163.122 120.386 167.31 120.439C185.036 120.664 188.427 119.437 191.652 122.369C193.157 123.737 195.356 126.674 195.292 133.418L195.291 133.42Z" fill="url(#paint10_linear_416_244)"/>
<path d="M157.867 76.5445C157.867 76.5445 143.875 72.4636 137.713 79.4393C136.582 80.7202 135.687 82.4043 135.036 85.655C131.72 102.221 144.265 112.172 139.322 120.912C137.36 124.383 133.902 125.429 131.445 131.666C131.029 132.721 129.525 136.541 130.905 137.744C132.121 138.804 134.12 136.567 137.671 136.998C141.432 137.456 142.311 140.345 144.841 139.925C146.491 139.65 147.202 138.241 149.632 134.73C153.151 129.645 154.91 127.104 156.171 126.212C161.147 122.695 164.994 127.282 170.668 123.799C172.723 122.539 180.335 112.737 178.096 115.43C172.765 108.78 171.527 103.294 171.399 99.4792C171.259 95.297 172.466 93.3962 171.399 88.4528C171.399 88.4528 170.21 82.9369 165.92 78.2005C165.305 77.5202 164.57 76.8129 157.865 76.5445H157.867Z" fill="url(#paint11_linear_416_244)"/>
<path d="M153.376 67.4685C153.566 68.3536 154.529 73.104 152.587 74.3267C152.165 74.5919 151.355 74.7439 149.737 75.0469C148.677 75.2453 147.788 75.3671 147.16 75.4426C147.251 76.2394 147.519 77.5353 148.439 78.7148C151.016 82.0216 156.183 81.1655 156.92 81.0307C159.519 80.5574 162.077 79.7542 162.694 79.2636C163.635 78.5164 164.374 77.9558 164.812 77.3855C163.806 76.8992 161.776 75.6173 160.413 75.1979C159.394 74.8841 158.439 74.6609 157.569 74.5003C157.426 73.5828 157.283 72.6652 157.14 71.7477C155.886 70.3213 154.632 68.8938 153.377 67.4674L153.376 67.4685Z" fill="white"/>
<path d="M153.284 69.8361C153.284 69.8361 153.636 73.3175 157.02 73.931C160.05 74.4809 162.331 67.1579 160.781 65.2647C160.263 64.6329 158.987 64.0323 157.879 64.0636C157.101 64.0863 154.471 65.0879 154.103 67.7186C153.58 67.1666 152.927 67.0081 152.606 67.2388C152.197 67.5321 152.416 68.3838 152.466 68.5768C152.637 69.2464 153.074 69.6604 153.284 69.835V69.8361Z" fill="white"/>
<path style="mix-blend-mode:multiply" opacity="0.4" d="M178.098 115.43C177.457 114.63 176.878 113.847 176.349 113.081C173.409 112.096 170.866 111.729 168.814 111.63C164.186 111.406 161.652 112.495 158.502 110.599C154.927 108.447 155.559 105.461 152.109 103.793C148.478 102.039 145.909 104.022 142.416 103.381C140.306 102.994 137.736 101.583 135.114 97.4674C137.122 107.378 142.964 114.474 139.323 120.912C137.361 124.383 133.903 125.429 131.446 131.666C131.03 132.721 129.526 136.541 130.906 137.744C132.122 138.804 134.121 136.567 137.672 136.998C141.433 137.456 142.311 140.345 144.842 139.925C146.492 139.65 147.203 138.242 149.633 134.73C153.152 129.645 154.911 127.104 156.172 126.212C161.148 122.695 164.995 127.282 170.669 123.799C172.724 122.539 180.336 112.737 178.097 115.43H178.098Z" fill="url(#paint12_linear_416_244)"/>
<path d="M182.315 117.131L150.656 118.672C150.22 118.693 149.822 118.926 149.591 119.297L148.715 120.703C148.279 121.403 148.803 122.305 149.627 122.274L183.162 120.996L182.315 117.131Z" fill="url(#paint13_linear_416_244)"/>
<path d="M215.243 99.5008L182.536 100.135C181.568 100.153 180.681 100.68 180.204 101.522L168.878 121.45L203.421 120.074C204.369 120.037 205.235 119.523 205.722 118.709L216.216 101.178C216.662 100.432 216.113 99.4857 215.244 99.503L215.243 99.5008Z" fill="url(#paint14_linear_416_244)"/>
<path style="mix-blend-mode:multiply" opacity="0.3" d="M180.203 101.521C180.682 100.679 181.568 100.152 182.535 100.134L183.252 100.12C183.359 101.175 183.683 102.141 184.329 102.921C186.346 105.355 189.696 103.853 192.194 106.43C194.938 109.26 192.403 112.63 194.856 115.264C197.438 118.036 201.613 115.779 206.412 117.553L205.721 118.707C205.234 119.521 204.369 120.034 203.42 120.072L168.877 121.448L180.203 101.52V101.521Z" fill="url(#paint15_linear_416_244)"/>
<path d="M153.234 116.072C153.646 114.984 154.058 113.896 154.471 112.808C149.917 111.559 143.618 109.714 137.158 107.406C136.147 107.045 134.944 106.596 134.55 105.532C133.445 102.546 140.468 99.4501 143.199 92.9294C145.724 86.8981 144.334 78.5272 141.404 77.5385C135.306 75.4814 113.682 102.398 121.405 113.744C125.77 120.158 139.23 121.18 153.236 116.073L153.234 116.072Z" fill="url(#paint16_linear_416_244)"/>
<path d="M154.471 112.808C157.33 111.288 160.753 112.845 160.974 112.95C161.602 113.246 162.516 113.775 163.44 114.718C163.545 114.86 164.785 116.579 164.333 117.13C163.971 117.571 162.568 117.205 160.883 116.157C160.177 116.058 159.124 115.968 157.864 116.083C155.55 116.296 154.491 117.027 153.65 116.397C153.034 115.935 152.825 114.958 153.046 114.232C153.283 113.452 153.987 113.065 154.471 112.808Z" fill="white"/>
<path d="M232.209 277.198C228.746 275.279 229.761 264.387 234.458 256.734C241.129 245.867 255.748 240.68 258.744 243.917C261.811 247.229 252.982 259.663 251.548 261.682C246.346 269.008 236.305 279.468 232.209 277.198Z" fill="url(#paint17_linear_416_244)"/>
<path d="M196 340.412C196.565 341.192 196.567 342.515 195.938 343.098C195.319 343.67 194.545 343.104 192.194 342.916C189.677 342.715 188.956 343.236 187.303 342.578C186.634 342.312 185.469 341.715 185.546 341.226C185.6 340.882 186.239 340.771 188.385 340.306C191.43 339.645 191.423 339.59 192.058 339.556C193.653 339.468 195.255 339.381 196 340.412Z" fill="url(#paint18_linear_416_244)"/>
<path d="M194.842 336.141L193.123 340.19C193.193 340.425 194.39 341.315 195.541 340.961L197.858 337.103L194.843 336.141H194.842Z" fill="url(#paint19_linear_416_244)"/>
<path d="M211.511 345.843C212.076 346.623 212.078 347.946 211.448 348.528C210.829 349.101 210.055 348.535 207.705 348.347C205.187 348.146 204.467 348.666 202.813 348.009C202.145 347.742 200.979 347.146 201.057 346.657C201.111 346.313 201.75 346.202 203.895 345.737C206.94 345.076 206.934 345.021 207.569 344.987C209.163 344.899 210.766 344.812 211.511 345.843Z" fill="url(#paint20_linear_416_244)"/>
<path d="M210.353 341.573L208.633 345.622C208.703 345.857 209.901 346.747 211.051 346.392L213.368 342.535L210.354 341.573H210.353Z" fill="url(#paint21_linear_416_244)"/>
<path d="M286.516 244.621C282.498 243.252 276.359 241.661 268.797 241.661C260.283 241.661 253.446 241.664 248.725 245.687C237.266 255.453 250.091 278.845 243.521 296.168C242.802 298.066 240.707 304.081 242.53 310.568C242.865 311.764 243.556 312.8 244.739 314.554C251.679 324.851 271.558 328.239 280.489 319.311C285.209 314.593 289.068 312.913 289.182 307.529C289.629 286.278 286.332 265.08 286.517 244.62L286.516 244.621Z" fill="url(#paint22_linear_416_244)"/>
<path style="mix-blend-mode:multiply" opacity="0.3" d="M281.985 270.582C283.608 266.139 281.927 261.052 285.545 258.831C286.871 258.017 288.52 257.673 290.315 257.712C290.1 273.332 289.793 288.936 289.413 305.237C289.288 310.62 288.614 310.887 283.395 315.605C277.348 321.073 266.927 322.857 257.99 321.068C269.696 313.87 278.048 306.413 276.852 300.02C275.459 292.577 261.828 290.378 262.375 285.086C262.957 279.477 278.438 280.295 281.986 270.581L281.985 270.582Z" fill="url(#paint23_linear_416_244)"/>
<path d="M282.793 245.102C286.729 242.445 296.21 249.145 301.466 255.043C303.909 257.783 312.415 267.327 310.302 280.147C309.958 282.236 308.372 292.003 300.011 296.788C292.524 301.072 282.415 299.97 274.316 293.903C273.21 292.921 272.102 291.939 270.995 290.956C269.906 289.779 268.817 288.603 267.728 287.425C269.44 286.001 272.348 283.947 276.433 282.63C282.658 280.621 286.749 283.601 288.238 281.64C290.071 279.225 284.492 274.726 283.027 264.488C282.633 261.726 278.399 248.07 282.795 245.103L282.793 245.102Z" fill="url(#paint24_linear_416_244)"/>
<path d="M274.787 314.21C276.445 322.907 272.037 318.961 262.817 313.085C253.108 306.897 231.467 297.162 220.75 305.612C212.769 311.904 216.63 323.669 204.13 334.774C201.929 336.73 199.902 338.043 198.643 338.795C196.726 337.742 194.81 336.691 192.893 335.639C192.611 330.951 192.083 312.943 204.994 298.288C208.115 294.745 214.061 287.937 223.189 285.785C247.868 279.969 273.257 306.19 274.786 314.21H274.787Z" fill="url(#paint25_linear_416_244)"/>
<path d="M285.129 307.405C286.271 312.42 284.153 317.808 281.038 320.957C274.125 327.947 260.587 325.642 252.387 321.876C242.41 317.295 240.786 310.773 236.545 311.865C229.953 313.562 232.74 329.642 219.924 341.027C217.722 342.983 215.695 344.295 214.436 345.048C212.52 343.996 210.603 342.944 208.687 341.892C208.349 331.012 210.403 322.551 212.162 317.195C214.178 311.053 215.985 305.551 221.014 300.607C227.26 294.464 234.714 292.885 238.984 292.039C257.05 288.456 282.165 294.373 285.131 307.406L285.129 307.405Z" fill="url(#paint26_linear_416_244)"/>
<path d="M228.919 290.909L276.337 290.201L263.728 296.286L228.798 294L228.919 290.909Z" fill="url(#paint27_linear_416_244)"/>
<path d="M278.011 291.461C278.011 292.348 277.456 293.142 276.621 293.445L261.47 299.384L261.401 295.266L276.338 290.201C277.175 289.96 278.011 290.589 278.011 291.461Z" fill="url(#paint28_linear_416_244)"/>
<path d="M271.241 289.558C271.532 289.493 269.823 286.088 268.482 286.481C267.141 286.874 260.58 290.676 259.984 292.242L259.388 293.807C259.388 293.807 262.249 294.03 264.025 293.434C265.8 292.838 268.876 290.084 271.242 289.557L271.241 289.558Z" fill="url(#paint29_linear_416_244)"/>
<path d="M260.143 266.372L263.486 296.805C263.601 297.856 262.132 299.42 261.076 299.37L212.042 296.36C211.237 296.321 210.566 295.729 210.429 294.934L204.275 265.541C204.092 264.471 206.014 263.366 207.099 263.396L258.483 264.841C259.341 264.865 260.05 265.518 260.143 266.372Z" fill="url(#paint30_linear_416_244)"/>
<path d="M259.022 267.259L262.364 297.693C262.48 298.743 261.629 299.647 260.574 299.598L210.92 297.247C210.114 297.21 209.444 296.616 209.307 295.821L204.234 266.293C204.051 265.224 204.892 264.253 205.976 264.284L257.361 265.728C258.219 265.752 258.927 266.405 259.021 267.259H259.022Z" fill="url(#paint31_linear_416_244)"/>
<path style="mix-blend-mode:multiply" opacity="0.3" d="M229.865 290.115C234.201 288.278 232.671 284.773 237.79 280.408C244.543 274.647 251.429 277.145 253.838 272.68C254.589 271.29 254.948 269.126 253.64 265.624L257.361 265.728C258.219 265.752 258.927 266.405 259.021 267.259L262.363 297.693C262.479 298.743 261.628 299.647 260.573 299.598L210.919 297.247C210.113 297.21 209.443 296.617 209.306 295.821L208.606 291.747C210.112 290.908 211.913 290.146 214.013 289.72C221.297 288.243 224.871 292.232 229.863 290.116L229.865 290.115Z" fill="url(#paint32_linear_416_244)"/>
<path d="M268.002 230.03C267.976 233.187 268.328 235.689 268.661 237.404C269.043 239.368 269.318 239.875 269.668 240.287C270.196 240.907 270.996 241.426 275.519 242.548C277.981 243.158 278.297 243.142 278.352 243.385C278.617 244.577 271.905 248.638 264.972 247.659C260.728 247.06 256.867 244.639 257.104 243.368C257.342 242.088 261.582 242.775 262.845 240.46C263.724 238.85 262.739 236.564 261.574 234.671C262.702 232.557 266.873 232.142 268.001 230.029L268.002 230.03Z" fill="url(#paint33_linear_416_244)"/>
<path d="M259.097 234.044C257.792 233.009 257.147 230.777 257.893 229.065C258.536 227.592 260.002 227.024 260.881 226.684C263.425 225.697 267.021 225.93 268.801 228.045C269.856 229.298 269.155 232.657 269.063 233.251C268.959 233.923 268.538 234.254 268.219 234.826C267.776 235.618 267.086 236.874 265.97 238.964C265.72 238.498 265.376 237.93 264.91 237.339C264.731 237.112 264.018 236.226 263.119 235.572C261.318 234.261 260.333 235.025 259.097 234.044Z" fill="url(#paint34_linear_416_244)"/>
<path d="M267.819 236.969C267.819 236.969 266.831 240.248 263.339 240.919C260.213 241.519 257.967 234.742 259.55 232.767C260.078 232.108 261.337 231.563 262.482 231.585C263.158 231.598 263.44 231.804 264.545 231.803C265.565 231.803 265.806 231.626 266.158 231.793C266.598 232.002 267.055 232.678 266.978 234.85C267.41 234.103 268.055 233.692 268.615 233.797C268.704 233.815 268.952 233.903 269.128 234.089C269.763 234.765 269.306 235.958 267.819 236.968V236.969Z" fill="url(#paint35_linear_416_244)"/>
<path d="M266.189 231.344C266.069 231.493 266.666 231.929 266.905 232.703C267.366 234.206 266.303 236.43 264.774 236.994C263.871 237.327 263.47 236.835 261.893 237.072C260.918 237.218 260.159 237.545 259.69 237.783C259.642 239.575 260.528 241.119 261.843 241.6C263.258 242.118 264.66 241.215 265.245 240.838C265.637 240.585 266.894 239.779 267.283 238.333C267.69 236.826 266.749 236.226 267.376 235.115C267.692 234.554 268.209 234.212 268.537 233.202C268.626 232.927 268.672 232.693 268.697 232.537C267.684 231.903 266.361 231.129 266.188 231.344H266.189Z" fill="url(#paint36_linear_416_244)"/>
<path d="M260.966 238.111C260.966 238.111 261.721 238.285 262.851 237.921C262.906 237.903 262.972 237.904 262.987 237.931C263.042 238.033 262.433 238.713 261.705 238.699C261.188 238.689 260.695 238.33 260.729 238.197C260.744 238.141 260.854 238.12 260.966 238.11V238.111Z" fill="#F4F7FA"/>
<path d="M296.498 103.239C296.498 114.688 280.459 135.578 273.201 144.446C271.395 146.653 268.018 146.653 266.212 144.446C258.954 135.578 242.915 114.687 242.915 103.239C242.915 88.442 254.91 76.4474 269.707 76.4474C284.503 76.4474 296.498 88.442 296.498 103.239Z" fill="url(#paint37_linear_416_244)"/>
<path d="M280.271 113.805C286.106 107.969 286.106 98.5085 280.271 92.6731C274.436 86.8378 264.975 86.8378 259.139 92.6731C253.304 98.5085 253.304 107.969 259.139 113.805C264.975 119.64 274.436 119.64 280.271 113.805Z" fill="white"/>
<g style="mix-blend-mode:multiply" opacity="0.2">
<path d="M269.587 133.447C271.287 122.253 278.679 118.67 277.41 108.1C275.947 95.9105 265.154 92.6642 264.894 81.8146C264.852 80.0679 265.09 78.3838 265.537 76.7709C252.72 78.773 242.914 89.8609 242.914 103.239C242.914 114.687 258.953 135.578 266.211 144.446C267.274 145.746 268.882 146.279 270.392 146.049C269.093 141.146 269.054 136.958 269.587 133.446V133.447Z" fill="url(#paint38_linear_416_244)"/>
</g>
<path d="M273.578 161.353C275.716 159.215 275.716 155.747 273.578 153.609C271.439 151.47 267.972 151.47 265.834 153.609C263.695 155.747 263.695 159.215 265.834 161.353C267.972 163.492 271.439 163.492 273.578 161.353Z" fill="url(#paint39_linear_416_244)"/>
<path d="M183.613 192.758C183.613 204.207 167.574 225.098 160.316 233.966C158.51 236.173 155.133 236.173 153.327 233.966C146.069 225.098 130.03 204.206 130.03 192.758C130.03 177.961 142.025 165.967 156.822 165.967C171.618 165.967 183.613 177.961 183.613 192.758Z" fill="url(#paint40_linear_416_244)"/>
<path d="M167.387 203.323C173.222 197.488 173.222 188.027 167.387 182.192C161.552 176.356 152.091 176.356 146.256 182.192C140.42 188.027 140.42 197.488 146.256 203.323C152.091 209.159 161.552 209.159 167.387 203.323Z" fill="white"/>
<g style="mix-blend-mode:multiply" opacity="0.2">
<path d="M156.703 222.966C158.403 211.773 165.795 208.189 164.526 197.619C163.063 185.43 152.27 182.183 152.01 171.334C151.968 169.587 152.206 167.903 152.653 166.29C139.836 168.292 130.03 179.38 130.03 192.758C130.03 204.206 146.069 225.098 153.327 233.965C154.39 235.265 155.998 235.798 157.508 235.568C156.209 230.665 156.17 226.478 156.703 222.965V222.966Z" fill="url(#paint41_linear_416_244)"/>
</g>
<path d="M162.259 247.517C162.557 244.508 160.359 241.826 157.349 241.529C154.339 241.231 151.658 243.429 151.36 246.439C151.063 249.449 153.261 252.13 156.271 252.427C159.28 252.725 161.961 250.527 162.259 247.517Z" fill="url(#paint42_linear_416_244)"/>
<path d="M229.18 253.757C229.963 252.49 229.571 250.829 228.304 250.046C227.037 249.263 225.376 249.655 224.593 250.922C223.81 252.188 224.202 253.85 225.469 254.633C226.735 255.416 228.397 255.024 229.18 253.757Z" fill="url(#paint43_linear_416_244)"/>
<path d="M226.883 229.725C221.25 229.725 216.099 231.787 212.142 235.197C211.33 235.896 211.272 237.133 212.03 237.891L212.107 237.968C212.781 238.642 213.864 238.691 214.585 238.068C217.885 235.218 222.181 233.492 226.883 233.492C231.585 233.492 235.881 235.218 239.181 238.068C239.902 238.691 240.985 238.642 241.659 237.968L241.736 237.891C242.494 237.133 242.436 235.896 241.624 235.197C237.667 231.788 232.516 229.725 226.883 229.725Z" fill="url(#paint44_linear_416_244)"/>
<path d="M226.883 236.002C222.992 236.002 219.42 237.366 216.617 239.64C215.778 240.32 215.724 241.585 216.488 242.348L216.501 242.361C217.171 243.031 218.231 243.067 218.968 242.473C221.134 240.729 223.886 239.684 226.884 239.684C229.883 239.684 232.634 240.73 234.799 242.473C235.536 243.067 236.596 243.031 237.266 242.361L237.279 242.348C238.043 241.584 237.989 240.32 237.15 239.64C234.346 237.366 230.775 236.002 226.884 236.002H226.883Z" fill="url(#paint45_linear_416_244)"/>
<path d="M220.979 246.84C221.642 247.503 222.67 247.577 223.454 247.065C224.44 246.422 225.618 246.046 226.883 246.046C228.148 246.046 229.326 246.42 230.312 247.065C231.096 247.577 232.124 247.503 232.787 246.84L232.796 246.831C233.609 246.019 233.48 244.667 232.532 244.02C230.922 242.923 228.978 242.28 226.883 242.28C224.788 242.28 222.843 242.923 221.234 244.02C220.286 244.668 220.157 246.019 220.97 246.831L220.979 246.84Z" fill="url(#paint46_linear_416_244)"/>
<path d="M200.553 91.1806C200.553 92.6695 199.346 93.8771 197.857 93.8771C196.368 93.8771 195.16 92.6695 195.16 91.1806C195.16 89.6916 196.368 88.4841 197.857 88.4841C199.346 88.4841 200.553 89.6916 200.553 91.1806Z" fill="url(#paint47_linear_416_244)"/>
<path d="M197.858 68.5822C192.224 68.5822 187.074 70.6437 183.117 74.0539C182.305 74.7536 182.247 75.9903 183.005 76.7483L183.081 76.8248C183.755 77.4987 184.839 77.5483 185.56 76.9251C188.859 74.0755 193.156 72.3493 197.858 72.3493C202.56 72.3493 206.856 74.0755 210.155 76.9251C210.876 77.5483 211.96 77.4987 212.634 76.8248L212.71 76.7483C213.468 75.9903 213.41 74.7536 212.598 74.0539C208.641 70.6447 203.491 68.5822 197.858 68.5822Z" fill="url(#paint48_linear_416_244)"/>
<path d="M197.858 74.8593C193.967 74.8593 190.395 76.2232 187.591 78.497C186.753 79.1774 186.699 80.4421 187.463 81.2054L187.476 81.2183C188.146 81.8879 189.205 81.9245 189.943 81.3305C192.109 79.586 194.86 78.5413 197.859 78.5413C200.857 78.5413 203.609 79.5871 205.774 81.3305C206.511 81.9245 207.571 81.8879 208.24 81.2183L208.253 81.2054C209.018 80.441 208.964 79.1774 208.125 78.497C205.321 76.2232 201.75 74.8593 197.859 74.8593H197.858Z" fill="url(#paint49_linear_416_244)"/>
<path d="M191.953 85.697C192.616 86.3601 193.643 86.4345 194.428 85.9224C195.414 85.2787 196.592 84.9035 197.857 84.9035C199.121 84.9035 200.3 85.2776 201.285 85.9224C202.07 86.4345 203.098 86.3601 203.761 85.697L203.769 85.6884C204.582 84.8766 204.454 83.5245 203.505 82.8776C201.895 81.7801 199.952 81.1375 197.857 81.1375C195.762 81.1375 193.817 81.7801 192.208 82.8776C191.259 83.5256 191.131 84.8766 191.944 85.6884L191.953 85.697Z" fill="url(#paint50_linear_416_244)"/>
</g>
<defs>
<linearGradient id="paint0_linear_416_244" x1="58.5403" y1="225.275" x2="180.976" y2="225.275" gradientUnits="userSpaceOnUse">
<stop stop-color="#EE743B"/>
<stop offset="0.89" stop-color="#E9427D"/>
</linearGradient>
<linearGradient id="paint1_linear_416_244" x1="582.399" y1="887.215" x2="668.514" y2="1074.23" gradientUnits="userSpaceOnUse">
<stop stop-color="#EE743B"/>
<stop offset="1" stop-color="#E9427D"/>
</linearGradient>
<linearGradient id="paint2_linear_416_244" x1="75.6163" y1="254.907" x2="159.669" y2="316.016" gradientUnits="userSpaceOnUse">
<stop stop-color="#FBBC33"/>
<stop offset="0.66" stop-color="#F36F56"/>
</linearGradient>
<linearGradient id="paint3_linear_416_244" x1="102.104" y1="66.4679" x2="205.763" y2="95.5482" gradientUnits="userSpaceOnUse">
<stop stop-color="#444B8C"/>
<stop offset="1" stop-color="#26264F"/>
</linearGradient>
<linearGradient id="paint4_linear_416_244" x1="159.158" y1="96.5326" x2="200.417" y2="96.5326" gradientUnits="userSpaceOnUse">
<stop stop-color="#FFC444"/>
<stop offset="1" stop-color="#F36F56"/>
</linearGradient>
<linearGradient id="paint5_linear_416_244" x1="208.904" y1="192.505" x2="198.026" y2="185.226" gradientUnits="userSpaceOnUse">
<stop stop-color="#311944"/>
<stop offset="1" stop-color="#6B3976"/>
</linearGradient>
<linearGradient id="paint6_linear_416_244" x1="208.898" y1="165.986" x2="201.563" y2="165.986" gradientUnits="userSpaceOnUse">
<stop stop-color="#311944"/>
<stop offset="1" stop-color="#6B3976"/>
</linearGradient>
<linearGradient id="paint7_linear_416_244" x1="198.39" y1="125.588" x2="189.457" y2="177.237" gradientUnits="userSpaceOnUse">
<stop stop-color="#07B8AC"/>
<stop offset="0.71" stop-color="#0095C3"/>
</linearGradient>
<linearGradient id="paint8_linear_416_244" x1="185.774" y1="186.8" x2="173.071" y2="146.597" gradientUnits="userSpaceOnUse">
<stop stop-color="#07B8AC"/>
<stop offset="0.81" stop-color="#0095C3"/>
</linearGradient>
<linearGradient id="paint9_linear_416_244" x1="185.773" y1="186.8" x2="173.07" y2="146.597" gradientUnits="userSpaceOnUse">
<stop stop-color="#AB316D"/>
<stop offset="1" stop-color="#792D3D"/>
</linearGradient>
<linearGradient id="paint10_linear_416_244" x1="167.899" y1="120.375" x2="158.986" y2="171.905" gradientUnits="userSpaceOnUse">
<stop stop-color="#07B8AC"/>
<stop offset="0.11" stop-color="#04AAB4"/>
<stop offset="0.27" stop-color="#019EBC"/>
<stop offset="0.49" stop-color="#0097C1"/>
<stop offset="1" stop-color="#0095C3"/>
</linearGradient>
<linearGradient id="paint11_linear_416_244" x1="130.335" y1="107.663" x2="178.507" y2="107.663" gradientUnits="userSpaceOnUse">
<stop stop-color="#FFC444"/>
<stop offset="1" stop-color="#F36F56"/>
</linearGradient>
<linearGradient id="paint12_linear_416_244" x1="130.335" y1="118.717" x2="178.507" y2="118.717" gradientUnits="userSpaceOnUse">
<stop stop-color="#FFC444"/>
<stop offset="1" stop-color="#F36F56"/>
</linearGradient>
<linearGradient id="paint13_linear_416_244" x1="183.162" y1="119.702" x2="148.559" y2="119.702" gradientUnits="userSpaceOnUse">
<stop stop-color="#565656"/>
<stop offset="1" stop-color="#1A1A1A"/>
</linearGradient>
<linearGradient id="paint14_linear_416_244" x1="205.292" y1="97.8738" x2="182.605" y2="120.38" gradientUnits="userSpaceOnUse">
<stop stop-color="#565656"/>
<stop offset="1" stop-color="#1A1A1A"/>
</linearGradient>
<linearGradient id="paint15_linear_416_244" x1="205.292" y1="97.8738" x2="182.604" y2="120.379" gradientUnits="userSpaceOnUse">
<stop stop-color="#565656"/>
<stop offset="1" stop-color="#1A1A1A"/>
</linearGradient>
<linearGradient id="paint16_linear_416_244" x1="118.906" y1="55.7703" x2="149.47" y2="149.004" gradientUnits="userSpaceOnUse">
<stop stop-color="#FFC444"/>
<stop offset="1" stop-color="#F36F56"/>
</linearGradient>
<linearGradient id="paint17_linear_416_244" x1="248.329" y1="264.323" x2="241.957" y2="256.256" gradientUnits="userSpaceOnUse">
<stop stop-color="#07B8AC"/>
<stop offset="1" stop-color="#0095C3"/>
</linearGradient>
<linearGradient id="paint18_linear_416_244" x1="186.354" y1="339.255" x2="196.096" y2="343.122" gradientUnits="userSpaceOnUse">
<stop stop-color="#444B8C"/>
<stop offset="1" stop-color="#26264F"/>
</linearGradient>
<linearGradient id="paint19_linear_416_244" x1="192.367" y1="341.5" x2="199.359" y2="334.129" gradientUnits="userSpaceOnUse">
<stop stop-color="#FFC444"/>
<stop offset="1" stop-color="#F36F56"/>
</linearGradient>
<linearGradient id="paint20_linear_416_244" x1="201.866" y1="344.686" x2="211.607" y2="348.553" gradientUnits="userSpaceOnUse">
<stop stop-color="#444B8C"/>
<stop offset="1" stop-color="#26264F"/>
</linearGradient>
<linearGradient id="paint21_linear_416_244" x1="207.877" y1="346.932" x2="214.869" y2="339.562" gradientUnits="userSpaceOnUse">
<stop stop-color="#FFC444"/>
<stop offset="1" stop-color="#F36F56"/>
</linearGradient>
<linearGradient id="paint22_linear_416_244" x1="283.97" y1="302.852" x2="257.82" y2="269.74" gradientUnits="userSpaceOnUse">
<stop stop-color="#07B8AC"/>
<stop offset="1" stop-color="#0095C3"/>
</linearGradient>
<linearGradient id="paint23_linear_416_244" x1="283.967" y1="301.818" x2="258.673" y2="269.791" gradientUnits="userSpaceOnUse">
<stop stop-color="#AA80F9"/>
<stop offset="1" stop-color="#6165D7"/>
</linearGradient>
<linearGradient id="paint24_linear_416_244" x1="298.446" y1="288.684" x2="272.473" y2="255.796" gradientUnits="userSpaceOnUse">
<stop stop-color="#07B8AC"/>
<stop offset="1" stop-color="#0095C3"/>
</linearGradient>
<linearGradient id="paint25_linear_416_244" x1="242.899" y1="338.838" x2="212.773" y2="290.663" gradientUnits="userSpaceOnUse">
<stop stop-color="#444B8C"/>
<stop offset="1" stop-color="#26264F"/>
</linearGradient>
<linearGradient id="paint26_linear_416_244" x1="226.561" y1="295.608" x2="262.222" y2="345.061" gradientUnits="userSpaceOnUse">
<stop stop-color="#444B8C"/>
<stop offset="1" stop-color="#26264F"/>
</linearGradient>
<linearGradient id="paint27_linear_416_244" x1="245.584" y1="310.512" x2="251.32" y2="294.26" gradientUnits="userSpaceOnUse">
<stop stop-color="#565656"/>
<stop offset="1" stop-color="#1A1A1A"/>
</linearGradient>
<linearGradient id="paint28_linear_416_244" x1="270.643" y1="286.965" x2="268.539" y2="301.496" gradientUnits="userSpaceOnUse">
<stop stop-color="#565656"/>
<stop offset="1" stop-color="#1A1A1A"/>
</linearGradient>
<linearGradient id="paint29_linear_416_244" x1="259.387" y1="290.149" x2="271.274" y2="290.149" gradientUnits="userSpaceOnUse">
<stop stop-color="#FFC444"/>
<stop offset="1" stop-color="#F36F56"/>
</linearGradient>
<linearGradient id="paint30_linear_416_244" x1="228.967" y1="288.238" x2="240.151" y2="272.357" gradientUnits="userSpaceOnUse">
<stop stop-color="#565656"/>
<stop offset="1" stop-color="#1A1A1A"/>
</linearGradient>
<linearGradient id="paint31_linear_416_244" x1="204.21" y1="281.942" x2="262.375" y2="281.942" gradientUnits="userSpaceOnUse">
<stop stop-color="#4C4C4C"/>
<stop offset="0.99" stop-color="#363636"/>
</linearGradient>
<linearGradient id="paint32_linear_416_244" x1="262.375" y1="282.612" x2="208.608" y2="282.612" gradientUnits="userSpaceOnUse">
<stop stop-color="#311944"/>
<stop offset="1" stop-color="#893976"/>
</linearGradient>
<linearGradient id="paint33_linear_416_244" x1="257.094" y1="238.921" x2="278.36" y2="238.921" gradientUnits="userSpaceOnUse">
<stop stop-color="#FFC444"/>
<stop offset="1" stop-color="#F36F56"/>
</linearGradient>
<linearGradient id="paint34_linear_416_244" x1="274.263" y1="245.379" x2="261.42" y2="227.625" gradientUnits="userSpaceOnUse">
<stop stop-color="#444B8C"/>
<stop offset="1" stop-color="#26264F"/>
</linearGradient>
<linearGradient id="paint35_linear_416_244" x1="259.029" y1="236.271" x2="269.406" y2="236.271" gradientUnits="userSpaceOnUse">
<stop stop-color="#FFC444"/>
<stop offset="1" stop-color="#F36F56"/>
</linearGradient>
<linearGradient id="paint36_linear_416_244" x1="272.13" y1="246.934" x2="259.274" y2="229.162" gradientUnits="userSpaceOnUse">
<stop stop-color="#444B8C"/>
<stop offset="1" stop-color="#26264F"/>
</linearGradient>
<linearGradient id="paint37_linear_416_244" x1="266.249" y1="93.5127" x2="293.231" y2="163.009" gradientUnits="userSpaceOnUse">
<stop stop-color="#07B8AC"/>
<stop offset="1" stop-color="#0095C3"/>
</linearGradient>
<linearGradient id="paint38_linear_416_244" x1="256.589" y1="97.2625" x2="283.57" y2="166.76" gradientUnits="userSpaceOnUse">
<stop stop-color="#AA80F9"/>
<stop offset="1" stop-color="#6165D7"/>
</linearGradient>
<linearGradient id="paint39_linear_416_244" x1="276.728" y1="146.822" x2="259.205" y2="173.42" gradientUnits="userSpaceOnUse">
<stop stop-color="#07B8AC"/>
<stop offset="1" stop-color="#0095C3"/>
</linearGradient>
<linearGradient id="paint40_linear_416_244" x1="153.365" y1="183.032" x2="180.346" y2="252.528" gradientUnits="userSpaceOnUse">
<stop stop-color="#EE743B"/>
<stop offset="0.2" stop-color="#EC6251"/>
<stop offset="0.47" stop-color="#EA5069"/>
<stop offset="0.72" stop-color="#E94577"/>
<stop offset="0.93" stop-color="#E9427D"/>
</linearGradient>
<linearGradient id="paint41_linear_416_244" x1="143.704" y1="186.782" x2="170.686" y2="256.279" gradientUnits="userSpaceOnUse">
<stop stop-color="#FF9085"/>
<stop offset="1" stop-color="#FB6FBB"/>
</linearGradient>
<linearGradient id="paint42_linear_416_244" x1="163.811" y1="236.334" x2="146.287" y2="262.932" gradientUnits="userSpaceOnUse">
<stop stop-color="#EE743B"/>
<stop offset="0.2" stop-color="#EC6251"/>
<stop offset="0.47" stop-color="#EA5069"/>
<stop offset="0.72" stop-color="#E94577"/>
<stop offset="0.93" stop-color="#E9427D"/>
</linearGradient>
<linearGradient id="paint43_linear_416_244" x1="224.202" y1="252.329" x2="229.594" y2="252.329" gradientUnits="userSpaceOnUse">
<stop stop-color="#07B8AC"/>
<stop offset="1" stop-color="#0095C3"/>
</linearGradient>
<linearGradient id="paint44_linear_416_244" x1="211.497" y1="234.115" x2="242.271" y2="234.115" gradientUnits="userSpaceOnUse">
<stop stop-color="#07B8AC"/>
<stop offset="1" stop-color="#0095C3"/>
</linearGradient>
<linearGradient id="paint45_linear_416_244" x1="215.949" y1="239.448" x2="237.818" y2="239.448" gradientUnits="userSpaceOnUse">
<stop stop-color="#07B8AC"/>
<stop offset="1" stop-color="#0095C3"/>
</linearGradient>
<linearGradient id="paint46_linear_416_244" x1="220.434" y1="244.84" x2="233.333" y2="244.84" gradientUnits="userSpaceOnUse">
<stop stop-color="#07B8AC"/>
<stop offset="1" stop-color="#0095C3"/>
</linearGradient>
<linearGradient id="paint47_linear_416_244" x1="189.002" y1="15.7682" x2="208.071" y2="178.148" gradientUnits="userSpaceOnUse">
<stop stop-color="#07B8AC"/>
<stop offset="1" stop-color="#0095C3"/>
</linearGradient>
<linearGradient id="paint48_linear_416_244" x1="190.823" y1="15.5547" x2="209.892" y2="177.934" gradientUnits="userSpaceOnUse">
<stop stop-color="#07B8AC"/>
<stop offset="1" stop-color="#0095C3"/>
</linearGradient>
<linearGradient id="paint49_linear_416_244" x1="190.307" y1="15.6151" x2="209.377" y2="177.995" gradientUnits="userSpaceOnUse">
<stop stop-color="#07B8AC"/>
<stop offset="1" stop-color="#0095C3"/>
</linearGradient>
<linearGradient id="paint50_linear_416_244" x1="189.788" y1="15.6755" x2="208.857" y2="178.056" gradientUnits="userSpaceOnUse">
<stop stop-color="#07B8AC"/>
<stop offset="1" stop-color="#0095C3"/>
</linearGradient>
<clipPath id="clip0_416_244">
<rect width="400" height="400" fill="white"/>
</clipPath>
</defs>
</svg>
