<svg width="800" height="656" viewBox="0 0 800 656" fill="none" xmlns="http://www.w3.org/2000/svg">
<path d="M736.316 120.413C809.331 185.916 748.025 262.157 768.241 304.475C807.596 386.861 732.354 429.974 715.749 461.354C699.144 492.734 619.779 572.401 529.187 524.194C405.53 458.394 419.673 541.376 299.528 496.588C246.154 476.69 151.089 376.973 208.463 299.084C255.437 235.312 242.396 194.072 234.527 168.432C226.658 142.796 238.518 70.2869 296.968 61.8862C359.982 52.8281 369.701 14.7055 454.694 29.4351C537.154 43.7252 541.912 79.5158 582.907 78.4188C623.904 77.3217 650.384 43.3212 736.316 120.413Z" fill="#F4F2F2"/>
<g clip-path="url(#clip0_2306_223)">
<path d="M73.9353 637.779L72.3368 636.43C71.8433 636.017 71.8212 635.177 72.2853 634.551C72.7493 633.924 73.5228 633.755 74.0089 634.175C74.0089 634.175 74.0089 634.175 74.0163 634.175L74.0384 634.189L75.5853 635.538L75.6 635.553C76.0788 635.973 76.0935 636.799 75.6295 637.41C75.1728 638.015 74.4141 638.169 73.9353 637.771V637.779Z" fill="#CCCCCC"/>
<path d="M68.7053 633.172L67.1879 631.721C66.7017 631.256 66.7238 630.372 67.2321 629.745C67.7404 629.119 68.5433 628.994 69.0294 629.458C69.0294 629.458 69.0294 629.458 69.0368 629.458L69.0589 629.473L70.5247 630.925L70.5395 630.939C71.0109 631.404 70.9814 632.281 70.4732 632.892C69.9723 633.497 69.1841 633.615 68.7127 633.165L68.7053 633.172Z" fill="#CCCCCC"/>
<path d="M63.7555 628.205L62.3264 626.65C61.855 626.134 61.9139 625.205 62.4738 624.586C63.0262 623.967 63.866 623.879 64.3374 624.395C64.3374 624.395 64.3374 624.395 64.3374 624.402L64.3595 624.424L65.7369 625.979L65.7517 625.994C66.2157 626.517 66.1347 627.431 65.5823 628.035C65.0298 628.64 64.2195 628.714 63.7555 628.205Z" fill="#CCCCCC"/>
<path d="M59.1002 622.884L57.7669 621.218C57.3102 620.643 57.4207 619.685 58.0247 619.066C58.6287 618.454 59.4906 618.417 59.9472 618.992C59.9472 618.992 59.9472 618.992 59.9472 619L59.962 619.022L61.2437 620.673L61.2584 620.687C61.7077 621.262 61.5752 622.213 60.9785 622.817C60.3819 623.414 59.5421 623.437 59.0928 622.876L59.1002 622.884Z" fill="#CCCCCC"/>
<path d="M54.7908 617.216L53.568 615.447C53.1334 614.821 53.3102 613.833 53.9584 613.243C54.6066 612.654 55.4758 612.676 55.9104 613.302L55.9251 613.332L57.1037 615.079L57.1184 615.101C57.5383 615.727 57.3615 616.707 56.7207 617.29C56.0798 617.872 55.218 617.835 54.7908 617.223V617.216Z" fill="#CCCCCC"/>
<path d="M50.8425 611.187L49.7303 609.315C49.3325 608.644 49.5608 607.642 50.2459 607.075C50.9309 606.507 51.8075 606.603 52.2053 607.274L52.22 607.303L53.2881 609.138L53.3028 609.16C53.6932 609.831 53.4575 610.833 52.7724 611.386C52.0948 611.939 51.2256 611.843 50.8352 611.18L50.8425 611.187Z" fill="#CCCCCC"/>
<path d="M47.2848 604.834L46.2977 602.866C45.9368 602.144 46.2314 601.127 46.9533 600.596C47.6752 600.066 48.5518 600.22 48.9201 600.943L48.9348 600.98L49.8777 602.911L49.8924 602.933C50.246 603.655 49.9513 604.665 49.2294 605.188C48.5149 605.704 47.6457 605.549 47.2848 604.834Z" fill="#CCCCCC"/>
<path d="M44.1469 598.157L43.2924 596.093C42.9757 595.319 43.3293 594.302 44.0953 593.808C44.854 593.315 45.7306 593.543 46.0473 594.317V594.332L46.0621 594.361L46.8723 596.381L46.8871 596.41C47.1964 597.184 46.8355 598.194 46.0768 598.68C45.3255 599.159 44.4636 598.931 44.1469 598.164V598.157Z" fill="#CCCCCC"/>
<path d="M41.473 591.17L40.7658 589.018C40.4933 588.2 40.9205 587.175 41.7161 586.733C42.5116 586.291 43.3734 586.593 43.646 587.418V587.433L43.6607 587.463L44.331 589.563V589.593C44.6036 590.411 44.169 591.428 43.3808 591.863C42.5926 592.298 41.7382 591.988 41.473 591.177V591.17Z" fill="#CCCCCC"/>
<path d="M39.2927 583.895L38.7402 581.662C38.5266 580.793 39.0275 579.775 39.8525 579.392C40.6849 579.002 41.5246 579.392 41.7456 580.255V580.269L41.7603 580.306L42.2759 582.48V582.517C42.4895 583.379 41.9887 584.389 41.1637 584.772C40.3386 585.148 39.5063 584.765 39.3 583.91L39.2927 583.895Z" fill="#CCCCCC"/>
<path d="M37.6426 576.356L37.2522 574.049C37.0975 573.135 37.6721 572.133 38.5339 571.808C39.3957 571.484 40.2134 571.956 40.3681 572.862V572.877L40.3754 572.914L40.7364 575.154V575.191C40.8911 576.098 40.3091 577.093 39.4547 577.41C38.6002 577.727 37.7973 577.255 37.6426 576.356Z" fill="#CCCCCC"/>
<path d="M36.5452 568.588L36.3316 566.222C36.2432 565.271 36.8914 564.291 37.7753 564.033C38.6592 563.775 39.4474 564.335 39.5358 565.286V565.301V565.345L39.7273 567.637V567.681C39.8083 568.632 39.1601 569.597 38.2762 569.848C37.3996 570.099 36.6262 569.539 36.5378 568.603L36.5452 568.588Z" fill="#CCCCCC"/>
<path d="M36.0368 560.635L36 558.218C35.9852 557.23 36.7071 556.279 37.6132 556.095C38.5192 555.911 39.2632 556.56 39.2779 557.547V557.562V557.606L39.2926 559.935V559.979C39.3 560.96 38.5781 561.903 37.6794 562.08C36.7808 562.257 36.0515 561.608 36.0368 560.635Z" fill="#CCCCCC"/>
<path d="M36.1252 552.55L36.2726 550.103C36.3315 549.086 37.127 548.18 38.0478 548.077C38.9686 547.973 39.661 548.71 39.602 549.727V549.742V549.786L39.4474 552.145V552.189C39.3737 553.199 38.5782 554.098 37.6648 554.194C36.7587 554.29 36.0737 553.553 36.1326 552.55H36.1252Z" fill="#CCCCCC"/>
<path d="M36.8249 544.384L37.149 541.93C37.2816 540.891 38.1434 540.028 39.0716 540.006C39.9997 539.984 40.6405 540.802 40.5006 541.841V541.856L40.4932 541.9L40.1691 544.266V544.31C40.0218 545.342 39.16 546.197 38.2392 546.212C37.3258 546.227 36.6923 545.408 36.8249 544.384Z" fill="#CCCCCC"/>
<path d="M38.0919 536.196L38.578 533.741C38.7916 532.687 39.7124 531.877 40.6405 531.936C41.5687 531.995 42.1506 532.894 41.9443 533.948V533.962L41.9296 534.007L41.4434 536.372V536.417C41.2151 537.463 40.2943 538.267 39.3736 538.2C38.4528 538.134 37.8856 537.242 38.0919 536.196Z" fill="#CCCCCC"/>
<path d="M39.9041 528.044L40.5523 525.612C40.8322 524.544 41.8193 523.792 42.7401 523.932C43.6682 524.064 44.1912 525.045 43.9039 526.106V526.121L43.8892 526.165L43.2483 528.516L43.2336 528.56C42.9463 529.622 41.9666 530.359 41.0459 530.219C40.1325 530.079 39.6168 529.106 39.8967 528.052L39.9041 528.044Z" fill="#CCCCCC"/>
<path d="M42.2465 519.967L43.042 517.564C43.3956 516.51 44.4121 515.825 45.3182 516.038C46.2242 516.252 46.6735 517.284 46.3273 518.338L46.3126 518.382L45.5391 520.704L45.5244 520.74C45.1708 521.794 44.1543 522.48 43.2483 522.259C42.3423 522.045 41.8929 521.013 42.2465 519.959V519.967Z" fill="#CCCCCC"/>
<path d="M45.0676 511.999L45.9957 509.634C46.4082 508.587 47.4616 507.975 48.3455 508.255C49.2295 508.543 49.6125 509.619 49.2 510.665L49.1853 510.702L48.2792 512.994L48.2645 513.031C47.852 514.078 46.7986 514.69 45.9147 514.402C45.0308 514.115 44.6477 513.039 45.0602 511.999H45.0676Z" fill="#CCCCCC"/>
<path d="M48.3088 504.18L49.3621 501.865C49.8262 500.834 50.909 500.288 51.7708 500.635C52.6327 500.981 52.9494 502.101 52.4853 503.133L52.4706 503.17L51.4467 505.418L51.432 505.455C50.9606 506.479 49.8851 507.032 49.0233 506.678C48.1614 506.324 47.8447 505.211 48.3161 504.187L48.3088 504.18Z" fill="#CCCCCC"/>
<path d="M51.9476 496.515L53.1114 494.252C53.6271 493.242 54.732 492.756 55.5643 493.161C56.4041 493.574 56.6619 494.724 56.1389 495.733L56.1242 495.77L54.9898 497.974L54.975 498.003C54.4521 499.013 53.3545 499.499 52.5221 499.087C51.6898 498.674 51.432 497.524 51.9476 496.515Z" fill="#CCCCCC"/>
<path d="M55.94 489.027L57.1996 486.816C57.7668 485.821 58.879 485.401 59.6893 485.865C60.4996 486.329 60.6985 487.516 60.1313 488.503L60.1166 488.533L58.8864 490.685L58.8717 490.714C58.3045 491.702 57.1922 492.13 56.3819 491.658C55.5717 491.194 55.3728 490.014 55.94 489.019V489.027Z" fill="#CCCCCC"/>
<path d="M60.249 481.723L61.597 479.571C62.2084 478.598 63.3354 478.237 64.1162 478.752C64.897 479.268 65.0443 480.477 64.433 481.45L64.4182 481.479L63.0997 483.58L63.085 483.609C62.4736 484.575 61.3466 484.943 60.5658 484.42C59.785 483.897 59.645 482.695 60.249 481.73V481.723Z" fill="#CCCCCC"/>
<path d="M64.8456 474.611L66.282 472.51C66.9303 471.559 68.0646 471.257 68.8233 471.817C69.582 472.385 69.6704 473.608 69.0222 474.559L69.0075 474.589L67.6006 476.637L67.5858 476.66C66.9376 477.603 65.8032 477.912 65.0445 477.345C64.2932 476.777 64.2048 475.554 64.853 474.611H64.8456Z" fill="#CCCCCC"/>
<path d="M69.7073 467.697L71.21 465.663C71.895 464.742 73.0368 464.484 73.766 465.096C74.4953 465.707 74.5321 466.953 73.8471 467.874L73.8323 467.896L72.3591 469.886L72.3444 469.908C71.6593 470.83 70.5176 471.08 69.7883 470.469C69.0591 469.857 69.0223 468.619 69.7073 467.69V467.697Z" fill="#CCCCCC"/>
<path d="M74.8045 460.991L76.3734 459.015C77.0879 458.116 78.2444 457.917 78.9442 458.566C79.644 459.222 79.6292 460.482 78.9147 461.381L78.9 461.403L77.3605 463.334L77.3458 463.356C76.6312 464.256 75.4821 464.455 74.7824 463.799C74.0826 463.143 74.0973 461.89 74.8118 460.991H74.8045Z" fill="#CCCCCC"/>
<path d="M80.1154 454.482L81.7507 452.574C82.502 451.697 83.6512 451.549 84.3288 452.242C84.9991 452.935 84.9402 454.21 84.1889 455.079L84.1741 455.102L82.5683 456.974L82.5536 456.996C81.8023 457.873 80.6532 458.013 79.9828 457.32C79.3125 456.627 79.3715 455.36 80.1228 454.482H80.1154Z" fill="#CCCCCC"/>
<path d="M85.6327 448.189L87.3269 446.339C88.1077 445.491 89.2568 445.388 89.9051 446.118C90.5533 446.847 90.4428 448.13 89.662 448.977L89.6472 448.999L87.9825 450.812L87.9678 450.827C87.187 451.675 86.0379 451.77 85.397 451.041C84.7562 450.311 84.8593 449.036 85.6401 448.181L85.6327 448.189Z" fill="#CCCCCC"/>
<path d="M91.334 442.101L93.0724 440.317C93.8753 439.492 95.0318 439.44 95.6505 440.207C96.2693 440.973 96.1146 442.263 95.3117 443.088L95.297 443.11L93.5807 444.865L93.5659 444.879C92.763 445.705 91.6065 445.749 90.9952 444.982C90.3764 444.216 90.5311 442.934 91.334 442.108V442.101Z" fill="#CCCCCC"/>
<path d="M97.1901 436.212L98.9801 434.487C99.8125 433.684 100.962 433.684 101.551 434.48C102.14 435.276 101.949 436.573 101.116 437.369L101.102 437.384L99.341 439.079L99.3263 439.094C98.4939 439.89 97.3448 439.89 96.7556 439.094C96.1663 438.298 96.3578 437.008 97.1901 436.204V436.212Z" fill="#CCCCCC"/>
<path d="M103.201 430.537L105.035 428.871C105.889 428.097 107.038 428.142 107.598 428.967C108.158 429.793 107.93 431.09 107.075 431.871L107.061 431.886L105.263 433.515L105.249 433.529C104.394 434.303 103.252 434.259 102.685 433.426C102.125 432.601 102.361 431.304 103.208 430.53L103.201 430.537Z" fill="#CCCCCC"/>
<path d="M109.352 425.068L111.222 423.469C112.099 422.725 113.241 422.813 113.779 423.668C114.316 424.523 114.036 425.827 113.16 426.572L113.145 426.587L111.304 428.156L111.289 428.171C110.412 428.915 109.27 428.827 108.74 427.965C108.21 427.11 108.482 425.813 109.359 425.061L109.352 425.068Z" fill="#CCCCCC"/>
<path d="M115.642 419.806L117.55 418.273C118.449 417.551 119.583 417.683 120.091 418.575C120.599 419.46 120.283 420.764 119.384 421.486L119.369 421.501L117.491 423.005L117.476 423.019C116.578 423.734 115.443 423.602 114.942 422.717C114.441 421.833 114.751 420.536 115.649 419.813L115.642 419.806Z" fill="#CCCCCC"/>
<path d="M122.051 414.765L123.995 413.298C124.916 412.605 126.043 412.782 126.522 413.696C127.001 414.61 126.64 415.914 125.726 416.6L125.712 416.615L123.796 418.052L123.782 418.066C122.868 418.759 121.734 418.575 121.262 417.661C120.791 416.747 121.145 415.45 122.058 414.757L122.051 414.765Z" fill="#CCCCCC"/>
<path d="M128.584 409.952L130.566 408.552C131.501 407.896 132.614 408.117 133.056 409.06C133.498 409.996 133.1 411.293 132.164 411.949H132.15L130.205 413.335L130.19 413.35C129.255 414.013 128.135 413.785 127.693 412.849C127.244 411.913 127.641 410.615 128.577 409.952H128.584Z" fill="#CCCCCC"/>
<path d="M135.229 405.375L137.24 404.048C138.182 403.422 139.28 403.695 139.692 404.653C140.098 405.611 139.67 406.886 138.72 407.512H138.705L136.731 408.832L136.717 408.846C135.774 409.473 134.676 409.208 134.264 408.249C133.851 407.291 134.286 406.009 135.229 405.382V405.375Z" fill="#CCCCCC"/>
<path d="M141.969 401.019L144.009 399.759C144.959 399.169 146.035 399.479 146.41 400.452C146.786 401.425 146.315 402.685 145.364 403.275H145.35L143.346 404.528H143.331C142.381 405.132 141.298 404.822 140.923 403.85C140.547 402.877 141.011 401.609 141.961 401.019H141.969Z" fill="#CCCCCC"/>
<path d="M148.812 396.907L150.881 395.72C151.839 395.167 152.892 395.521 153.239 396.509C153.577 397.496 153.077 398.742 152.119 399.295H152.104L150.071 400.474H150.056C149.099 401.041 148.038 400.688 147.692 399.707C147.346 398.72 147.847 397.474 148.812 396.914V396.907Z" fill="#CCCCCC"/>
<path d="M155.728 393.03L157.82 391.917C158.785 391.401 159.817 391.792 160.126 392.794C160.435 393.797 159.898 395.02 158.933 395.536H158.918L156.863 396.649H156.848C155.883 397.18 154.845 396.789 154.535 395.787C154.226 394.784 154.756 393.553 155.728 393.037V393.03Z" fill="#CCCCCC"/>
<path d="M162.726 389.389L164.84 388.343C165.813 387.864 166.822 388.291 167.094 389.301C167.367 390.31 166.8 391.519 165.827 391.998H165.813L163.735 393.037H163.721C162.748 393.531 161.739 393.104 161.459 392.087C161.187 391.077 161.747 389.868 162.719 389.382L162.726 389.389Z" fill="#CCCCCC"/>
<path d="M169.79 385.999L171.919 385.033C172.891 384.591 173.879 385.056 174.114 386.08C174.35 387.104 173.753 388.291 172.781 388.733H172.766L170.674 389.699H170.66C169.687 390.156 168.7 389.684 168.457 388.667C168.214 387.642 168.811 386.456 169.783 386.014L169.79 385.999Z" fill="#CCCCCC"/>
<path d="M176.913 382.859L179.064 381.967C180.044 381.562 181.002 382.063 181.208 383.095C181.414 384.127 180.788 385.291 179.808 385.697H179.794L177.687 386.588H177.672C176.692 387.009 175.735 386.5 175.529 385.468C175.322 384.436 175.948 383.272 176.921 382.859H176.913Z" fill="#CCCCCC"/>
<path d="M184.088 379.97L186.246 379.152C187.226 378.784 188.154 379.322 188.331 380.361C188.5 381.4 187.845 382.542 186.865 382.911H186.85L184.729 383.722H184.714C183.734 384.098 182.799 383.56 182.629 382.52C182.453 381.481 183.108 380.339 184.088 379.963V379.97Z" fill="#CCCCCC"/>
<path d="M191.307 377.346L193.48 376.609C194.459 376.278 195.365 376.852 195.498 377.899C195.638 378.946 194.953 380.058 193.973 380.39H193.958L191.822 381.127H191.807C190.828 381.466 189.922 380.891 189.782 379.852C189.642 378.806 190.327 377.685 191.307 377.354V377.346Z" fill="#CCCCCC"/>
<path d="M198.562 374.973L200.743 374.317C201.722 374.022 202.599 374.634 202.702 375.681C202.805 376.727 202.098 377.818 201.118 378.113H201.104L198.96 378.769H198.945C197.966 379.071 197.089 378.459 196.978 377.413C196.875 376.359 197.583 375.268 198.562 374.973Z" fill="#CCCCCC"/>
<path d="M205.84 372.873L208.028 372.298C209 372.04 209.847 372.688 209.921 373.735C209.987 374.789 209.258 375.85 208.278 376.108H208.263L206.112 376.683H206.098C205.118 376.948 204.271 376.307 204.197 375.253C204.124 374.199 204.86 373.131 205.832 372.873H205.84Z" fill="#CCCCCC"/>
<path d="M213.14 371.045L215.335 370.551C216.307 370.33 217.125 371.008 217.162 372.062C217.199 373.116 216.44 374.155 215.468 374.376H215.453L213.295 374.87H213.28C212.307 375.098 211.482 374.42 211.446 373.366C211.409 372.313 212.168 371.273 213.14 371.045Z" fill="#CCCCCC"/>
<path d="M220.447 369.482L222.642 369.07C223.607 368.885 224.395 369.6 224.395 370.654C224.395 371.716 223.614 372.718 222.642 372.902H222.627L220.469 373.315H220.454C219.482 373.507 218.694 372.799 218.694 371.738C218.694 370.676 219.475 369.667 220.44 369.482H220.447Z" fill="#CCCCCC"/>
<path d="M227.754 368.207L229.949 367.876C230.914 367.728 231.665 368.473 231.636 369.526C231.606 370.588 230.796 371.561 229.839 371.701H229.824L227.666 372.032H227.651C226.686 372.18 225.927 371.443 225.957 370.381C225.986 369.32 226.789 368.347 227.754 368.2V368.207Z" fill="#CCCCCC"/>
<path d="M235.054 367.205L237.241 366.962C238.199 366.859 238.921 367.625 238.855 368.686C238.788 369.74 237.963 370.684 237.006 370.794H236.991L234.84 371.045H234.818C233.86 371.155 233.139 370.389 233.197 369.328C233.264 368.266 234.089 367.323 235.046 367.212L235.054 367.205Z" fill="#CCCCCC"/>
<path d="M242.346 366.497L244.526 366.343C245.477 366.276 246.162 367.072 246.059 368.126C245.956 369.18 245.108 370.094 244.166 370.16H244.151L242.007 370.323H241.993C241.042 370.396 240.35 369.593 240.453 368.539C240.549 367.485 241.396 366.571 242.346 366.497Z" fill="#CCCCCC"/>
<path d="M249.602 366.077L251.775 366.004C252.71 365.974 253.366 366.8 253.233 367.854C253.101 368.908 252.231 369.777 251.296 369.814H251.281L249.145 369.888H249.13C248.187 369.925 247.532 369.099 247.665 368.045C247.797 366.991 248.659 366.114 249.602 366.077Z" fill="#CCCCCC"/>
<path d="M256.828 365.937H258.986C259.914 365.952 260.533 366.8 260.371 367.846C260.209 368.893 259.325 369.733 258.397 369.733H258.382H256.254H256.239C255.311 369.733 254.685 368.885 254.847 367.839C255.009 366.792 255.893 365.945 256.821 365.945L256.828 365.937Z" fill="#CCCCCC"/>
<path d="M264.002 366.055L266.146 366.136C267.067 366.173 267.656 367.043 267.465 368.082C267.273 369.121 266.374 369.932 265.461 369.895H265.454L263.34 369.821H263.325C262.404 369.785 261.807 368.915 261.999 367.876C262.183 366.836 263.082 366.018 264.002 366.048V366.055Z" fill="#CCCCCC"/>
<path d="M271.14 366.416L273.269 366.571C274.175 366.638 274.735 367.529 274.521 368.561C274.308 369.593 273.394 370.374 272.488 370.315H272.481L270.374 370.168H270.36C269.454 370.102 268.886 369.217 269.1 368.178C269.314 367.146 270.22 366.357 271.133 366.416H271.14Z" fill="#CCCCCC"/>
<path d="M278.219 366.999L280.333 367.212C281.232 367.308 281.762 368.207 281.526 369.232C281.291 370.256 280.37 371.015 279.471 370.92H279.464L277.372 370.713H277.357C276.459 370.625 275.921 369.718 276.157 368.694C276.392 367.669 277.313 366.91 278.212 366.999H278.219Z" fill="#CCCCCC"/>
<path d="M285.254 367.795L287.353 368.067C288.237 368.185 288.745 369.099 288.488 370.116C288.23 371.133 287.302 371.863 286.418 371.745L284.34 371.48H284.326C283.434 371.362 282.926 370.448 283.184 369.431C283.442 368.414 284.37 367.677 285.254 367.795Z" fill="#CCCCCC"/>
<path d="M292.229 368.782L294.314 369.114C295.191 369.254 295.677 370.182 295.397 371.192C295.124 372.202 294.189 372.902 293.312 372.769L291.25 372.445H291.242C290.366 372.305 289.88 371.376 290.152 370.367C290.425 369.357 291.36 368.649 292.237 368.782H292.229Z" fill="#CCCCCC"/>
<path d="M299.161 369.932L301.231 370.308C302.093 370.463 302.557 371.406 302.269 372.401C301.975 373.403 301.039 374.081 300.177 373.927L298.122 373.558H298.115C297.246 373.403 296.782 372.46 297.069 371.465C297.356 370.463 298.299 369.777 299.161 369.932Z" fill="#CCCCCC"/>
<path d="M306.041 371.244L308.096 371.664C308.951 371.841 309.393 372.784 309.091 373.772C308.781 374.759 307.846 375.423 306.991 375.246L304.951 374.833H304.944C304.089 374.656 303.64 373.713 303.942 372.725C304.244 371.73 305.187 371.067 306.041 371.244Z" fill="#CCCCCC"/>
<path d="M312.877 372.696L314.917 373.153C315.764 373.344 316.191 374.295 315.867 375.275C315.551 376.256 314.608 376.897 313.761 376.713L311.728 376.263C310.881 376.071 310.453 375.128 310.77 374.14C311.087 373.153 312.03 372.512 312.877 372.696Z" fill="#CCCCCC"/>
<path d="M319.676 374.258L321.709 374.752C322.541 374.951 322.954 375.909 322.629 376.882C322.305 377.855 321.362 378.481 320.523 378.282L318.504 377.803C317.665 377.604 317.252 376.646 317.576 375.673C317.9 374.7 318.843 374.067 319.683 374.266L319.676 374.258Z" fill="#CCCCCC"/>
<path d="M326.43 375.931L328.448 376.447C329.273 376.661 329.671 377.612 329.34 378.577C329.001 379.543 328.065 380.154 327.233 379.941L325.222 379.432C324.397 379.218 323.992 378.268 324.323 377.295C324.655 376.329 325.598 375.71 326.43 375.924V375.931Z" fill="#CCCCCC"/>
<path d="M333.156 377.685L335.167 378.223C335.984 378.444 336.375 379.395 336.028 380.361C335.69 381.319 334.747 381.916 333.929 381.695L331.925 381.164C331.108 380.943 330.717 379.992 331.056 379.027C331.395 378.069 332.338 377.464 333.156 377.685Z" fill="#CCCCCC"/>
<path d="M339.851 379.513L341.855 380.073C342.665 380.302 343.041 381.252 342.695 382.203C342.348 383.154 341.413 383.744 340.603 383.515L338.599 382.962C337.781 382.741 337.406 381.783 337.745 380.832C338.083 379.882 339.026 379.285 339.837 379.506L339.851 379.513Z" fill="#CCCCCC"/>
<path d="M346.525 381.392L348.521 381.967C349.324 382.196 349.692 383.147 349.346 384.097C349 385.041 348.064 385.623 347.261 385.387L345.265 384.82C344.455 384.591 344.087 383.64 344.433 382.697C344.779 381.754 345.714 381.164 346.517 381.392H346.525Z" fill="#CCCCCC"/>
<path d="M353.177 383.309L355.173 383.891C355.968 384.127 356.337 385.07 355.983 386.014C355.637 386.95 354.709 387.525 353.906 387.289L351.91 386.714C351.107 386.485 350.738 385.535 351.085 384.591C351.431 383.648 352.359 383.073 353.162 383.302L353.177 383.309Z" fill="#CCCCCC"/>
<path d="M359.82 385.255L361.809 385.837C362.605 386.073 362.966 387.016 362.612 387.945C362.266 388.873 361.338 389.448 360.55 389.212L358.554 388.63C357.758 388.402 357.397 387.451 357.743 386.522C358.089 385.586 359.018 385.019 359.813 385.247L359.82 385.255Z" fill="#CCCCCC"/>
<path d="M366.457 387.208L368.446 387.79C369.234 388.018 369.595 388.962 369.249 389.89C368.903 390.819 367.982 391.379 367.194 391.151L365.198 390.568C364.41 390.34 364.049 389.397 364.387 388.468C364.734 387.539 365.654 386.972 366.443 387.2L366.457 387.208Z" fill="#CCCCCC"/>
<path d="M373.094 389.146L375.083 389.728C375.871 389.957 376.225 390.885 375.886 391.807C375.547 392.728 374.634 393.295 373.846 393.067L371.85 392.492C371.061 392.264 370.7 391.335 371.047 390.406C371.385 389.485 372.306 388.918 373.087 389.146H373.094Z" fill="#CCCCCC"/>
<path d="M379.739 391.077L381.735 391.645C382.516 391.866 382.877 392.794 382.538 393.708C382.199 394.629 381.293 395.19 380.512 394.968L378.509 394.401C377.728 394.18 377.36 393.251 377.698 392.337C378.037 391.416 378.943 390.856 379.724 391.077H379.739Z" fill="#CCCCCC"/>
<path d="M386.39 392.964L388.386 393.524C389.167 393.738 389.528 394.652 389.204 395.565C388.873 396.479 387.974 397.047 387.193 396.833L385.19 396.28C384.409 396.067 384.04 395.153 384.372 394.231C384.703 393.318 385.602 392.75 386.383 392.964H386.39Z" fill="#CCCCCC"/>
<path d="M393.056 394.799L395.06 395.337C395.833 395.543 396.202 396.45 395.877 397.364C395.553 398.27 394.669 398.845 393.889 398.631L391.878 398.101C391.097 397.894 390.729 396.988 391.053 396.074C391.377 395.16 392.268 394.593 393.049 394.799H393.056Z" fill="#CCCCCC"/>
<path d="M399.745 396.568L401.756 397.084C402.529 397.283 402.897 398.175 402.588 399.074C402.279 399.973 401.402 400.54 400.629 400.349L398.603 399.84C397.83 399.649 397.447 398.757 397.763 397.85C398.073 396.944 398.957 396.369 399.73 396.561H399.737L399.745 396.568Z" fill="#CCCCCC"/>
<path d="M406.456 398.256L408.474 398.742C409.24 398.926 409.616 399.803 409.314 400.695C409.012 401.587 408.157 402.154 407.391 401.978L405.358 401.499C404.592 401.314 404.209 400.445 404.504 399.545C404.798 398.646 405.668 398.071 406.434 398.248H406.441L406.456 398.256Z" fill="#CCCCCC"/>
<path d="M413.195 399.855L415.228 400.312C415.987 400.481 416.37 401.336 416.083 402.221C415.795 403.098 414.956 403.68 414.197 403.51L412.149 403.068C411.383 402.899 410.993 402.051 411.28 401.159C411.56 400.275 412.414 399.685 413.173 399.855H413.18H413.195Z" fill="#CCCCCC"/>
<path d="M419.972 401.329L422.013 401.749C422.764 401.904 423.162 402.737 422.889 403.614C422.624 404.483 421.799 405.066 421.04 404.918L418.978 404.513C418.219 404.365 417.821 403.533 418.087 402.648C418.352 401.771 419.184 401.182 419.943 401.329H419.95H419.972Z" fill="#CCCCCC"/>
<path d="M426.793 402.663L428.848 403.039H428.856C429.607 403.179 430.005 403.99 429.754 404.852C429.504 405.714 428.694 406.304 427.95 406.171L425.88 405.81C425.128 405.677 424.716 404.867 424.966 403.997C425.217 403.127 426.027 402.53 426.778 402.663H426.786H426.793Z" fill="#CCCCCC"/>
<path d="M433.651 403.849L435.721 404.174H435.728C436.472 404.292 436.885 405.08 436.649 405.935C436.413 406.79 435.632 407.387 434.889 407.277L432.804 406.967C432.06 406.857 431.64 406.068 431.868 405.206C432.097 404.343 432.892 403.739 433.636 403.849H433.644H433.651Z" fill="#CCCCCC"/>
<path d="M440.553 404.867L442.638 405.132H442.645C443.382 405.228 443.809 405.994 443.595 406.842C443.382 407.689 442.615 408.294 441.879 408.205L439.772 407.947C439.028 407.859 438.601 407.092 438.807 406.245C439.013 405.397 439.787 404.778 440.531 404.867H440.538H440.553Z" fill="#CCCCCC"/>
<path d="M447.506 405.692L449.598 405.898H449.606C450.342 405.972 450.777 406.709 450.586 407.549C450.394 408.382 449.65 409.001 448.921 408.935L446.807 408.736C446.07 408.67 445.628 407.933 445.812 407.092C446.004 406.252 446.748 405.626 447.492 405.692H447.499H447.506Z" fill="#CCCCCC"/>
<path d="M454.497 406.304L456.604 406.444H456.618C457.348 406.495 457.797 407.203 457.628 408.028C457.458 408.854 456.736 409.48 456.014 409.436L453.878 409.303C453.149 409.259 452.685 408.552 452.854 407.719C453.016 406.886 453.746 406.252 454.482 406.296H454.497V406.304Z" fill="#CCCCCC"/>
<path d="M461.539 406.687L463.66 406.753H463.675C464.397 406.775 464.868 407.461 464.721 408.272C464.574 409.082 463.881 409.724 463.16 409.709L461.016 409.65C460.287 409.628 459.815 408.95 459.955 408.132C460.095 407.314 460.802 406.665 461.524 406.68H461.539V406.687Z" fill="#CCCCCC"/>
<path d="M468.618 406.827H470.746L470.761 406.82C471.476 406.82 471.962 407.468 471.837 408.271C471.719 409.075 471.041 409.723 470.334 409.731L468.176 409.753C467.454 409.753 466.968 409.112 467.085 408.301C467.203 407.49 467.881 406.834 468.596 406.827H468.61H468.618Z" fill="#CCCCCC"/>
<path d="M475.741 406.709L477.884 406.621H477.899C478.606 406.591 479.107 407.21 479.011 407.999C478.915 408.787 478.275 409.451 477.567 409.488L475.394 409.591C474.68 409.628 474.179 409.009 474.267 408.213C474.356 407.417 475.011 406.746 475.719 406.709H475.733H475.741Z" fill="#CCCCCC"/>
<path d="M482.893 406.304L485.044 406.127H485.059C485.759 406.068 486.275 406.65 486.208 407.431C486.142 408.205 485.523 408.883 484.823 408.942L482.643 409.134C481.936 409.193 481.42 408.611 481.479 407.829C481.545 407.048 482.164 406.363 482.871 406.304H482.886H482.893Z" fill="#CCCCCC"/>
<path d="M490.068 405.611L492.226 405.346H492.241C492.933 405.257 493.464 405.81 493.42 406.569C493.383 407.328 492.794 408.021 492.101 408.11L489.913 408.397C489.221 408.485 488.683 407.94 488.72 407.174C488.757 406.407 489.346 405.714 490.046 405.618H490.061L490.068 405.611Z" fill="#CCCCCC"/>
<path d="M497.265 404.609L499.423 404.248H499.438C500.123 404.13 500.66 404.645 500.653 405.397C500.638 406.142 500.078 406.842 499.401 406.96L497.213 407.336C496.528 407.454 495.976 406.945 495.983 406.193C495.99 405.441 496.558 404.734 497.243 404.616H497.257L497.265 404.609Z" fill="#CCCCCC"/>
<path d="M504.454 403.289L506.612 402.825H506.627C507.297 402.678 507.857 403.157 507.872 403.886C507.886 404.616 507.363 405.323 506.693 405.471L504.498 405.957C503.82 406.105 503.261 405.633 503.238 404.896C503.216 404.159 503.747 403.444 504.424 403.297H504.439L504.454 403.289Z" fill="#CCCCCC"/>
<path d="M511.651 401.624L513.802 401.056H513.816C514.479 400.879 515.046 401.314 515.098 402.029C515.142 402.737 514.649 403.459 513.993 403.636L511.805 404.225C511.142 404.402 510.568 403.967 510.516 403.253C510.465 402.538 510.966 401.815 511.629 401.631H511.643L511.651 401.624Z" fill="#CCCCCC"/>
<path d="M518.818 399.612L520.961 398.941H520.976C521.624 398.735 522.206 399.133 522.28 399.825C522.354 400.518 521.89 401.24 521.249 401.447L519.076 402.14C518.428 402.346 517.838 401.948 517.757 401.255C517.676 400.562 518.14 399.825 518.788 399.619H518.803L518.818 399.612Z" fill="#CCCCCC"/>
<path d="M525.956 397.261L528.084 396.494H528.099C528.733 396.258 529.322 396.619 529.425 397.29C529.528 397.961 529.101 398.69 528.467 398.919L526.309 399.708C525.676 399.943 525.072 399.582 524.968 398.904C524.865 398.226 525.293 397.496 525.926 397.261L525.941 397.253L525.956 397.261Z" fill="#CCCCCC"/>
<path d="M533.049 394.585L535.163 393.723H535.178C535.797 393.465 536.393 393.789 536.519 394.438C536.644 395.086 536.246 395.816 535.635 396.074L533.491 396.966C532.872 397.224 532.268 396.899 532.136 396.251C532.003 395.595 532.401 394.858 533.02 394.6L533.035 394.592L533.049 394.585Z" fill="#CCCCCC"/>
<path d="M540.076 391.586L542.168 390.628H542.183C542.787 390.347 543.391 390.628 543.538 391.261C543.686 391.888 543.325 392.617 542.728 392.898L540.607 393.878C540.003 394.158 539.391 393.878 539.236 393.244C539.082 392.61 539.45 391.873 540.054 391.593L540.069 391.586H540.076Z" fill="#CCCCCC"/>
<path d="M547.044 388.284L549.114 387.237H549.129C549.711 386.935 550.322 387.186 550.492 387.79C550.661 388.394 550.33 389.124 549.748 389.419L547.656 390.495C547.067 390.797 546.455 390.546 546.278 389.935C546.102 389.33 546.44 388.593 547.022 388.291L547.037 388.284H547.044Z" fill="#CCCCCC"/>
<path d="M553.925 384.68L555.973 383.545H555.987C556.554 383.22 557.166 383.441 557.357 384.024C557.549 384.606 557.247 385.328 556.687 385.645L554.617 386.81C554.05 387.127 553.431 386.913 553.232 386.331C553.041 385.748 553.343 385.011 553.91 384.694L553.925 384.687V384.68Z" fill="#CCCCCC"/>
<path d="M560.716 380.788L562.734 379.565H562.749C563.294 379.226 563.913 379.41 564.119 379.97C564.325 380.53 564.06 381.245 563.515 381.584L561.475 382.83C560.922 383.169 560.304 382.984 560.09 382.424C559.876 381.864 560.149 381.134 560.694 380.795L560.709 380.788H560.716Z" fill="#CCCCCC"/>
<path d="M570.204 374.796C569.902 374.723 569.578 374.811 569.283 375.032L567.338 376.521L567.324 376.536C566.793 376.948 566.594 377.707 566.882 378.238C567.007 378.474 567.22 378.636 567.471 378.695C567.537 378.71 567.611 378.717 567.684 378.717C567.92 378.717 568.171 378.629 568.384 378.459L570.344 376.948C570.867 376.543 571.066 375.784 570.786 375.261C570.66 375.025 570.454 374.863 570.204 374.804V374.796Z" fill="#CCCCCC"/>
<path d="M576.568 369.652C576.266 369.593 575.949 369.689 575.669 369.917L573.769 371.48L573.754 371.494C573.246 371.914 573.076 372.674 573.378 373.175C573.511 373.396 573.725 373.551 573.968 373.595C574.027 373.602 574.078 373.61 574.137 373.61C574.387 373.61 574.645 373.514 574.859 373.329L576.774 371.745C577.275 371.325 577.444 370.58 577.15 370.079C577.017 369.858 576.811 369.711 576.56 369.659L576.568 369.652Z" fill="#CCCCCC"/>
<path d="M582.785 364.272C582.491 364.227 582.174 364.331 581.909 364.567L580.052 366.195L580.038 366.21C579.551 366.645 579.412 367.389 579.728 367.861C579.868 368.067 580.082 368.207 580.325 368.244C580.369 368.244 580.413 368.252 580.45 368.252C580.708 368.252 580.973 368.141 581.194 367.949L583.065 366.284C583.544 365.856 583.684 365.127 583.374 364.655C583.235 364.449 583.028 364.309 582.785 364.272Z" fill="#CCCCCC"/>
<path d="M589.429 359.002C589.289 358.803 589.083 358.685 588.847 358.656C588.56 358.626 588.251 358.737 588 358.972L586.188 360.675L586.173 360.69C585.717 361.125 585.606 361.847 585.93 362.296C586.07 362.495 586.284 362.613 586.52 362.635C586.549 362.635 586.578 362.635 586.608 362.635C586.873 362.635 587.146 362.518 587.367 362.311L589.186 360.579C589.635 360.152 589.746 359.437 589.429 358.995V359.002Z" fill="#CCCCCC"/>
<path d="M594.748 352.656C594.423 352.634 594.092 352.774 593.819 353.04L592.059 354.808L592.044 354.823C591.551 355.324 591.47 356.128 591.853 356.607C592.029 356.82 592.273 356.946 592.545 356.968C592.56 356.968 592.582 356.968 592.597 356.968C592.906 356.968 593.223 356.828 593.466 356.577L595.234 354.772C595.72 354.278 595.808 353.489 595.425 353.01C595.256 352.796 595.013 352.664 594.74 352.649L594.748 352.656Z" fill="#CCCCCC"/>
<path d="M600.464 346.598C600.154 346.569 599.823 346.738 599.573 347.011L597.849 348.861C597.385 349.369 597.333 350.143 597.724 350.593C597.9 350.792 598.144 350.902 598.416 350.91H598.423C598.74 350.91 599.057 350.755 599.3 350.497L601.009 348.632C601.466 348.138 601.525 347.365 601.134 346.922C600.957 346.723 600.722 346.605 600.456 346.605L600.464 346.598Z" fill="#CCCCCC"/>
<path d="M605.988 340.333C605.679 340.333 605.37 340.495 605.134 340.768L603.484 342.67L603.469 342.684C603.035 343.193 603.005 343.952 603.41 344.365C603.58 344.542 603.815 344.637 604.059 344.637C604.066 344.637 604.081 344.637 604.088 344.637C604.397 344.63 604.707 344.468 604.942 344.203L606.6 342.272C607.027 341.77 607.057 341.026 606.666 340.613C606.489 340.429 606.246 340.341 605.988 340.333Z" fill="#CCCCCC"/>
<path d="M611.314 333.862C611.012 333.884 610.717 334.047 610.496 334.319L608.905 336.28L608.89 336.294C608.485 336.803 608.485 337.533 608.89 337.923C609.06 338.085 609.273 338.159 609.487 338.159C609.804 338.159 610.135 338.004 610.378 337.702L611.969 335.712C612.374 335.211 612.374 334.489 611.969 334.106C611.793 333.936 611.549 333.848 611.299 333.87L611.314 333.862Z" fill="#CCCCCC"/>
<path d="M615.66 327.679L614.135 329.691L614.121 329.706C613.922 329.971 613.826 330.31 613.855 330.627C613.885 330.892 614.003 331.128 614.187 331.283C614.349 331.415 614.54 331.482 614.739 331.482C615.056 331.482 615.395 331.312 615.631 331.003L617.155 328.961C617.354 328.696 617.45 328.372 617.413 328.055C617.384 327.797 617.273 327.561 617.096 327.406C616.691 327.052 616.05 327.17 615.66 327.679Z" fill="#CCCCCC"/>
<path d="M622.326 321.141C622.289 320.891 622.171 320.67 621.987 320.53C621.582 320.213 620.963 320.353 620.603 320.854L619.129 322.94C618.945 323.205 618.864 323.529 618.908 323.832C618.945 324.089 619.07 324.311 619.254 324.451C619.402 324.561 619.579 324.62 619.755 324.62C620.079 324.62 620.418 324.443 620.639 324.119L622.098 322.018C622.282 321.753 622.363 321.436 622.319 321.134L622.326 321.141Z" fill="#CCCCCC"/>
<path d="M626.694 313.41C626.252 313.101 625.612 313.27 625.258 313.801L623.866 315.923L623.851 315.938C623.667 316.218 623.601 316.557 623.652 316.874C623.704 317.139 623.844 317.368 624.043 317.508C624.19 317.611 624.359 317.663 624.536 317.663C624.89 317.663 625.251 317.464 625.479 317.11L626.864 314.965C627.041 314.685 627.114 314.353 627.063 314.044C627.018 313.779 626.879 313.558 626.68 313.417L626.694 313.41Z" fill="#CCCCCC"/>
<path d="M631.114 306.195C630.672 305.915 630.053 306.114 629.737 306.637L628.418 308.804V308.818C628.241 309.098 628.182 309.43 628.249 309.725C628.308 309.983 628.455 310.197 628.661 310.322C628.794 310.403 628.948 310.447 629.103 310.447C629.457 310.447 629.825 310.241 630.046 309.872L631.357 307.676C631.519 307.403 631.578 307.072 631.512 306.784C631.453 306.534 631.313 306.32 631.114 306.195Z" fill="#CCCCCC"/>
<path d="M635.283 298.832C634.834 298.581 634.259 298.788 633.965 299.318L632.72 301.529V301.544C632.558 301.817 632.514 302.141 632.587 302.421C632.654 302.672 632.801 302.871 633.014 302.981C633.14 303.048 633.28 303.084 633.412 303.084C633.766 303.084 634.127 302.863 634.333 302.487L635.571 300.247C635.718 299.974 635.762 299.657 635.688 299.377C635.622 299.134 635.475 298.935 635.276 298.824L635.283 298.832Z" fill="#CCCCCC"/>
<path d="M639.195 291.329C638.753 291.108 638.2 291.337 637.935 291.86L636.771 294.115V294.13C636.624 294.402 636.595 294.712 636.676 294.977C636.749 295.213 636.904 295.405 637.11 295.501C637.221 295.552 637.339 295.582 637.464 295.582C637.817 295.582 638.178 295.353 638.377 294.963L639.534 292.685C639.666 292.42 639.703 292.11 639.615 291.845C639.541 291.609 639.394 291.425 639.187 291.322L639.195 291.329Z" fill="#CCCCCC"/>
<path d="M642.826 283.693C642.391 283.509 641.868 283.752 641.633 284.254L640.542 286.568C640.417 286.833 640.402 287.135 640.491 287.386C640.572 287.614 640.734 287.784 640.94 287.872C641.036 287.909 641.139 287.931 641.242 287.931C641.603 287.931 641.964 287.695 642.141 287.297L643.209 284.976C643.327 284.711 643.349 284.423 643.26 284.165C643.179 283.944 643.025 283.767 642.818 283.679L642.826 283.693Z" fill="#CCCCCC"/>
<path d="M646.17 275.94C645.743 275.785 645.25 276.043 645.036 276.537L644.042 278.866V278.881C643.924 279.139 643.916 279.426 644.019 279.669C644.108 279.883 644.27 280.045 644.476 280.119C644.557 280.148 644.646 280.163 644.734 280.163C645.095 280.163 645.448 279.913 645.618 279.515L646.605 277.163C646.708 276.906 646.715 276.625 646.62 276.39C646.531 276.176 646.377 276.014 646.17 275.94Z" fill="#CCCCCC"/>
<path d="M649.22 268.084C648.807 267.958 648.336 268.224 648.152 268.71L647.253 271.069V271.083C647.15 271.334 647.157 271.614 647.26 271.835C647.356 272.041 647.518 272.189 647.724 272.248C647.791 272.27 647.864 272.277 647.931 272.277C648.292 272.277 648.645 272.019 648.8 271.614L649.691 269.226C649.787 268.975 649.78 268.703 649.676 268.482C649.581 268.275 649.419 268.135 649.22 268.069V268.084Z" fill="#CCCCCC"/>
<path d="M651.82 260.102C651.407 260.02 650.98 260.308 650.833 260.78L650.081 263.197C650.008 263.448 650.03 263.706 650.14 263.912C650.244 264.104 650.42 264.236 650.627 264.273C650.671 264.28 650.722 264.288 650.767 264.288C651.135 264.288 651.496 264.008 651.621 263.595L652.358 261.17C652.431 260.927 652.409 260.669 652.299 260.463C652.196 260.271 652.026 260.146 651.827 260.102H651.82Z" fill="#CCCCCC"/>
<path d="M653.713 252.009C653.315 251.972 652.925 252.304 652.829 252.768L652.313 255.193V255.223C652.254 255.466 652.306 255.709 652.431 255.886C652.556 256.063 652.733 256.166 652.939 256.181C652.954 256.181 652.969 256.181 652.984 256.181C653.374 256.181 653.735 255.856 653.823 255.422L654.324 252.96C654.376 252.724 654.324 252.488 654.206 252.304C654.089 252.134 653.912 252.024 653.706 252.009H653.713Z" fill="#CCCCCC"/>
<path d="M655.105 244.094C654.965 243.946 654.774 243.88 654.575 243.895C654.185 243.931 653.86 244.293 653.824 244.75L653.647 247.16V247.196C653.632 247.425 653.706 247.639 653.846 247.793C653.971 247.926 654.14 247.992 654.317 247.992C654.339 247.992 654.369 247.992 654.391 247.992C654.781 247.948 655.113 247.58 655.142 247.145L655.304 244.683C655.319 244.462 655.245 244.248 655.105 244.094Z" fill="#CCCCCC"/>
<path d="M653.743 239.266V239.303C653.772 239.509 653.875 239.694 654.037 239.804C654.14 239.878 654.266 239.915 654.391 239.915C654.464 239.915 654.531 239.9 654.604 239.878C654.973 239.753 655.223 239.347 655.172 238.942L654.877 236.576C654.855 236.37 654.752 236.193 654.597 236.082C654.435 235.972 654.236 235.942 654.045 236.001C653.676 236.119 653.433 236.517 653.477 236.945L653.743 239.259V239.266Z" fill="#CCCCCC"/>
<path d="M652.232 231.918L652.247 231.955C652.321 232.124 652.453 232.257 652.623 232.309C652.682 232.331 652.748 232.338 652.814 232.338C652.939 232.338 653.072 232.301 653.183 232.22C653.507 232.006 653.654 231.564 653.507 231.218L652.63 229.132C652.556 228.963 652.431 228.837 652.262 228.778C652.085 228.719 651.879 228.749 651.709 228.859C651.385 229.066 651.245 229.501 651.4 229.876L652.24 231.918H652.232Z" fill="#CCCCCC"/>
<path d="M649.898 224.651L648.498 223C648.395 222.875 648.248 222.801 648.085 222.794C647.909 222.779 647.725 222.868 647.585 223.008C647.312 223.288 647.283 223.722 647.526 224.025L648.874 225.646L648.896 225.676C649.006 225.801 649.154 225.875 649.316 225.882H649.33C649.507 225.882 649.684 225.801 649.824 225.661C650.096 225.373 650.126 224.931 649.89 224.651H649.898Z" fill="#CCCCCC"/>
<path d="M644.24 221.04C644.461 221.04 644.69 220.907 644.815 220.671C644.911 220.502 644.94 220.295 644.888 220.111C644.844 219.949 644.748 219.816 644.609 219.735L642.76 218.703C642.48 218.549 642.111 218.674 641.935 218.991C641.839 219.16 641.809 219.359 641.854 219.536C641.898 219.698 641.994 219.831 642.156 219.927L643.946 220.951L643.975 220.966C644.056 221.01 644.152 221.032 644.24 221.032V221.04Z" fill="#CCCCCC"/>
<path d="M638.546 191.19L638.112 218.143L623.46 205.466L638.546 191.19Z" fill="#0095C3"/>
<path d="M540.238 168.505L598.401 236.687C599.513 237.991 600.994 238.706 602.496 238.654C603.999 238.61 605.399 237.807 606.378 236.436L657.477 164.592C658.059 163.766 658.169 162.572 657.75 161.562C657.33 160.553 656.46 159.941 655.562 160.007L540.246 168.505H540.238Z" fill="#07B8AC"/>
<path d="M638.539 191.191L540.238 168.505L630.326 202.821L638.03 217.539L638.539 191.191Z" fill="#0095C3"/>
<path d="M625.405 209.668L638.111 218.143L630.325 202.821L625.405 209.668Z" fill="#B4B4B4"/>
</g>
<defs>
<clipPath id="clip0_2306_223">
<rect width="622" height="478" fill="white" transform="translate(36 160)"/>
</clipPath>
</defs>
</svg>
