<svg width="622" height="478" viewBox="0 0 622 478" fill="none" xmlns="http://www.w3.org/2000/svg">
<g clip-path="url(#clip0_505_393)">
<path d="M37.9353 477.779L36.3368 476.43C35.8433 476.018 35.8212 475.177 36.2853 474.551C36.7493 473.924 37.5228 473.755 38.0089 474.175C38.0089 474.175 38.0089 474.175 38.0163 474.175L38.0384 474.19L39.5853 475.538L39.6 475.553C40.0788 475.973 40.0935 476.799 39.6295 477.41C39.1728 478.015 38.4141 478.17 37.9353 477.772V477.779Z" fill="#CCCCCC"/>
<path d="M32.7053 473.173L31.1879 471.721C30.7017 471.256 30.7238 470.372 31.2321 469.745C31.7404 469.119 32.5433 468.994 33.0294 469.458C33.0294 469.458 33.0294 469.458 33.0368 469.458L33.0589 469.473L34.5247 470.925L34.5395 470.939C35.0109 471.404 34.9814 472.281 34.4732 472.893C33.9723 473.497 33.1841 473.615 32.7127 473.165L32.7053 473.173Z" fill="#CCCCCC"/>
<path d="M27.7555 468.205L26.3264 466.65C25.855 466.134 25.9139 465.205 26.4738 464.586C27.0262 463.967 27.866 463.879 28.3374 464.395C28.3374 464.395 28.3374 464.395 28.3374 464.402L28.3595 464.424L29.7369 465.979L29.7517 465.994C30.2157 466.517 30.1347 467.431 29.5823 468.035C29.0298 468.64 28.2195 468.714 27.7555 468.205Z" fill="#CCCCCC"/>
<path d="M23.1002 462.884L21.7669 461.218C21.3102 460.643 21.4207 459.685 22.0247 459.066C22.6287 458.454 23.4906 458.417 23.9472 458.992C23.9472 458.992 23.9472 458.992 23.9472 459L23.962 459.022L25.2437 460.673L25.2584 460.687C25.7077 461.262 25.5752 462.213 24.9785 462.817C24.3819 463.414 23.5421 463.437 23.0928 462.876L23.1002 462.884Z" fill="#CCCCCC"/>
<path d="M18.7908 457.216L17.568 455.447C17.1334 454.821 17.3102 453.833 17.9584 453.244C18.6066 452.654 19.4758 452.676 19.9104 453.303L19.9251 453.332L21.1037 455.079L21.1184 455.101C21.5383 455.727 21.3615 456.708 20.7207 457.29C20.0798 457.872 19.218 457.835 18.7908 457.223V457.216Z" fill="#CCCCCC"/>
<path d="M14.8425 451.187L13.7303 449.315C13.3325 448.645 13.5608 447.642 14.2459 447.075C14.9309 446.507 15.8075 446.603 16.2053 447.274L16.22 447.303L17.2881 449.138L17.3028 449.161C17.6932 449.831 17.4575 450.834 16.7724 451.386C16.0948 451.939 15.2256 451.843 14.8352 451.18L14.8425 451.187Z" fill="#CCCCCC"/>
<path d="M11.2848 444.834L10.2977 442.866C9.9368 442.144 10.2314 441.127 10.9533 440.596C11.6752 440.066 12.5518 440.22 12.9201 440.943L12.9348 440.98L13.8777 442.911L13.8924 442.933C14.246 443.655 13.9513 444.665 13.2294 445.188C12.5149 445.704 11.6457 445.549 11.2848 444.834Z" fill="#CCCCCC"/>
<path d="M8.14689 438.157L7.29242 436.093C6.97568 435.319 7.32925 434.302 8.09532 433.808C8.85403 433.315 9.7306 433.543 10.0473 434.317V434.332L10.0621 434.361L10.8723 436.381L10.8871 436.41C11.1964 437.184 10.8355 438.194 10.0768 438.68C9.32546 439.159 8.46363 438.931 8.14689 438.164V438.157Z" fill="#CCCCCC"/>
<path d="M5.47299 431.17L4.76584 429.018C4.4933 428.2 4.92053 427.175 5.71607 426.733C6.5116 426.291 7.37344 426.593 7.64598 427.419V427.433L7.66071 427.463L8.33103 429.563V429.593C8.60357 430.411 8.16897 431.428 7.3808 431.863C6.59263 432.298 5.73816 431.988 5.47299 431.177V431.17Z" fill="#CCCCCC"/>
<path d="M3.29266 423.896L2.74021 421.662C2.52659 420.793 3.02749 419.776 3.85249 419.392C4.68486 419.002 5.52459 419.392 5.74557 420.255V420.269L5.7603 420.306L6.27593 422.481V422.517C6.48955 423.38 5.98865 424.389 5.16365 424.773C4.33865 425.149 3.50628 424.765 3.30003 423.91L3.29266 423.896Z" fill="#CCCCCC"/>
<path d="M1.64262 416.356L1.25221 414.049C1.09753 413.135 1.67208 412.133 2.53391 411.809C3.39575 411.484 4.21338 411.956 4.36807 412.862V412.877L4.37544 412.914L4.73638 415.155V415.191C4.89106 416.098 4.30914 417.093 3.45468 417.41C2.60021 417.727 1.79731 417.255 1.64262 416.356Z" fill="#CCCCCC"/>
<path d="M0.54517 408.588L0.331553 406.222C0.24316 405.271 0.891376 404.291 1.77531 404.033C2.65924 403.775 3.44741 404.335 3.5358 405.286V405.301V405.345L3.72732 407.637V407.681C3.80835 408.632 3.16013 409.597 2.2762 409.848C1.39964 410.099 0.626197 409.539 0.537804 408.603L0.54517 408.588Z" fill="#CCCCCC"/>
<path d="M0.0368079 400.635L-2.26023e-05 398.218C-0.0147548 397.23 0.707122 396.279 1.61315 396.095C2.51918 395.911 3.26316 396.56 3.27789 397.547V397.562V397.606L3.29262 399.935V399.979C3.29999 400.96 2.57811 401.903 1.67945 402.08C0.780783 402.257 0.05154 401.608 0.0368079 400.635Z" fill="#CCCCCC"/>
<path d="M0.125244 392.55L0.272566 390.103C0.331495 389.086 1.12703 388.18 2.04779 388.077C2.96855 387.973 3.66097 388.71 3.60204 389.727V389.742V389.786L3.44735 392.145V392.189C3.37369 393.199 2.57815 394.098 1.66476 394.194C0.758728 394.29 0.0736815 393.553 0.13261 392.55H0.125244Z" fill="#CCCCCC"/>
<path d="M0.824913 384.384L1.14902 381.93C1.28161 380.891 2.14344 380.028 3.07157 380.006C3.9997 379.984 4.64055 380.802 4.50059 381.841V381.856L4.49323 381.9L4.16912 384.266V384.31C4.0218 385.342 3.15996 386.197 2.2392 386.212C1.32581 386.227 0.692323 385.409 0.824913 384.384Z" fill="#CCCCCC"/>
<path d="M2.09186 376.196L2.57803 373.742C2.79164 372.688 3.7124 371.877 4.64053 371.936C5.56866 371.995 6.15058 372.894 5.94433 373.948V373.963L5.9296 374.007L5.44344 376.373V376.417C5.21509 377.464 4.29433 378.267 3.37356 378.201C2.4528 378.134 1.88561 377.242 2.09186 376.196Z" fill="#CCCCCC"/>
<path d="M3.90411 368.044L4.55233 365.612C4.83224 364.544 5.81929 363.792 6.74006 363.932C7.66818 364.064 8.19117 365.045 7.9039 366.106V366.121L7.88917 366.165L7.24832 368.516L7.23358 368.56C6.94631 369.622 5.96662 370.359 5.04585 370.219C4.13246 370.079 3.61683 369.106 3.89674 368.052L3.90411 368.044Z" fill="#CCCCCC"/>
<path d="M6.2465 359.967L7.04203 357.564C7.39561 356.51 8.41213 355.825 9.31816 356.038C10.2242 356.252 10.6735 357.284 10.3273 358.338L10.3126 358.382L9.53914 360.704L9.52441 360.741C9.17083 361.795 8.15431 362.48 7.24828 362.259C6.34226 362.045 5.89292 361.013 6.2465 359.959V359.967Z" fill="#CCCCCC"/>
<path d="M9.06761 352L9.99574 349.634C10.4082 348.587 11.4616 347.975 12.3455 348.255C13.2295 348.543 13.6125 349.619 13.2 350.666L13.1853 350.702L12.2792 352.995L12.2645 353.031C11.852 354.078 10.7986 354.69 9.91471 354.402C9.03078 354.115 8.64775 353.039 9.06025 352H9.06761Z" fill="#CCCCCC"/>
<path d="M12.3088 344.18L13.3621 341.866C13.8262 340.834 14.909 340.288 15.7708 340.635C16.6327 340.981 16.9494 342.101 16.4853 343.133L16.4706 343.17L15.4467 345.418L15.432 345.455C14.9606 346.479 13.8851 347.032 13.0233 346.678C12.1614 346.325 11.8447 345.212 12.3161 344.187L12.3088 344.18Z" fill="#CCCCCC"/>
<path d="M15.9476 336.515L17.1114 334.252C17.6271 333.242 18.732 332.756 19.5643 333.161C20.4041 333.574 20.6619 334.724 20.1389 335.734L20.1242 335.77L18.9898 337.974L18.975 338.004C18.4521 339.013 17.3545 339.5 16.5221 339.087C15.6898 338.674 15.432 337.525 15.9476 336.515Z" fill="#CCCCCC"/>
<path d="M19.94 329.027L21.1996 326.816C21.7668 325.821 22.879 325.401 23.6893 325.865C24.4996 326.329 24.6985 327.516 24.1313 328.503L24.1166 328.533L22.8864 330.685L22.8717 330.714C22.3045 331.702 21.1922 332.13 20.3819 331.658C19.5717 331.194 19.3728 330.014 19.94 329.019V329.027Z" fill="#CCCCCC"/>
<path d="M24.249 321.723L25.597 319.571C26.2084 318.598 27.3354 318.237 28.1162 318.753C28.897 319.269 29.0443 320.477 28.433 321.45L28.4182 321.48L27.0997 323.58L27.085 323.61C26.4736 324.575 25.3466 324.944 24.5658 324.42C23.785 323.897 23.645 322.696 24.249 321.73V321.723Z" fill="#CCCCCC"/>
<path d="M28.8456 314.611L30.282 312.51C30.9303 311.559 32.0646 311.257 32.8233 311.817C33.582 312.385 33.6704 313.608 33.0222 314.559L33.0075 314.589L31.6006 316.637L31.5858 316.66C30.9376 317.603 29.8032 317.912 29.0445 317.345C28.2932 316.777 28.2048 315.554 28.853 314.611H28.8456Z" fill="#CCCCCC"/>
<path d="M33.7073 307.697L35.21 305.663C35.895 304.742 37.0368 304.484 37.766 305.096C38.4953 305.707 38.5321 306.953 37.8471 307.874L37.8323 307.896L36.3591 309.886L36.3444 309.908C35.6593 310.83 34.5176 311.08 33.7883 310.469C33.0591 309.857 33.0223 308.619 33.7073 307.69V307.697Z" fill="#CCCCCC"/>
<path d="M38.8045 300.991L40.3734 299.015C41.0879 298.116 42.2444 297.917 42.9442 298.566C43.644 299.222 43.6292 300.482 42.9147 301.381L42.9 301.403L41.3605 303.334L41.3458 303.356C40.6312 304.256 39.4821 304.455 38.7824 303.799C38.0826 303.143 38.0973 301.89 38.8118 300.991H38.8045Z" fill="#CCCCCC"/>
<path d="M44.1154 294.483L45.7507 292.574C46.502 291.697 47.6512 291.549 48.3288 292.242C48.9991 292.935 48.9402 294.21 48.1889 295.08L48.1741 295.102L46.5683 296.974L46.5536 296.996C45.8023 297.873 44.6532 298.013 43.9828 297.32C43.3125 296.627 43.3715 295.36 44.1228 294.483H44.1154Z" fill="#CCCCCC"/>
<path d="M49.6327 288.189L51.3269 286.339C52.1077 285.491 53.2568 285.388 53.9051 286.118C54.5533 286.847 54.4428 288.13 53.662 288.977L53.6472 288.999L51.9825 290.812L51.9678 290.827C51.187 291.675 50.0379 291.77 49.397 291.041C48.7562 290.311 48.8593 289.036 49.6401 288.181L49.6327 288.189Z" fill="#CCCCCC"/>
<path d="M55.334 282.101L57.0724 280.317C57.8753 279.492 59.0318 279.44 59.6505 280.207C60.2693 280.973 60.1146 282.263 59.3117 283.088L59.297 283.111L57.5807 284.865L57.5659 284.879C56.763 285.705 55.6065 285.749 54.9952 284.983C54.3764 284.216 54.5311 282.934 55.334 282.108V282.101Z" fill="#CCCCCC"/>
<path d="M61.1901 276.212L62.9801 274.487C63.8125 273.684 64.9616 273.684 65.5509 274.48C66.1402 275.276 65.9486 276.573 65.1163 277.369L65.1015 277.384L63.341 279.079L63.3263 279.094C62.4939 279.89 61.3448 279.89 60.7556 279.094C60.1663 278.298 60.3578 277.008 61.1901 276.205V276.212Z" fill="#CCCCCC"/>
<path d="M67.2008 270.537L69.0349 268.871C69.8894 268.097 71.0385 268.142 71.5983 268.967C72.1581 269.793 71.9298 271.09 71.0753 271.871L71.0606 271.886L69.2633 273.515L69.2485 273.529C68.3941 274.303 67.2523 274.259 66.6851 273.426C66.1253 272.601 66.361 271.304 67.2081 270.53L67.2008 270.537Z" fill="#CCCCCC"/>
<path d="M73.3515 265.068L75.2225 263.469C76.0991 262.725 77.2408 262.813 77.7785 263.668C78.3162 264.523 78.0363 265.828 77.1598 266.572L77.145 266.587L75.3035 268.157L75.2888 268.171C74.4122 268.916 73.2705 268.827 72.7401 267.965C72.2098 267.11 72.4823 265.813 73.3589 265.061L73.3515 265.068Z" fill="#CCCCCC"/>
<path d="M79.6421 259.806L81.5499 258.273C82.4486 257.551 83.583 257.683 84.0912 258.575C84.5995 259.46 84.2827 260.764 83.3841 261.486L83.3694 261.501L81.491 263.005L81.4763 263.019C80.5776 263.734 79.4432 263.602 78.9423 262.717C78.4414 261.833 78.7508 260.536 79.6495 259.813L79.6421 259.806Z" fill="#CCCCCC"/>
<path d="M86.0506 254.765L87.9952 253.298C88.916 252.605 90.043 252.782 90.5218 253.696C91.0006 254.61 90.6397 255.915 89.7263 256.6L89.7115 256.615L87.7963 258.052L87.7816 258.067C86.8682 258.759 85.7338 258.575 85.2624 257.661C84.791 256.747 85.1446 255.45 86.0579 254.757L86.0506 254.765Z" fill="#CCCCCC"/>
<path d="M92.5843 249.952L94.5658 248.552C95.5013 247.896 96.6136 248.117 97.0556 249.06C97.4975 249.996 97.0998 251.293 96.1643 251.949H96.1495L94.2049 253.335L94.1902 253.35C93.2547 254.013 92.135 253.785 91.693 252.849C91.2437 251.913 91.6415 250.615 92.577 249.952H92.5843Z" fill="#CCCCCC"/>
<path d="M99.2286 245.375L101.24 244.049C102.182 243.422 103.28 243.695 103.692 244.653C104.098 245.611 103.67 246.886 102.72 247.513H102.705L100.731 248.832L100.717 248.847C99.7737 249.473 98.6761 249.208 98.2636 248.25C97.8511 247.292 98.2857 246.009 99.2286 245.383V245.375Z" fill="#CCCCCC"/>
<path d="M105.969 241.019L108.009 239.759C108.959 239.17 110.035 239.479 110.41 240.452C110.786 241.425 110.315 242.685 109.364 243.275H109.35L107.346 244.528H107.331C106.381 245.132 105.298 244.823 104.923 243.85C104.547 242.877 105.011 241.609 105.961 241.019H105.969Z" fill="#CCCCCC"/>
<path d="M112.812 236.907L114.881 235.72C115.839 235.168 116.892 235.521 117.239 236.509C117.577 237.497 117.077 238.742 116.119 239.295H116.104L114.071 240.474H114.056C113.099 241.042 112.038 240.688 111.692 239.708C111.346 238.72 111.847 237.474 112.812 236.914V236.907Z" fill="#CCCCCC"/>
<path d="M119.728 233.03L121.82 231.917C122.785 231.401 123.817 231.792 124.126 232.794C124.435 233.797 123.898 235.02 122.933 235.536H122.918L120.863 236.649H120.848C119.883 237.18 118.845 236.789 118.535 235.787C118.226 234.784 118.756 233.554 119.728 233.038V233.03Z" fill="#CCCCCC"/>
<path d="M126.726 229.389L128.84 228.343C129.813 227.864 130.822 228.291 131.094 229.301C131.367 230.311 130.8 231.519 129.827 231.998H129.813L127.735 233.038H127.721C126.748 233.531 125.739 233.104 125.459 232.087C125.187 231.077 125.747 229.868 126.719 229.382L126.726 229.389Z" fill="#CCCCCC"/>
<path d="M133.79 225.999L135.919 225.034C136.891 224.591 137.879 225.056 138.114 226.08C138.35 227.105 137.753 228.291 136.781 228.733H136.766L134.674 229.699H134.66C133.687 230.156 132.7 229.684 132.457 228.667C132.214 227.643 132.811 226.456 133.783 226.014L133.79 225.999Z" fill="#CCCCCC"/>
<path d="M140.913 222.859L143.064 221.968C144.044 221.562 145.002 222.063 145.208 223.095C145.414 224.127 144.788 225.292 143.808 225.697H143.794L141.687 226.589H141.672C140.692 227.009 139.735 226.5 139.529 225.468C139.322 224.437 139.948 223.272 140.921 222.859H140.913Z" fill="#CCCCCC"/>
<path d="M148.088 219.97L150.246 219.152C151.226 218.784 152.154 219.322 152.331 220.361C152.5 221.4 151.845 222.542 150.865 222.911H150.85L148.729 223.722H148.714C147.734 224.098 146.799 223.56 146.629 222.52C146.453 221.481 147.108 220.339 148.088 219.963V219.97Z" fill="#CCCCCC"/>
<path d="M155.307 217.347L157.48 216.609C158.459 216.278 159.365 216.853 159.498 217.899C159.638 218.946 158.953 220.059 157.973 220.39H157.958L155.822 221.127H155.807C154.828 221.466 153.922 220.892 153.782 219.852C153.642 218.806 154.327 217.686 155.307 217.354V217.347Z" fill="#CCCCCC"/>
<path d="M162.562 214.973L164.743 214.317C165.722 214.023 166.599 214.634 166.702 215.681C166.805 216.727 166.098 217.818 165.118 218.113H165.104L162.96 218.769H162.945C161.966 219.071 161.089 218.459 160.978 217.413C160.875 216.359 161.583 215.268 162.562 214.973Z" fill="#CCCCCC"/>
<path d="M169.84 212.873L172.028 212.298C173 212.04 173.847 212.689 173.921 213.735C173.987 214.789 173.258 215.85 172.278 216.108H172.263L170.112 216.683H170.098C169.118 216.949 168.271 216.307 168.197 215.253C168.124 214.199 168.86 213.131 169.832 212.873H169.84Z" fill="#CCCCCC"/>
<path d="M177.14 211.045L179.335 210.551C180.307 210.33 181.125 211.008 181.162 212.062C181.199 213.116 180.44 214.155 179.468 214.376H179.453L177.295 214.87H177.28C176.307 215.099 175.482 214.421 175.446 213.367C175.409 212.313 176.168 211.273 177.14 211.045Z" fill="#CCCCCC"/>
<path d="M184.447 209.483L186.642 209.07C187.607 208.886 188.395 209.6 188.395 210.654C188.395 211.716 187.614 212.718 186.642 212.902H186.627L184.469 213.315H184.454C183.482 213.507 182.694 212.799 182.694 211.738C182.694 210.677 183.475 209.667 184.44 209.483H184.447Z" fill="#CCCCCC"/>
<path d="M191.754 208.207L193.949 207.876C194.914 207.728 195.665 208.473 195.636 209.527C195.606 210.588 194.796 211.561 193.839 211.701H193.824L191.666 212.033H191.651C190.686 212.18 189.927 211.443 189.957 210.382C189.986 209.32 190.789 208.347 191.754 208.2V208.207Z" fill="#CCCCCC"/>
<path d="M199.054 207.205L201.241 206.962C202.199 206.859 202.921 207.625 202.855 208.687C202.788 209.74 201.963 210.684 201.006 210.794H200.991L198.84 211.045H198.818C197.86 211.156 197.139 210.389 197.197 209.328C197.264 208.266 198.089 207.323 199.046 207.213L199.054 207.205Z" fill="#CCCCCC"/>
<path d="M206.346 206.498L208.526 206.343C209.477 206.277 210.162 207.073 210.059 208.126C209.956 209.18 209.108 210.094 208.166 210.161H208.151L206.007 210.323H205.993C205.042 210.396 204.35 209.593 204.453 208.539C204.549 207.485 205.396 206.571 206.346 206.498Z" fill="#CCCCCC"/>
<path d="M213.602 206.078L215.775 206.004C216.71 205.974 217.366 206.8 217.233 207.854C217.101 208.908 216.231 209.777 215.296 209.814H215.281L213.145 209.888H213.13C212.187 209.925 211.532 209.099 211.665 208.045C211.797 206.991 212.659 206.114 213.602 206.078Z" fill="#CCCCCC"/>
<path d="M220.828 205.938H222.986C223.914 205.952 224.533 206.8 224.371 207.846C224.209 208.893 223.325 209.733 222.397 209.733H222.382H220.254H220.239C219.311 209.733 218.685 208.886 218.847 207.839C219.009 206.792 219.893 205.945 220.821 205.945L220.828 205.938Z" fill="#CCCCCC"/>
<path d="M228.002 206.055L230.146 206.136C231.067 206.173 231.656 207.043 231.465 208.082C231.273 209.121 230.374 209.932 229.461 209.895H229.454L227.34 209.822H227.325C226.404 209.785 225.807 208.915 225.999 207.876C226.183 206.837 227.082 206.019 228.002 206.048V206.055Z" fill="#CCCCCC"/>
<path d="M235.14 206.417L237.269 206.571C238.175 206.638 238.735 207.529 238.521 208.561C238.308 209.593 237.394 210.374 236.488 210.315H236.481L234.374 210.168H234.36C233.454 210.102 232.886 209.217 233.1 208.178C233.314 207.146 234.22 206.358 235.133 206.417H235.14Z" fill="#CCCCCC"/>
<path d="M242.219 206.999L244.333 207.212C245.232 207.308 245.762 208.207 245.526 209.232C245.291 210.256 244.37 211.015 243.471 210.92H243.464L241.372 210.713H241.357C240.459 210.625 239.921 209.718 240.157 208.694C240.392 207.669 241.313 206.91 242.212 206.999H242.219Z" fill="#CCCCCC"/>
<path d="M249.254 207.795L251.353 208.067C252.237 208.185 252.745 209.099 252.488 210.116C252.23 211.133 251.302 211.863 250.418 211.745L248.34 211.48H248.326C247.434 211.362 246.926 210.448 247.184 209.431C247.442 208.414 248.37 207.677 249.254 207.795Z" fill="#CCCCCC"/>
<path d="M256.229 208.782L258.314 209.114C259.191 209.254 259.677 210.183 259.397 211.192C259.124 212.202 258.189 212.902 257.312 212.77L255.25 212.445H255.242C254.366 212.305 253.88 211.377 254.152 210.367C254.425 209.357 255.36 208.65 256.237 208.782H256.229Z" fill="#CCCCCC"/>
<path d="M263.161 209.932L265.231 210.308C266.093 210.463 266.557 211.406 266.269 212.401C265.975 213.403 265.039 214.082 264.177 213.927L262.122 213.558H262.115C261.246 213.403 260.782 212.46 261.069 211.465C261.356 210.463 262.299 209.777 263.161 209.932Z" fill="#CCCCCC"/>
<path d="M270.041 211.244L272.096 211.664C272.95 211.841 273.392 212.784 273.09 213.772C272.781 214.76 271.846 215.423 270.991 215.246L268.951 214.833H268.943C268.089 214.656 267.639 213.713 267.941 212.725C268.243 211.73 269.186 211.067 270.041 211.244Z" fill="#CCCCCC"/>
<path d="M276.876 212.696L278.917 213.153C279.764 213.344 280.191 214.295 279.867 215.275C279.55 216.256 278.608 216.897 277.76 216.713L275.727 216.263C274.88 216.071 274.453 215.128 274.77 214.14C275.087 213.153 276.029 212.512 276.876 212.696Z" fill="#CCCCCC"/>
<path d="M283.675 214.258L285.708 214.752C286.541 214.951 286.953 215.909 286.629 216.882C286.305 217.855 285.362 218.482 284.523 218.283L282.504 217.803C281.664 217.604 281.252 216.646 281.576 215.674C281.9 214.701 282.843 214.067 283.683 214.266L283.675 214.258Z" fill="#CCCCCC"/>
<path d="M290.43 215.931L292.449 216.447C293.274 216.661 293.671 217.612 293.34 218.577C293.001 219.543 292.065 220.155 291.233 219.941L289.222 219.432C288.397 219.219 287.992 218.268 288.324 217.295C288.655 216.329 289.598 215.71 290.43 215.924V215.931Z" fill="#CCCCCC"/>
<path d="M297.155 217.686L299.166 218.224C299.984 218.445 300.374 219.395 300.028 220.361C299.689 221.319 298.746 221.916 297.929 221.695L295.925 221.164C295.108 220.943 294.717 219.992 295.056 219.027C295.395 218.069 296.338 217.464 297.155 217.686Z" fill="#CCCCCC"/>
<path d="M303.851 219.513L305.855 220.074C306.665 220.302 307.041 221.253 306.695 222.203C306.348 223.154 305.413 223.744 304.603 223.515L302.599 222.963C301.781 222.742 301.406 221.783 301.745 220.833C302.083 219.882 303.026 219.285 303.837 219.506L303.851 219.513Z" fill="#CCCCCC"/>
<path d="M310.525 221.393L312.521 221.968C313.324 222.196 313.692 223.147 313.346 224.098C313 225.041 312.064 225.623 311.262 225.387L309.265 224.82C308.455 224.591 308.087 223.641 308.433 222.697C308.779 221.754 309.715 221.164 310.518 221.393H310.525Z" fill="#CCCCCC"/>
<path d="M317.176 223.309L319.173 223.891C319.968 224.127 320.336 225.07 319.983 226.014C319.637 226.95 318.709 227.525 317.906 227.289L315.909 226.714C315.107 226.485 314.738 225.535 315.084 224.591C315.431 223.648 316.359 223.073 317.162 223.302L317.176 223.309Z" fill="#CCCCCC"/>
<path d="M323.821 225.255L325.81 225.837C326.605 226.073 326.966 227.016 326.612 227.945C326.266 228.873 325.338 229.448 324.55 229.212L322.554 228.63C321.758 228.402 321.397 227.451 321.743 226.522C322.09 225.586 323.018 225.019 323.813 225.247L323.821 225.255Z" fill="#CCCCCC"/>
<path d="M330.458 227.208L332.446 227.79C333.235 228.019 333.596 228.962 333.249 229.891C332.903 230.819 331.982 231.379 331.194 231.151L329.198 230.569C328.41 230.34 328.049 229.397 328.388 228.468C328.734 227.539 329.655 226.972 330.443 227.2L330.458 227.208Z" fill="#CCCCCC"/>
<path d="M337.094 229.146L339.083 229.728C339.871 229.957 340.225 230.886 339.886 231.807C339.547 232.728 338.634 233.296 337.846 233.067L335.85 232.492C335.061 232.264 334.7 231.335 335.047 230.406C335.385 229.485 336.306 228.918 337.087 229.146H337.094Z" fill="#CCCCCC"/>
<path d="M343.739 231.077L345.735 231.645C346.516 231.866 346.877 232.794 346.538 233.708C346.199 234.63 345.293 235.19 344.512 234.969L342.508 234.401C341.728 234.18 341.359 233.251 341.698 232.337C342.037 231.416 342.943 230.856 343.724 231.077H343.739Z" fill="#CCCCCC"/>
<path d="M350.39 232.964L352.386 233.524C353.167 233.738 353.528 234.652 353.204 235.566C352.873 236.479 351.974 237.047 351.193 236.833L349.19 236.28C348.409 236.067 348.04 235.153 348.372 234.232C348.703 233.318 349.602 232.75 350.383 232.964H350.39Z" fill="#CCCCCC"/>
<path d="M357.057 234.799L359.06 235.337C359.834 235.543 360.202 236.45 359.878 237.364C359.554 238.27 358.67 238.845 357.889 238.632L355.878 238.101C355.097 237.895 354.729 236.988 355.053 236.074C355.377 235.16 356.268 234.593 357.049 234.799H357.057Z" fill="#CCCCCC"/>
<path d="M363.745 236.568L365.756 237.084C366.529 237.283 366.898 238.175 366.588 239.074C366.279 239.973 365.402 240.54 364.629 240.349L362.603 239.84C361.83 239.649 361.447 238.757 361.764 237.85C362.073 236.944 362.957 236.369 363.73 236.561H363.738L363.745 236.568Z" fill="#CCCCCC"/>
<path d="M370.455 238.256L372.474 238.742C373.24 238.926 373.615 239.803 373.313 240.695C373.011 241.587 372.157 242.154 371.391 241.978L369.358 241.499C368.592 241.314 368.209 240.445 368.503 239.545C368.798 238.646 369.667 238.071 370.433 238.248H370.441L370.455 238.256Z" fill="#CCCCCC"/>
<path d="M377.195 239.855L379.228 240.312C379.987 240.481 380.37 241.336 380.083 242.221C379.796 243.098 378.956 243.68 378.197 243.511L376.149 243.068C375.383 242.899 374.993 242.051 375.28 241.16C375.56 240.275 376.415 239.685 377.173 239.855H377.181H377.195Z" fill="#CCCCCC"/>
<path d="M383.972 241.329L386.013 241.749C386.764 241.904 387.162 242.737 386.889 243.614C386.624 244.483 385.799 245.066 385.04 244.918L382.978 244.513C382.219 244.365 381.821 243.533 382.087 242.648C382.352 241.771 383.184 241.182 383.943 241.329H383.95H383.972Z" fill="#CCCCCC"/>
<path d="M390.793 242.663L392.848 243.039H392.856C393.607 243.179 394.005 243.99 393.754 244.852C393.504 245.714 392.694 246.304 391.95 246.171L389.88 245.81C389.128 245.677 388.716 244.867 388.966 243.997C389.217 243.127 390.027 242.53 390.778 242.663H390.786H390.793Z" fill="#CCCCCC"/>
<path d="M397.651 243.85L399.721 244.174H399.728C400.472 244.292 400.885 245.08 400.649 245.935C400.413 246.79 399.632 247.387 398.889 247.277L396.804 246.967C396.06 246.857 395.64 246.068 395.868 245.206C396.097 244.343 396.892 243.739 397.636 243.85H397.644H397.651Z" fill="#CCCCCC"/>
<path d="M404.553 244.867L406.638 245.132H406.645C407.382 245.228 407.809 245.994 407.595 246.842C407.382 247.689 406.615 248.294 405.879 248.205L403.772 247.947C403.028 247.859 402.601 247.092 402.807 246.245C403.013 245.397 403.787 244.778 404.531 244.867H404.538H404.553Z" fill="#CCCCCC"/>
<path d="M411.507 245.692L413.599 245.899H413.606C414.343 245.972 414.777 246.709 414.586 247.549C414.394 248.382 413.65 249.001 412.921 248.935L410.807 248.736C410.07 248.67 409.628 247.933 409.812 247.093C410.004 246.252 410.748 245.626 411.492 245.692H411.499H411.507Z" fill="#CCCCCC"/>
<path d="M418.497 246.304L420.604 246.444H420.618C421.348 246.495 421.797 247.203 421.628 248.028C421.458 248.854 420.736 249.48 420.014 249.436L417.878 249.304C417.149 249.259 416.685 248.552 416.854 247.719C417.016 246.886 417.746 246.252 418.482 246.296H418.497V246.304Z" fill="#CCCCCC"/>
<path d="M425.539 246.687L427.66 246.753H427.675C428.397 246.776 428.868 247.461 428.721 248.272C428.574 249.082 427.881 249.724 427.16 249.709L425.016 249.65C424.287 249.628 423.815 248.95 423.955 248.132C424.095 247.314 424.802 246.665 425.524 246.68H425.539V246.687Z" fill="#CCCCCC"/>
<path d="M432.618 246.827H434.747L434.761 246.82C435.476 246.82 435.962 247.468 435.837 248.272C435.719 249.075 435.041 249.724 434.334 249.731L432.176 249.753C431.454 249.753 430.968 249.112 431.086 248.301C431.204 247.49 431.881 246.835 432.596 246.827H432.611H432.618Z" fill="#CCCCCC"/>
<path d="M439.741 246.709L441.884 246.621H441.899C442.606 246.591 443.107 247.21 443.011 247.999C442.916 248.788 442.275 249.451 441.568 249.488L439.395 249.591C438.68 249.628 438.179 249.009 438.268 248.213C438.356 247.417 439.012 246.746 439.719 246.709H439.734H439.741Z" fill="#CCCCCC"/>
<path d="M446.893 246.304L449.044 246.127H449.059C449.759 246.068 450.274 246.65 450.208 247.432C450.142 248.205 449.523 248.883 448.823 248.942L446.643 249.134C445.936 249.193 445.42 248.611 445.479 247.83C445.545 247.048 446.164 246.363 446.871 246.304H446.886H446.893Z" fill="#CCCCCC"/>
<path d="M454.068 245.611L456.226 245.346H456.241C456.933 245.257 457.464 245.81 457.419 246.569C457.383 247.328 456.793 248.021 456.101 248.11L453.913 248.397C453.221 248.485 452.683 247.94 452.72 247.174C452.757 246.407 453.346 245.714 454.046 245.618H454.06L454.068 245.611Z" fill="#CCCCCC"/>
<path d="M461.265 244.609L463.423 244.248H463.438C464.123 244.13 464.66 244.646 464.653 245.397C464.638 246.142 464.078 246.842 463.401 246.96L461.213 247.336C460.528 247.454 459.976 246.945 459.983 246.193C459.99 245.442 460.558 244.734 461.243 244.616H461.257L461.265 244.609Z" fill="#CCCCCC"/>
<path d="M468.454 243.29L470.612 242.825H470.627C471.297 242.678 471.857 243.157 471.872 243.887C471.886 244.616 471.363 245.324 470.693 245.471L468.498 245.958C467.82 246.105 467.261 245.633 467.238 244.896C467.216 244.159 467.747 243.444 468.424 243.297H468.439L468.454 243.29Z" fill="#CCCCCC"/>
<path d="M475.65 241.624L477.801 241.056H477.816C478.479 240.879 479.046 241.314 479.098 242.029C479.142 242.737 478.648 243.459 477.993 243.636L475.805 244.225C475.142 244.402 474.568 243.967 474.516 243.253C474.465 242.538 474.965 241.815 475.628 241.631H475.643L475.65 241.624Z" fill="#CCCCCC"/>
<path d="M482.818 239.612L484.961 238.941H484.976C485.624 238.735 486.206 239.133 486.28 239.826C486.353 240.518 485.889 241.241 485.249 241.447L483.076 242.14C482.427 242.346 481.838 241.948 481.757 241.255C481.676 240.563 482.14 239.826 482.788 239.619H482.803L482.818 239.612Z" fill="#CCCCCC"/>
<path d="M489.956 237.261L492.084 236.494H492.099C492.733 236.258 493.322 236.619 493.425 237.29C493.528 237.961 493.101 238.69 492.467 238.919L490.309 239.708C489.676 239.943 489.072 239.582 488.968 238.904C488.865 238.226 489.293 237.496 489.926 237.261L489.941 237.253L489.956 237.261Z" fill="#CCCCCC"/>
<path d="M497.049 234.585L499.163 233.723H499.178C499.797 233.465 500.393 233.789 500.518 234.438C500.644 235.087 500.246 235.816 499.635 236.074L497.491 236.966C496.872 237.224 496.268 236.9 496.136 236.251C496.003 235.595 496.401 234.858 497.02 234.6L497.034 234.593L497.049 234.585Z" fill="#CCCCCC"/>
<path d="M504.076 231.586L506.168 230.628H506.183C506.787 230.347 507.391 230.628 507.538 231.261C507.686 231.888 507.325 232.617 506.728 232.898L504.607 233.878C504.003 234.158 503.391 233.878 503.236 233.244C503.082 232.61 503.45 231.873 504.054 231.593L504.069 231.586H504.076Z" fill="#CCCCCC"/>
<path d="M511.044 228.284L513.114 227.237H513.129C513.711 226.935 514.322 227.186 514.492 227.79C514.661 228.394 514.33 229.124 513.748 229.419L511.656 230.495C511.067 230.797 510.455 230.547 510.278 229.935C510.102 229.33 510.44 228.593 511.022 228.291L511.037 228.284H511.044Z" fill="#CCCCCC"/>
<path d="M517.925 224.68L519.972 223.545H519.987C520.554 223.22 521.166 223.442 521.357 224.024C521.549 224.606 521.247 225.328 520.687 225.645L518.617 226.81C518.05 227.127 517.431 226.913 517.232 226.331C517.041 225.748 517.343 225.011 517.91 224.695L517.925 224.687V224.68Z" fill="#CCCCCC"/>
<path d="M524.716 220.788L526.734 219.565H526.749C527.294 219.226 527.913 219.41 528.119 219.97C528.325 220.53 528.06 221.245 527.515 221.584L525.475 222.83C524.922 223.169 524.304 222.985 524.09 222.425C523.876 221.864 524.149 221.135 524.694 220.796L524.709 220.788H524.716Z" fill="#CCCCCC"/>
<path d="M534.203 214.796C533.901 214.723 533.577 214.811 533.283 215.032L531.338 216.521L531.323 216.536C530.793 216.948 530.594 217.708 530.881 218.238C531.007 218.474 531.22 218.636 531.471 218.695C531.537 218.71 531.611 218.717 531.684 218.717C531.92 218.717 532.17 218.629 532.384 218.459L534.343 216.948C534.866 216.543 535.065 215.784 534.785 215.261C534.66 215.025 534.454 214.863 534.203 214.804V214.796Z" fill="#CCCCCC"/>
<path d="M540.568 209.652C540.266 209.593 539.949 209.689 539.669 209.917L537.769 211.48L537.754 211.495C537.246 211.915 537.076 212.674 537.378 213.175C537.511 213.396 537.725 213.551 537.968 213.595C538.027 213.602 538.078 213.61 538.137 213.61C538.387 213.61 538.645 213.514 538.859 213.33L540.774 211.745C541.275 211.325 541.444 210.581 541.15 210.079C541.017 209.858 540.811 209.711 540.56 209.659L540.568 209.652Z" fill="#CCCCCC"/>
<path d="M546.785 204.272C546.49 204.227 546.173 204.331 545.908 204.567L544.052 206.195L544.037 206.21C543.551 206.645 543.411 207.389 543.728 207.861C543.868 208.067 544.081 208.207 544.324 208.244C544.369 208.244 544.413 208.252 544.45 208.252C544.707 208.252 544.973 208.141 545.194 207.949L547.065 206.284C547.543 205.856 547.683 205.127 547.374 204.655C547.234 204.449 547.028 204.309 546.785 204.272Z" fill="#CCCCCC"/>
<path d="M553.429 199.002C553.289 198.803 553.083 198.685 552.847 198.656C552.56 198.626 552.25 198.737 552 198.973L550.188 200.675L550.173 200.69C549.716 201.125 549.606 201.847 549.93 202.297C550.07 202.496 550.284 202.613 550.519 202.636C550.549 202.636 550.578 202.636 550.608 202.636C550.873 202.636 551.145 202.518 551.366 202.311L553.186 200.579C553.635 200.152 553.746 199.437 553.429 198.995V199.002Z" fill="#CCCCCC"/>
<path d="M558.747 192.656C558.423 192.634 558.092 192.774 557.819 193.04L556.059 194.809L556.044 194.823C555.55 195.324 555.469 196.128 555.852 196.607C556.029 196.821 556.272 196.946 556.545 196.968C556.56 196.968 556.582 196.968 556.596 196.968C556.906 196.968 557.223 196.828 557.466 196.577L559.233 194.772C559.72 194.278 559.808 193.489 559.425 193.01C559.256 192.796 559.013 192.664 558.74 192.649L558.747 192.656Z" fill="#CCCCCC"/>
<path d="M564.463 186.598C564.154 186.569 563.823 186.738 563.572 187.011L561.848 188.861C561.384 189.369 561.333 190.143 561.723 190.593C561.9 190.792 562.143 190.902 562.416 190.91H562.423C562.74 190.91 563.056 190.755 563.299 190.497L565.008 188.632C565.465 188.138 565.524 187.365 565.134 186.922C564.957 186.723 564.721 186.605 564.456 186.605L564.463 186.598Z" fill="#CCCCCC"/>
<path d="M569.988 180.333C569.679 180.333 569.369 180.496 569.134 180.768L567.484 182.67L567.469 182.685C567.034 183.193 567.005 183.952 567.41 184.365C567.579 184.542 567.815 184.638 568.058 184.638C568.065 184.638 568.08 184.638 568.088 184.638C568.397 184.63 568.706 184.468 568.942 184.203L570.599 182.272C571.027 181.771 571.056 181.026 570.666 180.614C570.489 180.429 570.246 180.341 569.988 180.333Z" fill="#CCCCCC"/>
<path d="M575.314 173.862C575.012 173.885 574.717 174.047 574.496 174.319L572.905 176.28L572.89 176.295C572.485 176.803 572.485 177.533 572.89 177.923C573.06 178.086 573.273 178.159 573.487 178.159C573.804 178.159 574.135 178.004 574.378 177.702L575.969 175.712C576.374 175.211 576.374 174.489 575.969 174.106C575.793 173.936 575.549 173.848 575.299 173.87L575.314 173.862Z" fill="#CCCCCC"/>
<path d="M579.66 167.679L578.135 169.691L578.12 169.706C577.921 169.971 577.825 170.31 577.855 170.627C577.884 170.892 578.002 171.128 578.186 171.283C578.348 171.415 578.54 171.482 578.739 171.482C579.056 171.482 579.394 171.312 579.63 171.003L581.155 168.961C581.354 168.696 581.45 168.372 581.413 168.055C581.383 167.797 581.273 167.561 581.096 167.406C580.691 167.052 580.05 167.17 579.66 167.679Z" fill="#CCCCCC"/>
<path d="M586.326 161.142C586.289 160.891 586.171 160.67 585.987 160.53C585.582 160.213 584.963 160.353 584.602 160.854L583.129 162.94C582.945 163.205 582.864 163.529 582.908 163.832C582.945 164.09 583.07 164.311 583.254 164.451C583.402 164.561 583.578 164.62 583.755 164.62C584.079 164.62 584.418 164.443 584.639 164.119L586.098 162.019C586.282 161.753 586.363 161.436 586.319 161.134L586.326 161.142Z" fill="#CCCCCC"/>
<path d="M590.694 153.41C590.252 153.101 589.611 153.27 589.258 153.801L587.866 155.923L587.851 155.938C587.667 156.218 587.6 156.557 587.652 156.874C587.703 157.14 587.843 157.368 588.042 157.508C588.19 157.611 588.359 157.663 588.536 157.663C588.889 157.663 589.25 157.464 589.479 157.11L590.864 154.965C591.04 154.685 591.114 154.354 591.062 154.044C591.018 153.779 590.878 153.558 590.679 153.418L590.694 153.41Z" fill="#CCCCCC"/>
<path d="M595.114 146.195C594.672 145.915 594.053 146.114 593.736 146.637L592.418 148.804V148.819C592.241 149.099 592.182 149.43 592.248 149.725C592.307 149.983 592.455 150.197 592.661 150.322C592.793 150.403 592.948 150.447 593.103 150.447C593.456 150.447 593.825 150.241 594.046 149.873L595.357 147.676C595.519 147.404 595.578 147.072 595.512 146.784C595.453 146.534 595.313 146.32 595.114 146.195Z" fill="#CCCCCC"/>
<path d="M599.283 138.832C598.834 138.581 598.259 138.788 597.965 139.318L596.72 141.53V141.544C596.558 141.817 596.513 142.141 596.587 142.421C596.653 142.672 596.801 142.871 597.014 142.981C597.139 143.048 597.279 143.085 597.412 143.085C597.766 143.085 598.127 142.864 598.333 142.488L599.57 140.247C599.718 139.974 599.762 139.658 599.688 139.377C599.622 139.134 599.475 138.935 599.276 138.825L599.283 138.832Z" fill="#CCCCCC"/>
<path d="M603.194 131.329C602.752 131.108 602.2 131.337 601.935 131.86L600.771 134.115V134.13C600.624 134.402 600.594 134.712 600.675 134.977C600.749 135.213 600.903 135.405 601.11 135.501C601.22 135.552 601.338 135.582 601.463 135.582C601.817 135.582 602.178 135.353 602.377 134.963L603.533 132.685C603.666 132.42 603.703 132.11 603.614 131.845C603.54 131.609 603.393 131.425 603.187 131.322L603.194 131.329Z" fill="#CCCCCC"/>
<path d="M606.826 123.694C606.391 123.509 605.868 123.753 605.633 124.254L604.542 126.568C604.417 126.833 604.402 127.136 604.491 127.386C604.572 127.615 604.734 127.784 604.94 127.873C605.036 127.909 605.139 127.932 605.242 127.932C605.603 127.932 605.964 127.696 606.141 127.298L607.209 124.976C607.327 124.711 607.349 124.423 607.26 124.165C607.179 123.944 607.025 123.767 606.818 123.679L606.826 123.694Z" fill="#CCCCCC"/>
<path d="M610.17 115.94C609.743 115.786 609.249 116.043 609.036 116.537L608.041 118.866V118.881C607.923 119.139 607.916 119.426 608.019 119.67C608.108 119.883 608.27 120.045 608.476 120.119C608.557 120.149 608.645 120.163 608.734 120.163C609.095 120.163 609.448 119.913 609.618 119.515L610.605 117.164C610.708 116.906 610.715 116.626 610.619 116.39C610.531 116.176 610.376 116.014 610.17 115.94Z" fill="#CCCCCC"/>
<path d="M613.219 108.084C612.807 107.958 612.336 108.224 612.151 108.71L611.253 111.069V111.083C611.15 111.334 611.157 111.614 611.26 111.835C611.356 112.041 611.518 112.189 611.724 112.248C611.79 112.27 611.864 112.277 611.93 112.277C612.291 112.277 612.645 112.019 612.8 111.614L613.691 109.226C613.787 108.975 613.779 108.703 613.676 108.482C613.58 108.275 613.418 108.135 613.219 108.069V108.084Z" fill="#CCCCCC"/>
<path d="M615.82 100.102C615.407 100.021 614.98 100.308 614.833 100.78L614.081 103.197C614.008 103.448 614.03 103.706 614.14 103.912C614.243 104.104 614.42 104.236 614.626 104.273C614.671 104.281 614.722 104.288 614.766 104.288C615.135 104.288 615.496 104.008 615.621 103.595L616.357 101.17C616.431 100.927 616.409 100.669 616.298 100.463C616.195 100.271 616.026 100.146 615.827 100.102H615.82Z" fill="#CCCCCC"/>
<path d="M617.713 92.0093C617.315 91.9724 616.925 92.3041 616.829 92.7684L616.313 95.1932V95.2227C616.254 95.4659 616.306 95.7091 616.431 95.886C616.556 96.0629 616.733 96.166 616.939 96.1808C616.954 96.1808 616.969 96.1808 616.984 96.1808C617.374 96.1808 617.735 95.8565 617.823 95.4217L618.324 92.96C618.376 92.7242 618.324 92.4883 618.206 92.3041C618.089 92.1346 617.912 92.024 617.706 92.0093H617.713Z" fill="#CCCCCC"/>
<path d="M619.105 84.0937C618.965 83.9463 618.774 83.88 618.575 83.8947C618.184 83.9316 617.86 84.2927 617.823 84.7496L617.647 87.1597V87.1965C617.632 87.425 617.706 87.6388 617.846 87.7935C617.971 87.9262 618.14 87.9925 618.317 87.9925C618.339 87.9925 618.369 87.9925 618.391 87.9925C618.781 87.9483 619.113 87.5798 619.142 87.145L619.304 84.6833C619.319 84.4622 619.245 84.2485 619.105 84.0937Z" fill="#CCCCCC"/>
<path d="M617.742 79.2663V79.3032C617.772 79.5095 617.875 79.6938 618.037 79.8043C618.14 79.878 618.265 79.9149 618.39 79.9149C618.464 79.9149 618.53 79.9001 618.604 79.878C618.972 79.7527 619.223 79.3474 619.171 78.942L618.877 76.5762C618.855 76.3698 618.751 76.1929 618.597 76.0824C618.435 75.9718 618.236 75.9424 618.044 76.0013C617.676 76.1192 617.433 76.5172 617.477 76.9447L617.742 79.2589V79.2663Z" fill="#CCCCCC"/>
<path d="M616.232 71.9182L616.247 71.9551C616.321 72.1246 616.453 72.2573 616.623 72.3089C616.682 72.331 616.748 72.3383 616.814 72.3383C616.939 72.3383 617.072 72.3015 617.183 72.2204C617.507 72.0067 617.654 71.5645 617.507 71.2181L616.63 69.1323C616.556 68.9628 616.431 68.8375 616.262 68.7785C616.085 68.7196 615.879 68.7491 615.709 68.8596C615.385 69.066 615.245 69.5008 615.4 69.8767L616.24 71.9182H616.232Z" fill="#CCCCCC"/>
<path d="M613.897 64.6512L612.498 63.0003C612.395 62.875 612.247 62.8013 612.085 62.794C611.908 62.7792 611.724 62.8677 611.584 63.0077C611.312 63.2878 611.282 63.7226 611.525 64.0248L612.873 65.6462L612.895 65.6757C613.006 65.801 613.153 65.8747 613.315 65.8821H613.33C613.507 65.8821 613.684 65.801 613.824 65.661C614.096 65.3735 614.126 64.9313 613.89 64.6512H613.897Z" fill="#CCCCCC"/>
<path d="M608.24 61.0398C608.461 61.0398 608.689 60.9072 608.815 60.6713C608.91 60.5018 608.94 60.2954 608.888 60.1112C608.844 59.949 608.748 59.8164 608.608 59.7353L606.759 58.7035C606.479 58.5487 606.111 58.674 605.934 58.9909C605.839 59.1604 605.809 59.3594 605.853 59.5363C605.898 59.6985 605.993 59.8311 606.155 59.9269L607.945 60.9514L607.975 60.9661C608.056 61.0103 608.152 61.0325 608.24 61.0325V61.0398Z" fill="#CCCCCC"/>
<path d="M602.546 31.1906L602.112 58.1433L587.46 45.4666L602.546 31.1906Z" fill="#0095C3"/>
<path d="M504.238 8.50515L562.401 76.6866C563.513 77.9911 564.994 78.7061 566.496 78.6545C567.999 78.6102 569.399 77.8069 570.378 76.436L621.477 4.59159C622.059 3.76613 622.169 2.57216 621.75 1.56245C621.33 0.552734 620.46 -0.0589902 619.562 0.00734141L504.246 8.50515H504.238Z" fill="#07B8AC"/>
<path d="M602.539 31.1905L504.238 8.50513L594.326 42.8207L602.03 57.5389L602.539 31.1905Z" fill="#0095C3"/>
<path d="M589.405 49.6676L602.112 58.1433L594.326 42.8207L589.405 49.6676Z" fill="#B4B4B4"/>
</g>
<defs>
<clipPath id="clip0_505_393">
<rect width="622" height="478" fill="white"/>
</clipPath>
</defs>
</svg>
