<svg width="36" height="36" viewBox="0 0 36 36" fill="none" xmlns="http://www.w3.org/2000/svg">
<path fill-rule="evenodd" clip-rule="evenodd" d="M31.5772 35.5H4.35495C2.20718 35.5 0.466064 33.7589 0.466064 31.6111V4.38889C0.466064 2.24111 2.20718 0.5 4.35495 0.5H31.5772C33.7249 0.5 35.4661 2.24111 35.4661 4.38889V31.6111C35.4661 33.7589 33.7249 35.5 31.5772 35.5ZM25.4112 30.6389H30.605V19.9694C30.605 15.455 28.0459 13.2722 24.4715 13.2722C20.8954 13.2722 19.3904 16.057 19.3904 16.057V13.7871H14.3851V30.6389H19.3904V21.7927C19.3904 19.4224 20.4815 18.012 22.5699 18.012C24.4896 18.012 25.4112 19.3673 25.4112 21.7927V30.6389ZM5.32721 8.4708C5.32721 10.1881 6.70876 11.5805 8.4137 11.5805C10.1186 11.5805 11.4994 10.1881 11.4994 8.4708C11.4994 6.75354 10.1186 5.36115 8.4137 5.36115C6.70876 5.36115 5.32721 6.75354 5.32721 8.4708ZM11.0484 30.6389H5.82914V13.7871H11.0484V30.6389Z" fill="white"/>
</svg>
